<?xml version="1.0" encoding="UTF-8"?>
<svg id="Layer_2" data-name="Layer 2" xmlns="http://www.w3.org/2000/svg" viewBox="0 0 1371.73 573.58">
  <defs>
    <style>
      .cls-1 {
        fill: none;
        stroke: #fff;
        stroke-linecap: round;
        stroke-linejoin: round;
      }

      .cls-2 {
        opacity: .1;
      }
    </style>
  </defs>
  <g id="_レイヤー_2" data-name="レイヤー 2">
    <g class="cls-2">
      <g>
        <path class="cls-1" d="M1212.28,119.38c-.73-.08-1.51-.14-2.27-.2l-5.88,1.58c.74-.11,1.49-.23,2.22-.36,1.99-.33,3.96-.68,5.94-1.03Z"/>
        <path class="cls-1" d="M293.97,169.35c-.25-.01-.52-.03-.78-.05l-8.93,3.24-11.19-.51,18.48-5.41-22.16,2.24.83.18c-.46.04-.92.04-1.39.06-8.34.44-16.65,1.43-24.61,3.53-16.18,4.48-32.17,10.01-47.81,16.32-15.62,6.32-30.93,13.44-45.66,21.57-1.93,1.06-3.86,2.16-5.78,3.27-7.98,5.95-15.22,12.78-21.05,20.64-4.18,5.57-7.7,11.69-9.79,18.08-1.02,3.17-1.69,6.56-1.57,9.35.24,3.63.44,7.73-.55,12-.49,2.15-1.36,4.35-2.63,6.29-1.25,1.92-2.78,3.52-4.32,4.89-.75.7-1.55,1.34-2.3,1.93-.83.65-1.57,1.19-2.35,1.74l-4.57,3.17c-3.99,2.68-8.01,5.26-12.05,7.81,12.18,1.35,24.34,2.77,36.49,4.24,5.16-4.67,10.43-9.22,15.74-13.71,8.74-7.37,17.64-14.55,26.75-21.46,9.08-6.97,18.34-13.69,27.75-20.21,9.4-6.55,18.95-12.85,28.67-18.92,19.41-12.2,39.45-23.4,60.06-33.55,10.29-5.13,20.9-9.6,31.79-13.29,5.45-1.86,10.93-3.59,16.39-5.31,2.91-.96,5.83-1.83,8.74-2.75-6-1.13-12.04-2.09-18.1-2.92l-35.15,12.72-1.82-6.05,36.28-8.84-13.22.52c-3.39-.32-6.8-.59-10.2-.81Z"/>
        <path class="cls-1" d="M1069.98,159.24l-14.6,5.29-1.82-6.05,18.39-4.48-6.02-1.22c-1.41-1.26-3.09-2.36-4.98-3.24-3.32-1.53-7.09-2.51-10.98-3.14-4.4-.69-8.93-.99-13.52-1.06l-21.06,7.62-1.83-6.04,42.43-10.35,22.86-8.05c5.23,6.98,6.35,11.04,6.35,11.04l19.7-38.08c-9.82-4.5-19.7-8.86-29.62-13.1l-16,3.63-1.19-6.21,25.78-3.97-9.35-1.17c-.46-.2-.9-.42-1.34-.62-2.73-1.25-5.5-2.44-8.23-3.66l-3.53.81c3.17,1.34,6.34,2.68,9.5,4.07l-9.02,1.5c-4.32-1.78-8.66-3.51-13-5.21l-6.54-1.79,24.2-4.64-19.85-2.64c-5.61-2.35-11.25-4.62-16.9-6.83l-4.72,1.06c3.47,1.27,6.96,2.52,10.41,3.84,2.23.87,4.44,1.81,6.68,2.69l-10.22,1.75c-5.71-2.09-11.46-4.07-17.24-5.94l-20.61,4.68c52.65,24.45,75.21,46.15,84.62,58.64l-69.23,18.56-.74.09c-.4.07-.75.13-1.18.23-1.64.38-3.22,1-4.73,1.8-6.05,3.24-10.75,10.28-13.39,17.13l-.56,1.34-.8.61c-8.31,6.26-16.58,12.71-24.64,19.31-4.02,3.31-8,6.67-11.84,10.12-1.91,1.73-3.79,3.48-5.54,5.28-.87.9-1.73,1.81-2.45,2.71-.38.46-.71.9-.96,1.29-.04.06-.07.12-.1.17.31.68.73,1.44,1.15,2.1.64.97,1.36,1.87,2.17,2.66,1.61,1.6,3.54,2.83,5.71,3.52,4.36,1.41,9.51.68,14.31-.97,4.66-1.49,9.06-4.72,13.61-7.7,4.52-3.04,9.14-6.05,13.93-8.78,9.58-5.48,19.91-9.68,30.57-12.3,10.66-2.67,21.63-3.7,32.52-3.68-10.88.62-21.67,2.4-32.03,5.52-5.6,1.67-11.04,3.8-16.28,6.32,2.09.04,4.19.05,6.3.04,4.19-.04,8.37-.19,12.53-.42,8.29-.46,16.61-1.36,24.29-3.55,3.8-1.12,7.52-2.53,10.36-4.59,1.39-1.02,2.53-2.19,3.26-3.45.37-.64.9-1.69,1.32-2.53.43-.9.84-1.8,1.22-2.7,1.61-3.71,2.71-7.64,2.95-11.32l.46.02.36-1.57,2.03-.48-2.88-1.18c-.08-.92-.26-1.83-.47-2.7Z"/>
        <path class="cls-1" d="M382.95,166.26c-3.27,3.14-6.46,6.41-9,9.95,22.7-17.93,46.01-34.96,69.79-51.4,24-16.53,48.47-32.5,73.99-46.82,2.6-1.46,5.24-2.9,7.87-4.32-3.32,1.72-6.63,3.48-9.92,5.24-17.01,9.16-33.78,18.8-50.3,28.86-16.49,10.06-32.75,20.52-48.52,31.66-7.89,5.59-15.63,11.32-23.09,17.4-3.72,3.04-7.36,6.15-10.82,9.44Z"/>
        <path class="cls-1" d="M365.99,164.31c1.02,2.92,2.21,5.92,3.24,8.98l1.58.09c2.75-3.8,5.92-7.08,9.18-10.22,3.55-3.4,7.26-6.6,11.02-9.7,4.21-3.46,8.49-6.79,12.85-10.05-.68-1.12-1.45-2.28-2.21-3.39-.46-.67-.95-1.34-1.42-1.93l-.17-.2c-.27.02-.84.08-1.4.2-.68.13-1.4.33-2.15.53-1.48.42-3,.96-4.51,1.53-6.1,2.31-12.21,5.06-18.22,7.9-2.98,1.47-6.03,2.85-8.84,4.39-.59.32-1.14.62-1.64.91-.05.37-.07,1.31.12,2.28.44,2.6,1.46,5.68,2.57,8.68Z"/>
        <path class="cls-1" d="M399.75,137.47l-.1-.13c-.05-.05-.21-.26-.05-.02.06.06.09.1.15.15Z"/>
        <path class="cls-1" d="M805.21,31.98v.02s.02.05.02.05c.21.2.04,0-.02-.07Z"/>
        <path class="cls-1" d="M916.07,307.73c-1.26-8-2.95-15.93-5.28-23.65-2.68-8.89-6.2-17.53-10.96-25.39-4.74-7.82-10.84-14.84-18.35-19.79-7.49-4.96-16.33-7.61-25.33-8-8.94-.46-17.86,1.78-25.75,6.1-4.09,2.24-7.91,4.95-11.51,8.01,7.3-3.04,14.79-4.57,22.47-4.57,30.88,0,58.87,25.27,74.15,73.33l3.64-.79-3.08-5.25Z"/>
        <path class="cls-1" d="M479.68,340.45h-.02c-.71,0-1.39-.02-2.07-.06l-4.46-.27,1.93-4.04c.35-.73.75-1.46,1.17-2.19.88-1.59,1.89-3.21,2.94-4.8,1.99-2.98,4.17-6.01,6.68-9.29,4.98-6.42,10.05-12.26,15.04-17.39,3.01-3.05,5.75-5.6,8.39-7.77,3.41-2.81,6.35-4.8,9-6.05l.23-.1.25-.08c17.97-4.95,32.5-9.21,45.67-13.39,3.84-1.23,7.64-2.49,11.45-3.84,3.95-1.4,7.55-2.69,11.33-4.51l10.46-5.95,10.52-5.86,84.01-46,.66-.36h.75c2.89-.06,5.8-.08,8.7-.08,4.1,0,8.2.05,12.3.15,4.22.14,7.64.31,10.75.53,1.75.14,3.52.29,5.23.5l8.36,1.03-7.12,4.51c-23.42,14.85-47.37,29.78-70.51,44.21l-4.03,2.53c-29.45,18.32-54.27,33.57-79.71,48.48-8.09,4.72-14.35,8.26-20.26,11.52-3.4,1.87-6.82,3.71-10.25,5.47-3.65,1.83-7.19,3.58-10.35,4.7-.53.18-1.01.33-1.34.39l-.05.02-.35.06-.84.14-2.9.47-5.76,1.01-11.48,1.96c-7.37,1.28-15.21,2.59-22.96,3.52-3.48.38-7.56.79-11.36.82h0Z"/>
        <path class="cls-1" d="M490.69,336.63c7.53-.9,15.16-2.16,22.79-3.49l11.48-1.99,5.79-.97,2.91-.47.73-.12c.19-.03.14-.01.33-.06.24-.05.62-.16.98-.28,3.1-1.11,6.64-2.86,10-4.56,3.4-1.74,6.79-3.57,10.17-5.43,6.77-3.72,13.48-7.58,20.18-11.49,26.76-15.67,53.25-32,79.65-48.42,24.86-15.52,49.76-31.03,74.51-46.72-1.67-.21-3.39-.36-5.08-.49-3.52-.27-7.08-.4-10.62-.51-6.93-.2-13.92-.21-20.86-.11l-84,46-10.5,5.85-10.64,6.05c-3.97,1.9-7.76,3.25-11.62,4.63-3.84,1.35-7.69,2.63-11.54,3.86-15.2,4.83-30.45,9.19-45.79,13.41-2.74,1.3-5.64,3.41-8.36,5.65-2.81,2.33-5.52,4.89-8.16,7.56-5.24,5.37-10.17,11.16-14.8,17.11-2.29,2.98-4.5,6.04-6.56,9.11-1.01,1.54-1.98,3.1-2.83,4.62-.38.67-.75,1.37-1.07,2.02.61.05,1.25.06,1.88.05,3.49-.01,7.28-.38,11.03-.79Z"/>
        <path class="cls-1" d="M907.31,347.29c-1.42-7.76-3.39-15.43-5.92-22.88l1.44-.58-3.05-6.56,8.9-1.98-11.54-1.85c-.11-.27-.23-.56-.35-.84-4.92-10.97-11.36-21.37-19.85-29.6-4.25-4.08-9-7.6-14.22-10.07-5.21-2.5-10.87-3.88-16.61-3.96-5.71-.04-11.44,1.22-16.73,3.64-5.31,2.38-10.2,5.83-14.57,9.88-8.73,8.15-15.43,18.54-20.61,29.54-10.34,22.17-14.68,46.97-14.79,71.53,0,.96.05,1.94.05,2.92l-26.6,8.13.89,2.68,34.26-10.74c.34-11.99,1.6-23.97,4.43-35.6-.24,11.45-.11,22.79.41,34.09l64.39-20.2c-.49-2.75-1.1-5.27-1.81-7.77-.91-3.17-1.99-6.19-3.23-9.16-.49-1.13-1.01-2.25-1.53-3.38-.46.38-.93.76-1.4,1.17.21-.86.48-1.67.8-2.5-.68-1.38-1.36-2.77-2.09-4.18-1.54-2.99-3.21-5.98-4.76-9.35,3.39,1.52,6.3,3.8,8.8,6.49.43.46.84.95,1.24,1.47.76-1,1.57-1.96,2.41-2.86,2.7-2.83,5.87-5.19,9.27-7.08-1.1-2.32-2.25-4.61-3.52-6.86-4.08-7.21-9.02-14-14.42-20.68,9.46,6.27,17.38,15.04,23.08,25.13,2.5-.99,5.08-1.78,7.7-2.3,1.11-.21,2.25-.4,3.39-.51-1.36-3.4-2.85-6.75-4.48-10.02-3.04-6.03-6.48-11.86-10.49-17.34-3.98-5.5-8.42-10.71-13.61-15.27,6.03,3.44,11.23,8.2,16,13.3,4.7,5.19,8.87,10.88,12.41,16.94,2.34,3.9,4.34,7.97,6.15,12.14,1.05.05,2.11.15,3.16.31-.84.44-1.65.85-2.48,1.25.74,1.77,1.46,3.55,2.14,5.34,2.4,6.62,4.22,13.42,5.62,20.3,1.28,6.89,2.14,13.86,2.53,20.83.3,6.99.33,13.97-.23,20.92-.97,13.88-3.52,27.58-7.57,40.8,1.49-13.73,2.59-27.37,2.65-40.97-.05-6.8-.18-13.6-.81-20.33-.55-6.74-1.43-13.44-2.75-20.04-1.58-8.32-3.82-16.51-6.77-24.44-1.11.5-2.25,1.01-3.34,1.52-2.18.97-4.3,1.98-6.39,3,1.66,3.58,3.05,7.27,4.15,11.06,1.16,4.23,2.07,8.55,2.59,12.91.46,4.36.72,8.74.48,13.11-.41,8.68-2.01,17.4-5.58,25.26,1.03-8.52,1.18-16.92.66-25.2-.33-4.14-.7-8.26-1.46-12.33-.69-4.03-1.56-8.07-2.77-11.99-.99-3.4-2.17-6.74-3.49-10.04-2.94,1.57-5.81,3.24-8.61,5.07-1.1.73-2.21,1.47-3.29,2.25.94,1.48,1.77,3.04,2.44,4.67,1.45,3.42,2.28,7.18,2.33,10.92,0,2.67-.36,5.39-1.3,7.88l1.11-.34-1.15.45c-.37.96-.82,1.87-1.37,2.75-.11-.7-.22-1.39-.33-2.06l-64.11,25.72c.28,4.49.61,8.97,1.13,13.41.62,5.84,1.4,11.68,2.52,17.41.89,5.02,2.04,9.98,3.42,14.87l62-24.5-60.65,29.06c1.48,4.73,3.3,9.37,5.35,13.9,4.92,10.49,11.82,20.14,21.27,27.56-10.9-5.17-19.67-14.64-25.63-25.29-2.53-4.34-4.53-8.96-6.29-13.64l-6.13,2.93c1.12,2.96,2.32,5.89,3.64,8.76,5.14,11.07,11.78,21.57,20.59,29.82,4.4,4.09,9.33,7.56,14.7,10,5.36,2.44,11.19,3.73,16.99,3.68,5.82-.06,11.58-1.46,16.87-3.98,5.28-2.53,10.1-6.08,14.38-10.19,8.57-8.33,15.03-18.8,19.96-29.83,4.92-11.07,8.33-22.84,10.52-34.81,2.19-11.98,3.17-24.14,3.05-36.37-.05-3.52-.21-6.99-.41-10.48l.38-.15v-2.52l10.21-3.37-11.6-5.3c-.56-4.85-1.24-9.68-2.13-14.46Z"/>
        <path class="cls-1" d="M1312.86,185.74c-2.08-11.57-5.63-29.72-7.86-39.91l-.08-.32.02-.26c-.02-.55-.11-1.09-.22-1.63l-23.17,7.26c5.36.4,10.5,3.13,12.87,7.46-4.92-1.39-9.26-1.1-13.01.05-3.76,1.17-7.14,3.2-10.46,5.71-1.77,1.33-3.03,2.4-4.42,3.99-1.37,1.54-2.64,3.31-3.91,5.12-2.49,3.68-4.78,7.69-6.97,11.75-4.37,8.18-8.35,16.73-12.37,25.3-3.92,8.61-7.88,17.28-12.02,25.96.64-4.78,1.55-9.49,2.6-14.18l1.66-7.02,1.9-6.93c2.62-9.25,5.81-18.37,9.83-27.27,2.02-4.46,4.27-8.85,6.99-13.11,1.35-2.17,2.88-4.25,4.63-6.3,1.69-2.04,4.03-4.12,6.16-5.54,4.35-3.01,9.82-5.28,15.59-5.07.3,0,.59.05.9.06l-1.58-6.1,23.13-4.76c-.73-1.64-1.45-3.22-1.51-3.3-1.99-2.34-4.7-3.99-7.74-4.95-3.03-.97-6.37-1.34-9.73-1.32-3.37.03-6.8.41-10.21.99h0l-1.48.17-1.29-.78c-1.52-.9-3.27-1.76-5.07-2.59l-63.36,19.48-1.72-6.07,67.49-17.37-11.84.49c-.84-.24-1.67-.49-2.51-.7-5.93-1.44-12.01-1.96-17.84-1.17-4.86,1.31-9.41,2.24-14.11,3.18-.64.12-1.28.24-1.92.36-7.98,3.69-15.74,7.62-23.42,11.87-8.68,4.79-17.42,9.62-26,14.82-8.57,5.19-17.08,10.56-25.56,16.06l-4.98,3.23,17.37,48.84.37,1.05-.21.99h0s-.02.11-.03.17c2.06.59,4.12,1.23,6.16,1.92-2.12-.34-4.25-.66-6.37-.96-4.25,20.26-8.58,40.48-13.04,60.68-2.28,10.29-4.58,20.57-6.99,30.85-1.22,5.13-2.44,10.24-3.73,15.38-1.13,4.41-2.22,8.74-3.62,13.17l20.91,4.75,1.04.23,1.07,1.33h0l22.27,30.04,6.2,8.35-11.4.16h0c-.53-.17-1.58-.27-2.64-.31-1.06-.02-2.2,0-3.36.05-2.34.13-4.73.37-7.13.66-4.83.58-9.71,1.37-14.56,2.23-9.73,1.74-19.46,3.77-29.15,5.97,9.13-3.96,18.34-7.72,27.7-11.25,4.69-1.77,9.41-3.45,14.26-4.99,2.15-.66,4.32-1.3,6.57-1.86l-14.75-23.59-20.38-8.21.25-.81c-29.69,7.18-175.27,65.16-188.67,70.53.04,2.94.08,5.86.14,8.8l180.48-53.86-183.72,64.94-6.33,2.24v-6.96s0-.01,0-.01c.8-11.17,1.44-22.36,2.02-33.55l-5.48,1.98c-.49,6.85-1.33,13.59-2.48,20.19l-2.36,37.33c20.09-6.51,40.23-12.78,60.44-18.92,21.18-6.41,42.43-12.65,63.76-18.58,21.35-5.94,42.77-11.6,64.36-16.61,10.81-2.49,21.67-4.8,32.62-6.75,5.47-.97,10.97-1.83,16.52-2.51,5.45-.63,10.93-1.14,16.56-1.03l27.89-6.64c.81-4.8,1.72-9.59,2.6-14.36.34-1.85.69-3.69,1.06-5.53l-.1.11c.14-.68,2.74-13.44,2.88-14.12l-.04.02.16-.56c.08-.33.12-.65.21-.97l.08-.03,2.44-11.28h-.19c.91-4.29,1.82-8.62,2.76-12.92l-53.88,17.55,41.15-16.6c-8.13,1.18-16.27,2.41-24.38,3.77-6.89,1.13-13.77,2.35-20.61,3.71-6.85,1.38-13.7,2.82-20.37,4.9,6.57-2.44,13.36-4.2,20.14-5.94,6.78-1.69,13.6-3.26,20.45-4.75,12.72-2.78,25.52-5.31,38.34-7.69,1.93-12.85,4.33-25.56,7.05-38.24.81-3.79,1.65-7.56,2.51-11.31l-.1-.31.18-.06c2.35-10.09,4.91-20.17,7.81-30.15,4.05-13.82,8.63-27.53,14.74-40.79,3.11-6.6,6.57-13.12,11.06-19.18,2.26-3.01,4.77-5.92,7.82-8.48,3.04-2.53,6.7-4.73,10.95-5.66,4.31-.91,8.65-.42,12.61,1.22,3.97,1.65,7.21,4.44,9.73,7.5,5.01,6.19,7.76,13.3,9.91,20.34,4.11,14.18,5.58,28.66,6.32,43.03.64,14.43.28,28.81-.73,43.13-.53,7.18-1.23,14.34-2.18,21.47-.2,1.45-.42,2.92-.64,4.38,0,.12-.02.26-.02.38.59-1.83,1.13-3.69,1.63-5.57,1.92-7.3,3.13-14.82,3.93-22.37,1.56-15.16,1.48-30.49.59-45.75-.28-4.22-.62-8.45-1-12.67l-1.13.48-.71-6.5,1.3-.38c-1.15-9.51-3.08-23.71-4.41-31.79l.14-.07Z"/>
        <path class="cls-1" d="M893.36,226.85c-3.57-4.41-7.52-8.48-11.76-12.25l-19.09,4.73-1.24-6.19,22.1-3.4-10.33-2.05c-2.21-1.6-4.47-3.1-6.8-4.54-5.18-3.23-10.33-5.85-16-7.79-5.63-1.92-11.5-3.4-17.5-4.48-11.98-2.1-24.34-2.89-36.72-3-12.21-.05-24.54.49-36.73,1.6l.11.8c-24.59,3.35-48.93,8.71-73.02,14.92-24.09,6.25-47.95,13.45-71.62,21.22-23.67,7.78-47.15,16.15-70.45,24.98-23.3,8.84-46.47,18.07-69.36,27.95,22.75-10.21,45.8-19.77,68.98-28.96,23.19-9.15,46.57-17.88,70.16-26,23.59-8.13,47.39-15.68,71.47-22.28,16.76-4.6,33.68-8.74,50.76-12.11-24.67.38-49.34.36-73.99.17-31.99-.27-63.98-.8-95.96-1.66-31.98-.84-63.95-1.82-95.92-3.13-31.98-1.31-63.93-2.81-95.88-4.96l-6-.4,3.38-2.4h-.24l-27.28-1.29c-5.2,1.58-10.2,3.77-15.21,5.89-5.21,2.25-10.34,4.69-15.46,7.17-10.2,4.98-20.43,9.8-30.72,14.55-20.53,9.57-40.55,20.3-60.17,31.72-9.8,5.74-19.5,11.66-29.09,17.73-9.59,6.13-19.07,12.42-28.46,18.83-14.8,10.21-29.37,20.76-43.58,31.84,18.28,2.21,36.53,4.48,54.78,6.7,16.87,2.07,33.76,4.06,50.68,5.73,16.92,1.64,33.85,3.14,50.8,4.41,33.89,2.46,67.88,4.03,101.87,4.35,8.48.08,16.99.07,25.49-.05,8.51-.06,17-.2,25.49-.47,14.78-.45,29.54-1.29,44.3-2.35,1.66-2.4,3.36-4.76,5.14-7.04,4.92-6.32,10.23-12.28,16-17.9,2.89-2.8,5.89-5.54,9.13-8.1,3.28-2.53,6.67-5.01,10.98-6.91l.4-.18.39-.09c15.5-3.78,31.05-7.75,46.36-12.13,3.82-1.11,7.64-2.25,11.4-3.45,3.73-1.2,7.54-2.47,10.85-3.94l10.43-5.56,10.7-5.55,42.89-21.91,43.05-21.6.47-.22.46-.02h.02c7.2-.12,14.36-.11,21.57.09,3.59.1,7.19.26,10.8.53,3.65.31,7.21.56,11.04,1.56l4.53,1.2-3.96,2.59h0c-25.8,17.38-51.65,34.7-77.74,51.71-26.1,16.98-52.26,33.84-78.85,50.14-6.66,4.06-13.35,8.08-20.13,12.01-3.4,1.95-6.82,3.88-10.31,5.75-3.54,1.87-6.93,3.7-11.13,5.31-.55.19-1.1.39-1.8.56-.29.09-.81.18-1.1.24l-.72.14-2.83.53-5.7,1.07-11.46,2.24c-7.68,1.46-15.37,2.91-23.26,4-3.96.54-7.93,1.02-12.21,1.13-2.18.03-4.31.08-7.2-.57-.75-.2-1.55-.43-2.55-.94-.96-.52-2.35-1.35-3.37-3.25-.11-.24-.23-.48-.32-.73-.11-.3.02.16-.26-.78l-.02-.09-.04-.17-.05-.25-.06-.39c-.07-.53-.07-1.11-.07-1.3,0-.27.03-.62.06-.83.11-1.02.31-1.69.5-2.41.84-2.6,1.83-4.47,2.85-6.37.57-1.05,1.16-2.04,1.77-3.03-13.48,1.72-27.02,3.01-40.56,4.03-8.54.65-17.08,1.19-25.64,1.64-8.54.39-17.11.68-25.66.86-34.24.76-68.49-.05-102.66-2.12-17.08-1-34.15-2.31-51.18-3.94-17.03-1.64-34.06-3.44-51.03-5.62-16.96-2.21-33.88-4.79-50.7-8-4.16-.78-8.31-1.6-12.46-2.45-.48.4-.95.74-1.42,1.14.4-.41.82-.78,1.23-1.17-11.51-2.37-22.97-5.04-34.33-8.2-.03.02-.07.03-.1.04-6.32,3.81-12.54,7.56-19.45,10.91-.9.42-1.8.83-2.8,1.22-.49.2-1.03.39-1.66.57l-.51.13-.71.15-.56.07c-.23.02-.46.05-.71.03-1.95.07-4.02-.76-5.27-1.84-1.32-1.07-2.08-2.25-2.68-3.35-.96-1.86-1.42-3.61-1.67-5.33-1.03,1.27-2.09,2.53-3.12,3.81-5.27,6.57-10.39,13.27-15.36,20.08-2.48,3.39-4.92,6.83-7.32,10.27-1.83,2.67-3.72,5.45-5.44,8.13,3.8,4.8,7.34,9.73,10.67,14.87.44.68.84,1.39,1.28,2.08,30.45,5.85,320.32,58.93,508.51,2.34,47.06-14.15,190.87-71.81,190.87-71.81-1.41.62-142.37,61.62-189.65,75.85-64.65,19.43-141.16,26.03-215.1,26.03-135.63,0-262.59-22.13-291.81-27.58.43.76.87,1.51,1.28,2.28,1.67,3.18,3.27,6.43,4.41,10.2.56,1.86,1.04,3.97.98,6.35,0,.13-.02.24-.03.36l30.14.21,2.87.03.61,3.84-.14,30.92c-.08,10.3-.12,20.59-.37,30.93l-.1,4.23-3.26-2.54h0c-3.29-2.71-6.35-5.52-9.33-8.49-2.97-2.95-5.81-6.03-8.47-9.27-2.65-3.23-5.11-6.62-7.21-10.24-2.09-3.62-3.83-7.49-4.6-11.56,1.13,3.99,3.15,7.63,5.49,10.98,2.34,3.38,5.03,6.5,7.89,9.44,2.86,2.93,5.9,5.69,9.03,8.34,2.01,1.68,4.08,3.27,6.16,4.83-.35-8.37-.81-16.8-1.28-25.21-9.99-8.02-12.82-26.84-13.45-32.33l-14.01-3.77c-.14,1.99-.46,3.47-.77,5.11-.71,3.52-1.56,6.87-2.42,10.24-1.74,6.72-3.57,13.34-5.37,19.98-3.52,13.24-7.4,26.5-9.75,39.76-.52,3.23-1,6.71-.75,9.43.02.59.33,1.2.12.9l1.7,1.75,3.65,3.56c4.63,4.41,9.36,8.74,14.12,13.04l6.76-3.17c-3.82-1.17-7.61-2.53-11.35-4.15,6.66-.47,13.2-.31,19.69.21l1.52-.71.41.88c6,.55,11.93,1.4,17.85,2.37l38.94,5.84c25.99,3.73,51.97,7.53,78,10.9,26.02,3.46,52.06,6.65,78.14,9.4,26.07,2.75,52.21,5.07,78.32,5.49l.9.02.56.53h.01l16.19,14.98c33.51-.11,67.04-.5,100.53-1.11,33.76-.62,67.52-1.5,101.24-2.73,33.73-1.26,67.45-2.85,101.08-5.28,16.8-1.22,33.6-2.68,50.29-4.63,8.33-.99,16.66-2.1,24.88-3.5,7.33-1.28,14.7-2.74,21.57-4.9l2.28-20.4c-3.55-12.13-6.58-24.35-8.96-36.72l-.46-.83.29-.1c-1.1-5.81-2.08-11.61-2.89-17.48-1.25-9.5-2.05-19.11-1.84-28.84.09-4.87.57-9.79,1.25-14.55.67-4.76,1.49-9.47,2.4-14.16,3.69-18.74,8.69-37.12,14.91-55.15,6.27-17.99,13.76-35.64,23.58-52.16,4.93-8.23,10.46-16.18,16.92-23.41,6.48-7.2,13.95-13.74,22.7-18.41,8.71-4.68,18.81-7.14,28.77-6.52,9.84.52,19.71,3.57,27.95,9.16,4.17,2.78,7.89,6.13,11.19,9.85l13.01-2.45-6.69-3.04c-2.61-4.2-5.46-8.23-8.55-12.05ZM655.29,475.77c8.49-1.3,16.97-2.69,25.38-4.26,4.21-.77,8.39-1.63,12.52-2.56,4.09-.96,8.25-1.99,11.85-3.36h0l1.93-.41.78.37,33.8,15.2-34.83-6.93c-4.08,1.26-8,2.05-11.94,2.82-4.32.79-8.62,1.48-12.91,2.11-8.6,1.25-17.18,2.28-25.77,3.26-17.17,1.9-34.35,3.49-51.54,4.99l-51.54,4.26-25.77,2.08-12.88,1.13-6.41.67c-2.13.3-4.32.4-6.36,1.05,2.02-.74,4.2-.94,6.32-1.31l6.41-.91,12.81-1.67,25.67-3.13,51.31-6.33c17.08-2.18,34.15-4.47,51.15-7.05ZM438.47,415.49c20.35-.91,40.68-1.87,61-2.95,10.17-.56,20.32-1.15,30.45-1.82,5.07-.33,10.13-.69,15.17-1.1l7.53-.69c2.45-.26,5.03-.54,7.16-.96l3.59-.72,1.09,3.61.02.02,2.72,9.84.73,2.63-2.1,1.61h-.02c-8.62,6.73-17.53,12.09-26.77,17.28-9.2,5.14-18.69,9.75-28.36,13.9-19.33,8.34-39.39,14.91-59.8,19.85-10.18,2.53-20.5,4.55-30.85,6.24-10.36,1.68-20.75,3.01-31.2,3.83-20.88,1.64-41.92,1.49-62.65-1.1,20.84-1.46,41.46-3.07,61.92-5.75,10.24-1.35,20.42-2.88,30.54-4.81,10.12-1.9,20.16-4.23,30.12-6.81,19.89-5.21,39.4-11.83,58.29-19.88,9.43-4.03,18.71-8.46,27.75-13.23,4.54-2.41,9-4.9,13.36-7.55.93-.58,1.88-1.17,2.82-1.76-5.69,1.67-11.44,3.11-17.2,4.46-9.83,2.27-19.74,4.24-29.66,6.05-19.75,3.58-39.56,6.61-59.47,9.22l-63.73,28.83,59.94-31.55-17.46-22.46c-35.68.35-71.34.59-107.02.7,40.71-1.49,81.4-3.11,122.07-4.92ZM298.37,476.4l-1.83-6.06,56.69-13.8-54.86,19.86ZM360.24,439.69l-54.86,19.86-1.83-6.04,56.69-13.82ZM292.95,414.54l3.73.33.32,3.77v.02c0,5.74-.31,11.19-.78,16.72-.47,5.52-1.13,11-2.02,16.45-1.79,10.87-4.41,21.66-8.68,31.73,2.12-7.8,3.26-15.74,3.82-23.7l-74.88-13.49,4.41-1.77-5.37,1.59-61.18-11.01-52.01,14.68,49.04-18.03-5.52-11.89-3.19-7.04c-.86-1.96-1.72-3.87-2.53-5.93l-64.27-11.13,219.11,18.7ZM110.48,465.64l44.55-10.17-32.1,12.2c5.66.86,11.64,1.76,17.85,2.67l67.57-20.48-55.51,22.23c2.6.38,5.23.75,7.87,1.13,3.12.46,6.27.88,9.41,1.32l-1.28-4.18,40.92-9.27-35.72,13.99c31.48,4.32,63.45,8.15,83.76,9.12,9.36.12,14.93.05,14.93.05-3.66.3-8.77.24-14.93-.05-20.44-.26-58.95-1.51-97.19-6.72-5.33-.73-10.5-1.5-15.49-2.31l-.27.12-.27-.2c-39.97-6.45-67.77-14.69-67.77-14.69.47.08,14.21,2.34,34.34,5.46l-.65-.23ZM747.18,487.74c-30.32,3.8-60.67,7.18-91.04,10.45l-45.57,4.77-45.62,4.31c-30.42,2.75-60.86,5.3-91.35,7.49-30.49,2.21-61,3.93-91.59,4.78-30.59,1.1-61.34-.09-91.82-2.53-30.52-2.42-60.92-5.9-91.21-10.07-30.3-4.26-60.47-9.24-90.48-15.01-30.03-5.71-59.92-12.15-89.56-19.6,60.23,10.29,120.43,20.35,180.86,28.69,30.2,4.17,60.48,7.84,90.85,10.35,30.37,2.56,60.76,3.86,91.23,2.89,60.96-1.71,121.91-5.78,182.78-10.51l45.65-3.73,45.64-3.87c30.42-2.66,60.84-5.49,91.24-8.4ZM827.8,224.89c-3.79,2.28-7.5,4.7-11.04,7.32-3.52,2.66-6.91,5.43-10.17,8.39-6.51,5.88-12.48,12.35-17.92,19.28-5.49,6.89-10.37,14.28-14.69,22.02-4.33,7.75-8.28,15.73-11.65,24.01-3.41,8.27-6.52,16.68-9.14,25.3-5.46,17.15-9.43,34.84-13.03,52.72.46-18.25,2.77-36.47,6.83-54.41,4.21-17.9,10.31-35.51,19.09-51.95,4.44-8.18,9.49-16.08,15.24-23.47,5.83-7.34,12.43-14.12,19.81-19.97,3.69-2.92,7.56-5.6,11.61-7.98,4.04-2.4,8.22-4.55,12.57-6.29,4.32-1.8,8.79-3.2,13.32-4.22,4.53-1,9.17-1.68,13.79-1.5-8.85,2.4-16.96,6.31-24.62,10.75Z"/>
        <path class="cls-1" d="M930.01,324.7c.11,10.2-.31,20.35-1.17,30.47l-1.27.44c-.02-9.91-.36-19.78-1.12-29.62l-3.84,1.4c.23,3.99.34,7.98.31,12.01l-.93-.02c.89,4.82,2.05,18.86,2.78,26.43l8.2-2.7c.31-12.06.62-31.31.83-39.8l-3.79,1.38Z"/>
        <path class="cls-1" d="M961.4,38.1l-41.36,4.48-.56-6.3,38.08-2.56-24.41-2.91c-8.04-1.85-16.13-3.54-24.25-4.96-9.48-1.64-18.95-2.91-28.56-3.81-9.61-.96-19.25-1.83-28.88-2.66-8.32-.7-16.64-1.35-24.97-1.93l-22.51,3.22c.68.27,1.35.53,2.02.84,1.04.47,2.05.99,3.1,1.6.53.3,1.05.65,1.6,1.01.27.21.54.41.82.64.33.29.5.41,1.05.99l.05.06,7.01,8.36-10.71-.43-119.28-4.82,100.76-4.09c-1.43-.44-2.85-.87-4.31-1.26-7.54-1.95-15.38-3.21-23.27-4.1-15.81-1.75-31.89-2.08-47.93-1.78,15.94-1.9,32-3.2,48.22-3.04.46,0,1.12-.03,1.9-.08-9.76-.17-19.53-.19-29.26.11-9.61.33-19.22.91-28.64,2.19-4.71.66-9.39,1.48-13.84,2.75-2.22.65-4.39,1.38-6.38,2.3-1.03.45-1.79.96-3.14,1.66-1.36.66-2.53,1.06-3.77,1.48-4.84,1.58-9.59,2.63-14.37,3.69-4.76,1.03-9.53,1.98-14.29,2.92-9.5,1.89-18.99,3.73-28.43,5.75-14.76,3.21-29.45,6.66-43.57,11.63,6.44-2.19,13.04-4.06,19.61-5.6,14.44-3.39,29.02-5.59,43.6-7.25,14.6-1.66,29.22-2.63,43.85-3.26,29.24-1.24,58.48-1.09,87.66-.03,14.59.57,29.17,1.36,43.76,2.43,14.59,1.08,29.09,2.3,43.78,4.25,7.37,1.1,14.54,2.15,22.11,4.05,3.76.99,7.65,2.17,11.63,4.4,1.97,1.13,3.97,2.61,5.7,4.55,1.73,1.92,3.08,4.32,3.87,6.71,1.58,4.85,1.33,9.32.87,13.35-.52,4.03-1.41,7.8-2.42,11.47-.98,3.65-2.16,7.19-3.38,10.7l-3.5,10.24c-9.13,27.42-17.47,55.28-26.56,82.92h0l-.45,1.77-1.81-.19-9.18-.98c1.37.59,2.73,1.2,4.09,1.87,3.04,1.51,5.81,3.14,8.6,4.88,4.03,2.56,12.44,9.15,17.79,13.58l23.97-3.68c-3.08-4.37-7.7-10.97-9.89-13.61l3.4-2.25c-3.13-.06-6.28-.16-9.41-.27h-.02l-5.23-.44,1.27-5.03,6.76-26.75.79-.23.79-3.03,29.63-5.47,35.1-9.8-64.3,10.56,3.1-12.27-.37.14,1.18-3.37,1.1-4.38.49-.15.91-2.62,32.13-7.66,44.7-13.91-75.97,15.39,3.49-13.76c3.28-12.89,6.54-25.75,9.95-38.64.47-1.65.77-3.13,1.51-5.13.7-1.86,1.73-3.67,2.98-5.27,2.55-3.19,6.01-5.36,9.47-6.72,7.01-2.69,14.09-3.01,20.94-2.92,6.86.17,13.6.97,20.26,2.05,6.67,1.13,13.17,2.4,19.78,4.06,4.38,1.16,8.67,2.47,12.97,3.83l-12.28,1.91.12.67c-.76-.2-1.5-.44-2.25-.62-12.71-2.87-25.87-4.53-38.7-5.36,9.78,3.75,18.81,7.47,27.16,11.16l49.97-7.78-17.58-.97c-18.24-6.84-36.72-13.13-55.43-18.49ZM895.43,36.22c-6.21-.73-12.41-1.43-18.61-2.24-6.2-.81-12.41-1.63-18.58-2.88-6.17-1.25-12.32-2.68-18.45-4.99,6.44-1.29,12.81-1.46,19.17-1.28,6.35.2,12.65.97,18.91,2.02,6.27,1.05,12.5,2.43,18.62,4.25,6.1,1.92,12.23,4.09,17.66,7.63-6.33-1.05-12.5-1.78-18.73-2.51Z"/>
        <path class="cls-1" d="M920.54,204.04l9.76-1.5-9.34,2.33c1.62,3.17,3.24,6.35,4.81,9.56,2.37,4.73,4.57,9.55,6.63,14.44.58,1.43,1.16,2.86,1.68,4.28l-4.05.74c-.48-1.09-.97-2.19-1.5-3.27-2.24-4.64-4.85-9.13-7.51-13.57-1.92-3.1-3.95-6.16-6-9.18l-.11.21c-.3-.41-.65-.91-1.05-1.46l-22.22,5.5c2.95,3.02,5.78,6.15,8.36,9.48,3.26,4.22,8.71,13.56,12.14,19.7l100.23-18.75-75.92,18.35c.27,1.16.5,2.31.66,3.52.36,3.98.45,7.85.5,11.72l-3.35.64c-.13-4.02-.32-8.02-.68-11.95-.12-1.02-.36-2.03-.65-3.07l-18.31,4.43c1.42,3.11,2.75,6.24,3.93,9.42.49,1.3.94,2.61,1.39,3.93l-7.15,1.38c-.35-.89-.66-1.78-1.01-2.66-1.43-3.49-3.04-6.9-4.76-10.24l-7.14,1.72c1.51,2.07,2.91,4.2,4.21,6.39,4.97,8.36,8.51,17.4,11.22,26.6,1.83,6.29,4.43,20.37,6,29.75l5.61-1.23-2.75-5.94c-.57-3.87-1.21-7.75-1.96-11.57-1.38-7.15-3.17-14.21-5.32-21.12l.84-.24-1.67-4.57,131.02-29.46-109.32,29.89.08,7.77v25.18s-3.6,1.1-3.6,1.1c.14-8.76.18-17.5.22-26.28-.01-2.28-.02-4.57-.02-6.86l-10.81,2.95c1.74,6.85,3.08,13.77,4.09,20.71.33,2.41,1.19,11.09,1.86,17.85l98.57-21.8-90.29,32.97.02,30.29-3.1,10.4,153.35-50.51-150.24,57.07v1.2c.02,6.37.07,12.72.13,19.09l-6.65,2.02c.33-6.73.64-13.45.92-20.18l-6.52,2.47c.18,3.96.31,7.95.31,12.01,0,2.48-.08,4.93-.17,7.38l-.49.14.47,1.38c0,.18-.02.36-.04.56l106.87-32.61-94.62,34.26c.07,5.48.13,10.96.21,16.45,20.96-8.37,157.98-62.86,187.8-70.1,1.23-4.17,2.2-8.57,3.18-12.89,1.15-5.13,2.24-10.25,3.3-15.41,2.13-10.29,4.16-20.62,6.16-30.95,3.9-20.1,7.66-40.25,11.34-60.39-11.1-1.2-22.23-1.76-33.33-1.83-7.87.02-15.74.1-23.59.55-7.86.38-15.71.91-23.55,1.7-7.85.64-15.68,1.57-23.5,2.56-7.82.93-15.62,2.15-23.44,3.27-15.61,2.45-31.19,5.19-46.79,8.22,14.92-5.55,30.35-9.66,45.9-13.04,7.78-1.73,15.62-3.07,23.5-4.36,7.88-1.22,15.81-2.16,23.75-2.95,7.95-.67,15.91-1.19,23.91-1.38,8-.1,15.99-.07,23.98.5,10.96.7,21.94,2.12,32.65,4.6l-17.02-43.96-12.85,8.33c3.39-3.71,6.93-7.27,10.59-10.74l-24.43-17.51-27.33,9.82c-.65,4.45-2.1,8.55-3.87,12.38-.48,1.02-.97,2.02-1.5,3.01-.56,1.03-1,1.86-1.73,3.01-1.47,2.36-3.47,4.14-5.51,5.53-4.15,2.73-8.52,4.19-12.85,5.19-8.71,1.92-17.34,2.29-25.89,2.28-8.42-.14-16.94-.79-25.09-1.86-2.31,1.27-4.58,2.62-6.81,4.06-4.53,2.88-8.89,6.05-13.24,9.32-2.18,1.62-4.38,3.26-6.7,4.85-1.16.78-2.36,1.55-3.64,2.27-.63.35-1.32.71-2.02,1.04l-.47.21-.53.21-1,.4c-5.33,2.01-11.51,3.3-17.71,1.57-3.05-.87-5.94-2.53-8.22-4.72-1.13-1.12-2.14-2.34-3.01-3.65-.86-1.37-1.56-2.59-2.2-4.34l-.15-.46.02-.47h0c.03-1.02.27-1.64.47-2.12.21-.49.42-.88.64-1.25.43-.72.87-1.34,1.32-1.92.87-1.16,1.79-2.18,2.71-3.21,1.84-2.01,3.75-3.9,5.68-5.74,1.67-1.6,3.35-3.17,5.04-4.7-1.38.16-2.75.3-4.13.41-5.72.49-11.41.71-17.08.85-6.04.13-12.05.13-18.06.05,1.94,3.74,3.87,7.47,5.79,11.18l-1.25,2.38,2.19-.54c.27.51.52,1.03.78,1.54Z"/>
        <path class="cls-1" d="M1095.49,150.01l-17.53,6.34c.2.67.52,3.21.79,5.47l28.07-6.73-5.58-.94-5.76-4.13Z"/>
        <path class="cls-1" d="M1112.14,98.98c-4.19-2.23-8.52-4.41-12.83-6.55-4.45-2.21-8.93-4.34-13.43-6.47l-2.96.67c8.63,3.9,17.23,7.85,25.77,11.95h0l1.96.93-1,1.93-20.13,38.93,10.48,6.56.27-.11.33.2,9.65-2.34-8.46,3.06,10.05,6.16,12.1-2.91-10.47,3.77,23.51,14.11c1.62-1.43,3.24-2.86,4.87-4.28,7.78-6.59,15.87-12.87,24.3-18.69,7.87-5.4,15.98-10.56,24.62-14.84-4.27.38-8.57.49-12.89.18-10.2-.71-20.49-3.57-29.35-9.36-2.21-1.47-4.33-3.09-6.31-5.09-1.22-1.29-1.32-1.48-2.26-2.22-.78-.65-1.71-1.29-2.64-1.93-2.29-1.52-4.73-2.97-7.22-4.37l-11.61,3.65-1.73-6.07,10.46-2.72-9.49-1.41-5.58-2.75Z"/>
        <path class="cls-1" d="M888.43,94.3l.92-3.01c1.06-3.39,2.05-6.79,2.96-10.14.87-3.36,1.62-6.73,1.99-9.89.37-3.15.3-6.16-.45-8.23-.72-2.05-1.98-3.45-4.38-4.87-2.35-1.35-5.47-2.4-8.72-3.25-6.54-1.67-13.77-2.78-20.77-3.84-14.15-1.9-28.64-3.17-43.04-4.26-14.43-1.09-28.89-1.92-43.36-2.51-28.93-1.24-57.91-1.63-86.79-.61-14.44.5-28.85,1.4-43.19,2.78-14.32,1.42-28.58,3.36-42.52,6.41-6.99,1.54-13.8,3.36-20.53,5.64-6.73,2.28-13.39,4.91-19.98,7.75-12.28,5.3-24.31,11.33-36.18,17.69,131.87-36.27,331.87,3.52,364.04,10.34Z"/>
        <path class="cls-1" d="M1225.4,338.16l-5.5,1.18,5.94,2.84c-.17-1.34-.3-2.69-.43-4.02Z"/>
        <path class="cls-1" d="M1220.43,353.56l-7.3,7.49,7.9-2.14c-.25-1.79-.46-3.57-.6-5.35Z"/>
        <path class="cls-1" d="M1223.16,369.55c-.19-.73-.38-1.44-.56-2.18-1.66-.21-3.31-.44-5.01-.65,1.77,1.11,3.64,2.04,5.56,2.83Z"/>
        <path class="cls-1" d="M1229.79,361.3l-3.1,1.21c.4,1.86.83,3.68,1.36,5.51-.4-.05-.81-.11-1.21-.14.33,1.08.68,2.16,1.04,3.24.33.09.64.21.97.28.09.01.18.05.29.06.04.14.07.3.13.45.08.23.17.47.26.7,1.48.07,2.97.14,4.44.14-.54-1.23-1.08-2.48-1.57-3.72-.99-2.55-1.83-5.13-2.6-7.74Z"/>
        <path class="cls-1" d="M1294.56,182.06c-2.04-2.41-4.45-4.35-7.12-5.41-2.61-1.06-5.71-1.35-8.39-.71-2.26.52-4.42,1.67-6.45,3.19,7.28-.21,13.74,2.13,19.21,7.05,6.26,5.62,11.17,14.49,14.76,26.51-.85-4.34-1.87-8.61-3.13-12.78-2.06-6.53-4.78-12.97-8.87-17.84Z"/>
        <path class="cls-1" d="M1272.32,206.76c-11.19,0-23.01,22.5-27.54,58.44l-9.31,2.79.68,1.9,29.37-8.77c-.02-.07-.03-.11-.05-.16.03.05.05.09.08.14l10.38-3.12c-.33-.75-.63-1.52-.98-2.28.58.68,1.13,1.37,1.65,2.09l5.18-1.55-4.83,2.03c3.18,4.41,5.42,9.55,6.97,14.78.69,2.28,1.2,4.62,1.65,6.96,1.74.23,3.46.67,5.06,1.41.34.17.65.38.98.55-.69-5.82-1.61-11.61-2.75-17.34-2-9.59-4.53-19.14-8.13-28.38,5.19,8.51,8.67,18,11.32,27.64,1.96,7.27,3.33,14.69,4.17,22.16.28.41.58.82.82,1.25-.26-.12-.5-.23-.75-.34.24,2.17.45,4.36.59,6.54.59,9.99.32,20.05-.99,29.98-1.25,9.9-3.48,19.68-6.77,29.08,1.58-9.82,2.86-19.59,3.5-29.41.62-9.78.7-19.59.05-29.37-.16-2.85-.42-5.7-.72-8.54-.81-.27-1.62-.52-2.42-.68-1.1-.24-2.2-.38-3.3-.46.39,2.76.67,5.56.84,8.36.28,6.51.06,13.06-.72,19.51-.79,6.44-2,12.85-4.06,19.02.33-6.48.64-12.88.79-19.27.12-6.38.15-12.74-.21-19.05-.14-2.86-.37-5.75-.67-8.6h-.11c-2.25.15-4.5.53-6.79,1.02,1.1,4.92,1.75,9.94,2.07,14.97.35,6.87.08,13.77-.93,20.57-1,6.78-2.56,13.5-5.19,19.83.94-6.76,1.56-13.45,1.93-20.17.32-6.68.4-13.36-.01-20-.24-4.81-.75-9.6-1.5-14.34-1.68.43-3.38.89-5.16,1.36,1.33-1.61,2.96-2.89,4.73-3.97-.17-.96-.32-1.92-.5-2.86-1.16-5.94-2.76-11.78-4.68-17.62l-22.04,9.26c-.76,7.87-1.19,16.28-1.19,25.2,0,13.36.92,25.65,2.55,36.56l-11.44,2.47c-.74-5.24-1.31-10.5-1.81-15.81-.63-7.34-1.09-14.72-1.42-22.16-1.41,7.34-1.87,14.84-1.83,22.31.02,5.53.37,11.05,1.03,16.54l-.61.13c.16,1.23.32,2.48.49,3.68l34.08-10.03-17.77,7.44c.57,3.33,1.22,6.51,1.89,9.57l-11.63,2.34c-.5-2.42-.95-4.82-1.35-7.25l-3.97,1.65c.4,2.15.84,4.28,1.33,6.41l-.87.18c.27,1.49.59,2.98.9,4.46l39.51-10.79-22.49,8.71c1.33,4.96,2.82,9.52,4.43,13.49-.49.07-.97.2-1.46.27-3.74.62-7.47.97-11.22,1.09-.53-1.59-1.04-3.17-1.51-4.79-.56-1.88-1.05-3.79-1.53-5.71l-3.45,1.36c.57,1.83,1.17,3.64,1.87,5.43.48,1.26,1.04,2.49,1.57,3.71-.84,0-1.67-.05-2.52-.08.43,1.41.87,2.81,1.33,4.19.29.02.59.02.88.03,3.46-.14,6.92-.45,10.36-1.04,1.62-.27,3.24-.61,4.87-.99.04-.02.1-.03.14-.04.62-.21,1.23-.46,1.84-.7.03.08.07.15.11.23,1.48-.4,2.99-.81,4.5-1.32-1.15,1.09-2.45,1.99-3.8,2.81,4.96,10.35,10.77,16.13,16.43,16.13,14.22,0,29.46-36.36,29.46-90.5s-15.24-90.51-29.46-90.51Z"/>
        <path class="cls-1" d="M1244.05,376.14c-.61.13-1.23.21-1.84.3,1.61,2.78,3.41,5.46,5.45,7.92-1.33-2.71-2.5-5.46-3.61-8.23Z"/>
        <path class="cls-1" d="M1274.47,281.67c2.27-.96,4.7-1.63,7.23-1.8-.27-2.01-.59-4.04-.97-6.05-1.02-5.18-2.47-10.28-4.54-15.24l-9.71,4.07c3.24,5.27,5.73,11.03,7.47,17,.2.67.34,1.35.52,2.02Z"/>
        <path class="cls-1" d="M778.13,445.19l16.47-6.5c-1.65-5.24-2.94-10.57-4-15.93-1.77-9.9-2.62-19.9-2.68-29.88l-8.15,3.27c.48,8.09,1.41,16.16,2.94,24.09,1.37,6.96,3.16,13.83,5.4,20.51l-5.77,2.33c-.74-2.18-1.49-4.34-2.2-6.55-.1,2.47-.04,4.92.14,7.37l-2.28.94c.04.12.08.24.12.36Z"/>
        <path class="cls-1" d="M1235.65,376.97c-1.51,0-3.01-.11-4.49-.26,1.43,3.39,3.12,6.68,5.27,9.73,1.55,2.24,3.4,4.32,5.52,6.07,2.13,1.72,4.58,3.15,7.21,3.68-4.57-2.8-7.49-7.06-9.94-11.49-1.35-2.5-2.51-5.1-3.58-7.73Z"/>
        <path class="cls-1" d="M759.6,452.23l.11.24.78-.31c0-.09-.02-.17-.02-.29l-.86.36Z"/>
        <path class="cls-1" d="M1090.86,146.7l-4.35-3.12-12.17,5.63c.19.23,1.26,2.09,2.21,3.68l20.77-5.07-6.46-1.12Z"/>
        <path class="cls-1" d="M50.12,307.24c.26.33.5.53.67.65l.14-.02c.24-.08.58-.19.92-.32.71-.27,1.46-.6,2.23-.96,6.2-2.95,12.51-6.67,18.68-10.36,6.18-3.74,12.34-7.55,18.39-11.44l4.45-2.97c.72-.5,1.45-1,2.06-1.48.7-.52,1.32-1.02,1.92-1.54,2.46-2.1,3.85-4.11,4.6-6.9.77-2.83.83-6.11.68-9.73-.02-4.51,1.01-8.32,2.31-12.05,2.54-6.97,6.35-13.18,10.75-18.81-3.07,2.24-6.11,4.54-9.09,6.92-13.15,10.45-25.53,21.9-37.27,33.94-8.77,9.03-17.18,18.38-25.27,28.02.56,1.11,1.09,2.21,1.6,3.25.76,1.48,1.52,2.86,2.25,3.78Z"/>
        <path class="cls-1" d="M776.06,445.61l-7.52,3.03c-1.47-6.73-2.67-13.58-3.83-20.53-.71,7.3-.71,14.7,0,22.05l-.47.2c.02.08.04.19.06.3l11.77-4.64c0-.14-.01-.27-.02-.41Z"/>
        <path class="cls-1" d="M1224.96,352.64l-2.38.47,1.39,4.98,4.61-1.25c-.58-2.34-1.08-4.66-1.53-7.01l-.85-3.07-1.68.71c.1,1.74.23,3.46.44,5.17Z"/>
        <path class="cls-1" d="M796.57,476.57c-3.51-6.13-6.44-12.67-9.14-19.35-1.03-2.64-1.99-5.3-2.96-8.01l-3.32,1.61c.33,2.08.76,4.18,1.23,6.23.29.76.56,1.53.84,2.27,2.7,6.7,5.63,13.23,9.15,19.37,3.5,6.14,7.57,11.9,12.47,16.95,1.42,1.46,2.94,2.81,4.5,4.13,5.21,3.37,11.1,5.68,17.13,6.25-6.71-3.27-12.5-7.46-17.42-12.49-4.89-5.05-8.96-10.81-12.47-16.95Z"/>
        <path class="cls-1" d="M781.04,484.51c-2.32-4.23-4.27-8.68-5.96-13.22-1.78-4.52-3.13-9.22-4.47-13.95-.11-.43-.21-.89-.33-1.32l-4.23,2.02c.12.46.21.94.34,1.41,1.33,4.72,2.69,9.41,4.47,13.94,1.69,4.55,3.64,9,5.95,13.23,4.48,8.53,10.35,16.29,17.46,22.79,2.27,2.02,4.67,3.93,7.18,5.71,2.37,1.35,4.83,2.56,7.34,3.61,4.77,1.85,9.76,3.26,14.84,3.39-9.57-3.09-17.97-8.39-25.14-14.82-7.12-6.51-12.98-14.25-17.47-22.79Z"/>
        <path class="cls-1" d="M50.96,308.02c.12.05,0-.04-.11-.07.03.02.09.07.11.07Z"/>
        <path class="cls-1" d="M459.95,366.78s-45.2,13.56-144.63,15.06c-99.42,1.51-206.38-11.29-238.02-15.81-31.64-4.52-27.87-24.1-13.56-35.4,14.31-11.31,103.95,11.3,193.58,15.81,89.63,4.52,162.7,5.27,180.03,4.52,17.31-.75,25.61,11.31,22.6,15.82Z"/>
        <path class="cls-1" d="M331.9,199.55s-109.98,54.24-140.11,73.84c-30.12,19.57,6.79,23.33,74.58,30.13,67.8,6.77,126.54,9.78,179.27-17.33,52.73-27.11,97.17-50.48,122.03-63.29,24.85-12.78-38.42-15.05-76.83-18.82-38.41-3.76-141.61-15.06-158.93-4.53Z"/>
        <path class="cls-1" d="M247.53,180.72s-75.82,20.09-96.91,39.68c-21.09,19.59-26.62,41.17-12.05,42.17,14.57,1.01,54.73-29.63,81.85-45.19,27.11-15.57,44.19-27.13,42.69-33.15-1.51-6.03-11.04-4-15.57-3.52Z"/>
        <path class="cls-1" d="M1256.6,124.76s-35.88,6.26-57.47,26.34c-21.59,20.1-8.04,80.85-23.6,132.08-15.57,51.21-16.08,57.25-5.02,70.55,11.05,13.31,26.86,11.04,36.66-10.79,9.79-21.85,11.8-30.13,11.8-30.13l-14.82,77.33-31.13,6.53s-30.62,1.38-85.6,14.94c-54.99,13.55-167.98,50.46-167.98,50.46l4.52-63.28,10.16-1.87,1.14,34.63,197.1-63.02-5.78-10.04-189.06,60.64.75-3.01,190.2-72.69,24.09-123.16-16.57-47.46s56.5-39.91,74.56-47.08c18.08-7.14,40.12-12.1,46.06-.97Z"/>
        <path class="cls-1" d="M1185.69,294.85s9.43-46.32,7.54-70.43c-1.89-24.1,5.27-59.13,17.71-71.55,12.42-12.44,39.16-19.22,45.18-12.07,6.03,7.17-25.98,14.69-33.51,65.16-7.53,50.46-16.58,125.41-31.26,134.83-14.69,9.42-12.05-28.24-5.65-45.94Z"/>
        <path class="cls-1" d="M1135.35,229.44s-57.75-1.51-113.49,7.03c-55.74,8.52-63.26,20.59-62.77,55.23.5,34.65-11.55,102.44,5.53,100.94,17.06-1.52,153.65-48.72,156.17-56.25,2.52-7.52,28.62-108.47,14.56-106.95Z"/>
        <path class="cls-1" d="M991.49,173.95s-28.37,20.33-34.9,27.63c-6.53,7.27,14.56,4.25,31.64-7.8,17.08-12.05,42.18-15.55,57.49-17.07,15.31-1.5,17.32-15.32,14.83-19.82-2.52-4.54-33.15-7.8-43.95-6.54-10.8,1.25-22.35,14.05-25.1,23.6Z"/>
        <path class="cls-1" d="M1073.83,157.75s28.99,11.67,38.79,28.99c9.8,17.33-5.26,21.84-45.56,25.62-40.31,3.77-75.33,21.47-75.33,21.47,0,0,73.44-16.19,106.58-15.81,33.16.36,56.12,5.25,56.12,5.25,0,0-6.39-39.91-19.95-50.09-13.57-10.15-49.34-32-49.34-32l-13.94,1.12,2.64,15.45Z"/>
        <polygon class="cls-1" points="98.89 399.67 103.91 448.38 287.7 469.47 292.72 453.4 143.58 404.69 98.89 399.67"/>
        <path class="cls-1" d="M382.11,420.24l24.6,40.68s58.76,7.02,99.93-9.53c41.18-16.58,52.72-27.13,52.72-27.13,0,0-.49-8.04-4.02-8.04s-128.56.52-128.56.52l-44.69,3.49Z"/>
        <path class="cls-1" d="M35.11,390.5s-2.76,6.91,6.79,30.26c9.54,23.36,18.83,31.64,18.83,31.64l2.5,1.74-.25-34.14-16.82-27.88-11.05-1.64Z"/>
        <path class="cls-1" d="M846.36,208.59s-45.96,1.52-67.79,25.62c-21.84,24.1-42.94,91.89-42.94,91.89,0,0-14.31-42.92,3.77-85.1,18.08-42.19,80.59-48.96,106.96-32.4Z"/>
        <path class="cls-1" d="M310.8,515.17s196.6-16.58,280.95-27.88c84.37-11.3,119.02-16.55,119.02-16.55,0,0-14.32-19.6-15.82-55-1.51-35.39-25.62-30.12-111.48-21.08-85.88,9.04-141.61,12.8-141.61,12.8,0,0,122.77-15.81,185.29-44.44,62.51-28.63,103.19-35.4,108.46,1.51,5.27,36.9,10.55,56.49,17.33,80.6,6.78,24.09,11.3,53.47,9.79,63.25l-1.5,9.81s-146.14,18.07-250.83,19.57c-104.71,1.52-154.42-.49-154.42-.49l-15.78-16.53s-100.21-4.56-133.85-7.08c-33.65-2.51-163.71-25.6-163.71-25.6,0,0,134.59,15.06,165.21,17.07,30.64,2.01,102.95,10.04,102.95,10.04Z"/>
        <path class="cls-1" d="M1186.45,123.86s-15.82,10.17-32.01,19.58c-16.19,9.43-21.09,12.05-38.41,4.15-17.33-7.92-25.23-15.06-25.23-15.06l-5.59,7.02,47.76,34.03s33.52-19.6,43.69-28.26c10.16-8.67,26.73-18.07,26.73-18.07l-16.94-3.39Z"/>
        <path class="cls-1" d="M738.64,190.77s-89.37,24.6-110.47,30.11l-21.1,5.54s17.58-8.55,25.61-15.07c8.04-6.53-68.79-16.06-108.97-16.06s-163.2-10.43-194.08-5.16c-30.88,5.27-60.64,19.59-60.64,19.59l74.58-35.03,154.79,4.53s244.81,3.5,240.28,11.54Z"/>
        <path class="cls-1" d="M610.3,500l-45.65,3.73c-60.87,4.73-121.83,8.8-182.78,10.51-30.47.97-60.86-.33-91.23-2.89-30.37-2.51-60.65-6.18-90.85-10.35-60.43-8.34-120.63-18.39-180.86-28.69,29.64,7.45,59.53,13.9,89.56,19.6,30.01,5.77,60.19,10.75,90.48,15.01,30.29,4.17,60.7,7.66,91.21,10.07,30.49,2.44,61.23,3.62,91.82,2.53,30.59-.85,61.11-2.56,91.59-4.78,30.49-2.19,60.92-4.74,91.35-7.49l45.62-4.31,45.57-4.77c30.37-3.26,60.72-6.65,91.04-10.45-30.4,2.91-60.82,5.75-91.24,8.4l-45.64,3.87Z"/>
        <path class="cls-1" d="M1268.44,124.27l-67.49,17.37,1.72,6.07,63.36-19.48c1.8.82,3.55,1.69,5.07,2.59l1.29.78,1.48-.17h0c3.41-.58,6.84-.96,10.21-.99,3.36-.02,6.7.35,9.73,1.32,3.04.96,5.75,2.6,7.74,4.95.05.08.78,1.66,1.51,3.3l-23.13,4.76,1.58,6.1c-.31-.02-.59-.06-.9-.06-5.77-.21-11.24,2.05-15.59,5.07-2.13,1.42-4.48,3.5-6.16,5.54-1.75,2.05-3.28,4.13-4.63,6.3-2.72,4.26-4.96,8.65-6.99,13.11-4.02,8.9-7.21,18.01-9.83,27.27l-1.9,6.93-1.66,7.02c-1.04,4.69-1.96,9.4-2.6,14.18,4.13-8.68,8.1-17.34,12.02-25.96,4.02-8.58,7.99-17.12,12.37-25.3,2.19-4.06,4.48-8.07,6.97-11.75,1.27-1.81,2.54-3.58,3.91-5.12,1.39-1.59,2.65-2.66,4.42-3.99,3.32-2.51,6.7-4.54,10.46-5.71,3.74-1.15,8.08-1.44,13.01-.05-2.37-4.33-7.51-7.05-12.87-7.46l23.17-7.26c.11.54.2,1.08.22,1.63l-.02.26.08.32c2.23,10.19,5.78,28.34,7.86,39.91l-.14.07c1.33,8.08,3.26,22.27,4.41,31.79l1.83-.55,1.73-4.82c-.96-8.41-2.16-16.79-3.52-25.14l50.92-21.37-53.06,15.43.68-3.04c-1.94-11.03-4.16-22.02-6.56-32.96.05-1.01,0-1.96-.11-2.87l32.75-10.24-35.63,7.32,1.12-3.3c-.4-.88-.87-1.7-1.42-2.52-2.37-3.54-5.94-6.18-9.7-7.8-3.78-1.64-7.76-2.44-11.66-2.85-.32-.02-.65-.03-.98-.06l48.8-15-55.39,14.25c2.4.7,4.43,1.33,5.02,1.62l-13.49.56Z"/>
        <path class="cls-1" d="M140.65,412.91l3.19,7.04,5.52,11.89-49.04,18.03,52.01-14.68,61.18,11.01,5.37-1.59-4.41,1.77,74.88,13.49c-.56,7.95-1.71,15.9-3.82,23.7,4.28-10.07,6.9-20.86,8.68-31.73.89-5.46,1.55-10.94,2.02-16.45.47-5.53.78-10.98.78-16.72v-.02l-.32-3.77-3.73-.33-219.11-18.7,64.27,11.13c.81,2.06,1.67,3.97,2.53,5.93Z"/>
        <path class="cls-1" d="M272.72,484.25s-5.57.07-14.93-.05c6.16.29,11.27.35,14.93.05Z"/>
        <polygon class="cls-1" points="298.37 476.4 353.23 456.54 296.54 470.34 298.37 476.4"/>
        <polygon class="cls-1" points="360.24 439.69 303.55 453.51 305.38 459.55 360.24 439.69"/>
        <path class="cls-1" d="M937.88,321.82l90.29-32.97-98.57,21.8c.35,3.6.64,6.67.75,7.96l-3.42-7.36-5.61,1.23c.39,2.25.69,4.21.93,5.75l-3.1-5.26-3.64.79c.29.93.61,1.81.9,2.76l-7.74-1.25-8.9,1.98,3.05,6.56-1.44.58c2.53,7.45,4.5,15.12,5.92,22.88.89,4.78,1.57,9.61,2.13,14.46l11.6,5.3,3.74-1.23c-.72-7.57-1.89-21.61-2.78-26.43l.93.02c.03-4.03-.08-8.02-.31-12.01l3.84-1.4c.76,9.83,1.1,19.71,1.12,29.62l1.27-.44c.86-10.12,1.29-20.27,1.17-30.47l3.79-1.38c-.21,8.49-.52,27.74-.83,39.8l1.83-.61,3.1-10.4-.02-30.29Z"/>
        <path class="cls-1" d="M929.59,310.65c-.66-6.76-1.53-15.43-1.86-17.85-1.01-6.94-2.36-13.86-4.09-20.71l10.81-2.95c0,2.29.01,4.59.02,6.86-.04,8.77-.08,17.52-.22,26.28l3.61-1.1v-25.18s-.09-7.77-.09-7.77l109.32-29.89-131.02,29.46,1.67,4.57-.84.24c2.15,6.91,3.94,13.97,5.32,21.12.75,3.83,1.39,7.7,1.96,11.57l2.75,5.94,3.42,7.36c-.12-1.29-.4-4.36-.75-7.96Z"/>
        <path class="cls-1" d="M527.16,492.28l-12.81,1.67-6.41.91c-2.11.37-4.29.57-6.32,1.31,2.04-.65,4.23-.75,6.36-1.05l6.41-.67,12.88-1.13,25.77-2.08,51.54-4.26c17.18-1.49,34.37-3.09,51.54-4.99,8.59-.98,17.17-2.01,25.77-3.26,4.29-.63,8.58-1.32,12.91-2.11,3.94-.78,7.86-1.57,11.94-2.82l34.83,6.93-33.8-15.2-.78-.37-1.93.41h0c-3.61,1.38-7.76,2.4-11.85,3.36-4.13.94-8.31,1.8-12.52,2.56-8.41,1.58-16.89,2.96-25.38,4.26-17,2.58-34.07,4.87-51.15,7.05l-51.31,6.33-25.67,3.13Z"/>
        <path class="cls-1" d="M440.88,442.17l-59.94,31.55,63.73-28.83c19.92-2.6,39.72-5.63,59.47-9.22,9.92-1.81,19.83-3.78,29.66-6.05,5.76-1.35,11.51-2.79,17.2-4.46-.94.59-1.89,1.18-2.82,1.76-4.37,2.65-8.83,5.14-13.36,7.55-9.04,4.77-18.32,9.19-27.75,13.23-18.89,8.06-38.4,14.67-58.29,19.88-9.96,2.58-20,4.91-30.12,6.81-10.12,1.93-20.3,3.46-30.54,4.81-20.46,2.68-41.09,4.29-61.92,5.75,20.73,2.6,41.76,2.74,62.65,1.1,10.45-.82,20.84-2.15,31.2-3.83,10.35-1.69,20.67-3.71,30.85-6.24,20.41-4.94,40.47-11.51,59.8-19.85,9.66-4.16,19.15-8.77,28.36-13.9,9.24-5.19,18.16-10.55,26.77-17.27h.02s2.1-1.63,2.1-1.63l-.73-2.63-2.72-9.84-.02-.02-1.09-3.61-3.59.72c-2.13.42-4.71.7-7.16.96l-7.53.69c-5.05.41-10.11.77-15.17,1.1-10.14.67-20.29,1.26-30.45,1.82-20.32,1.09-40.65,2.05-61,2.95-40.67,1.8-81.37,3.42-122.07,4.92,35.68-.11,71.34-.35,107.02-.7l17.46,22.46Z"/>
        <path class="cls-1" d="M825.32,219.86c-4.35,1.74-8.53,3.9-12.57,6.29-4.05,2.37-7.92,5.05-11.61,7.98-7.38,5.85-13.98,12.62-19.81,19.97-5.75,7.39-10.8,15.29-15.24,23.47-8.78,16.44-14.88,34.05-19.09,51.95-4.06,17.95-6.37,36.16-6.83,54.41,3.6-17.88,7.57-35.57,13.03-52.72,2.62-8.61,5.73-17.03,9.14-25.3,3.37-8.28,7.32-16.26,11.65-24.01,4.32-7.74,9.2-15.12,14.69-22.02,5.44-6.93,11.41-13.4,17.92-19.28,3.26-2.96,6.65-5.74,10.17-8.39,3.54-2.62,7.25-5.04,11.04-7.32,7.66-4.44,15.78-8.36,24.62-10.75-4.62-.18-9.25.49-13.79,1.5-4.53,1.02-9,2.43-13.32,4.22Z"/>
        <path class="cls-1" d="M144.57,475.1l.27.2.27-.12c4.99.81,10.16,1.58,15.49,2.31,38.24,5.2,76.75,6.45,97.19,6.72-20.3-.97-52.28-4.81-83.76-9.12l35.72-13.99-40.92,9.27,1.28,4.18c-3.14-.44-6.29-.87-9.41-1.32-2.64-.37-5.27-.75-7.87-1.13l55.51-22.23-67.57,20.48c-6.2-.91-12.18-1.81-17.85-2.67l32.1-12.2-44.55,10.17.65.23c-20.12-3.12-33.86-5.38-34.34-5.46,0,0,27.81,8.23,67.77,14.69Z"/>
        <path class="cls-1" d="M1066.57,71.11l-24.2,4.64,6.54,1.79c4.34,1.71,8.68,3.43,13,5.21l9.02-1.5c-3.16-1.39-6.33-2.73-9.5-4.07l3.53-.81c2.74,1.22,5.5,2.41,8.23,3.66.43.21.88.42,1.34.62l9.35,1.17,8.64-1.34c-5.71-2.65-12.84-5.94-15.14-6.99l116.01-26.68-122.61,23.49c1.99.83,3.64,1.52,4.77,2.01l-8.98-1.2Z"/>
        <path class="cls-1" d="M1099.25,83.74l.39.05c-.34-.15-.84-.38-1.38-.63l-.17.02c.4.18.78.37,1.17.56Z"/>
        <path class="cls-1" d="M919.49,36.28l.56,6.3,41.36-4.48c18.71,5.36,37.19,11.65,55.43,18.49l17.58.97,1.99-.31,1.73-.39c.08.03.16.05.22.08l.64-.1c-5.13-1.91-14.14-5.18-16.59-6.08-13.73-5.13-27.61-9.92-41.63-14.29l-23.22-2.76-38.08,2.56Z"/>
        <path class="cls-1" d="M1075.52,25.75l-105.8,7.15c4.44,1.13,8.47,2.17,11.79,3.04l94.01-10.18Z"/>
        <path class="cls-1" d="M1110.25,144.68l-9.65,2.34-.33-.2-.27.11,3.02,1.89-5.71-1-20.77,5.07c.66,1.13,1.26,2.14,1.38,2.31l-5.97-1.21-18.39,4.48,1.82,6.05,14.6-5.29c.21.87.39,1.78.47,2.7l2.88,1.18,5.41-1.3c-.27-2.26-.59-4.8-.79-5.47l17.53-6.34,5.76,4.13,5.58.94,5.01-1.19-10.05-6.16,8.46-3.06Z"/>
        <path class="cls-1" d="M763.12,14.64c-16.22-.16-32.27,1.14-48.22,3.04,16.04-.3,32.11.03,47.93,1.78,7.89.89,15.73,2.15,23.27,4.1,1.45.39,2.88.82,4.31,1.26l-100.76,4.09,119.28,4.82,10.71.43-7.01-8.36-.05-.06c-.56-.58-.72-.7-1.05-.99-.28-.23-.56-.43-.82-.64-.55-.37-1.07-.71-1.6-1.01-1.05-.62-2.06-1.13-3.1-1.6-.68-.3-1.35-.56-2.02-.84l22.51-3.22c8.33.59,16.64,1.23,24.97,1.93,9.63.83,19.27,1.7,28.88,2.66,9.61.9,19.08,2.17,28.56,3.81,8.13,1.42,16.21,3.11,24.25,4.96l24.41,2.91,23.22,2.76,5.12.6c-1.27-.33-2.75-.72-4.41-1.15-3.32-.87-7.34-1.9-11.79-3.04-19.82-5.01-48.03-11.84-59.65-13.82-9.61-1.63-19.38-2.88-29.06-3.74-8.2-.79-16.41-1.49-24.62-2.17L945.03.5l-155.08,15.81.06.58c-.81-.15-1.63-.31-2.44-.43-.23-.04-.47-.05-.69-.08l-17.59-1.15,3.13-.5c-2.47-.06-4.93-.12-7.39-.17-.78.05-1.44.08-1.9.08ZM805.21,31.98c.06.07.23.27.02.07l-.03-.05v-.02Z"/>
        <path class="cls-1" d="M1058.09,85.79l1.19,6.21,16-3.63c9.92,4.24,19.81,8.6,29.62,13.1l-19.7,38.08s-1.12-4.06-6.35-11.04l-22.86,8.05-42.43,10.35,1.83,6.04,21.06-7.62c4.59.07,9.12.37,13.52,1.06,3.89.63,7.66,1.61,10.98,3.14,1.89.88,3.56,1.98,4.98,3.24l6.02,1.22,5.97,1.21c-.13-.18-.72-1.18-1.38-2.31-.94-1.59-2.02-3.45-2.21-3.68l12.17-5.63,4.35,3.12,6.46,1.12,5.71,1-3.02-1.89-10.48-6.56,20.13-38.93,1-1.93-1.96-.93h0c-8.55-4.09-17.14-8.05-25.77-11.95l2.96-.67c4.5,2.13,8.98,4.26,13.43,6.47,4.31,2.15,8.64,4.32,12.83,6.55l5.58,2.75,9.49,1.41,6.67-1.74c-2.59-1.48-4.98-2.85-5.05-2.88-2.17-1.14-4.36-2.25-6.54-3.35l-6.45-3.14c-4.35-2.3-8.69-4.46-13.07-6.61-1.17-.57-2.34-1.13-3.52-1.68-.38-.18-.77-.38-1.17-.56l.17-.02,48.82-11.09-54.56,8.42-8.64,1.34-25.78,3.97Z"/>
        <path class="cls-1" d="M1318.95,217.05l-1.83.55-1.3.38.71,6.5,1.13-.48c.38,4.22.72,8.46,1,12.67.9,15.27.97,30.59-.59,45.75-.8,7.55-2.01,15.08-3.93,22.37-.49,1.88-1.04,3.74-1.63,5.57,0-.12.01-.26.02-.38.22-1.45.44-2.92.64-4.38.95-7.13,1.65-14.28,2.18-21.47,1.01-14.32,1.37-28.71.73-43.13-.74-14.37-2.21-28.85-6.32-43.03-2.15-7.05-4.9-14.15-9.91-20.34-2.52-3.05-5.76-5.85-9.73-7.5-3.96-1.64-8.3-2.12-12.61-1.22-4.25.93-7.92,3.13-10.95,5.66-3.05,2.56-5.56,5.47-7.82,8.48-4.48,6.06-7.95,12.57-11.06,19.18-6.11,13.26-10.69,26.97-14.74,40.79-2.9,9.98-5.46,20.06-7.81,30.15l-.18.06.1.31c-.86,3.74-1.7,7.52-2.51,11.31-2.72,12.68-5.12,25.39-7.05,38.24-12.82,2.38-25.62,4.92-38.34,7.69-6.85,1.49-13.67,3.06-20.45,4.75-6.78,1.74-13.57,3.5-20.14,5.94,6.67-2.09,13.52-3.52,20.37-4.9,6.85-1.36,13.72-2.58,20.61-3.71,8.11-1.35,16.25-2.59,24.38-3.77l-41.15,16.6,53.88-17.55c-.94,4.31-1.86,8.63-2.76,12.94h.19s-2.44,11.26-2.44,11.26l-.08.03c-.08.33-.13.65-.21.97l-.16.56.04-.02c-.14.68-2.74,13.45-2.88,14.12l.1-.11c-.37,1.84-.72,3.68-1.06,5.53-.88,4.77-1.79,9.56-2.6,14.36l-27.89,6.64c-5.62-.12-11.11.4-16.56,1.03-5.55.68-11.04,1.54-16.52,2.51-10.95,1.95-21.8,4.26-32.62,6.75-21.59,5.02-43.01,10.68-64.36,16.61-21.32,5.94-42.58,12.18-63.76,18.58-20.2,6.13-40.35,12.4-60.44,18.92l2.36-37.33c1.15-6.6,1.99-13.34,2.48-20.19l5.48-1.98c-.58,11.19-1.22,22.37-2.02,33.55h0s0,6.97,0,6.97l6.33-2.24,183.72-64.94-180.48,53.86c-.06-2.94-.1-5.86-.14-8.8,13.4-5.37,158.98-63.35,188.67-70.53l-.25.81,20.38,8.21,14.75,23.59c-2.25.56-4.42,1.19-6.57,1.86-4.85,1.54-9.57,3.23-14.26,4.99-9.36,3.52-18.57,7.29-27.7,11.25,9.69-2.21,19.41-4.23,29.15-5.97,4.85-.86,9.73-1.65,14.56-2.23,2.4-.29,4.79-.53,7.13-.66,1.17-.05,2.3-.07,3.36-.05,1.06.04,2.11.14,2.64.31h0l11.4-.16-6.2-8.35-22.27-30.04h0l-1.07-1.33-1.04-.23-20.91-4.75c1.4-4.43,2.5-8.77,3.62-13.17,1.29-5.14,2.51-10.25,3.73-15.38,2.41-10.28,4.72-20.56,6.99-30.85,4.47-20.2,8.8-40.43,13.04-60.68,2.12.3,4.25.62,6.37.96-2.04-.68-4.09-1.33-6.16-1.92,0-.06.02-.12.03-.17h0l.21-.99-.37-1.05-17.37-48.84,4.98-3.23c8.48-5.5,16.99-10.87,25.56-16.06,8.57-5.2,17.31-10.04,26-14.82,7.67-4.25,15.43-8.17,23.42-11.87.65-.11,1.29-.23,1.92-.36,4.7-.94,9.25-1.87,14.11-3.18,5.83-.79,11.91-.27,17.84,1.17.84.21,1.68.46,2.51.7l11.84-.49,13.49-.56c-.59-.29-2.62-.92-5.02-1.62-4.26-1.26-9.76-2.79-10.85-3.23-3.24-1.28-6.57-2.34-9.98-3.14-6.81-1.62-14.02-2.25-21.19-1.2l-.27.04-.32.08c-2.93.82-6.08,1.55-9.25,2.22-1.2-.23-2.51-.44-3.89-.65l58.53-15.74-107.96,21.73c-4.6-.82-9.09-2.12-13.26-4.05,5.48-.09,12.93-.15,20.98-.09l18.42-3.79c-18.92-.79-39.42-.36-46.37-.17-1.28-.94-2.51-1.91-3.55-2.94-.43-.47-1.92-2.1-2.94-2.83-1.1-.87-2.16-1.61-3.24-2.35-.49-.31-.98-.61-1.47-.91l99.4-31.25-105.82,27.58-6.67,1.74-10.46,2.72,1.73,6.07,11.61-3.65c2.49,1.4,4.93,2.85,7.22,4.37.94.64,1.86,1.28,2.64,1.93.94.74,1.04.93,2.26,2.22,1.98,2,4.1,3.62,6.31,5.09,8.87,5.79,19.15,8.65,29.35,9.36,4.32.31,8.62.2,12.89-.18-8.64,4.28-16.76,9.44-24.62,14.84-8.43,5.82-16.51,12.1-24.3,18.69-1.63,1.41-3.25,2.85-4.87,4.28l-23.51-14.11,10.47-3.77-12.1,2.91-5.01,1.19-28.07,6.73-5.41,1.3-2.03.48-.36,1.57-.46-.02c-.24,3.68-1.34,7.62-2.95,11.32-.37.89-.78,1.8-1.22,2.7-.42.84-.94,1.89-1.32,2.53-.73,1.26-1.87,2.44-3.26,3.45-2.85,2.06-6.57,3.47-10.36,4.59-7.69,2.2-16,3.1-24.29,3.55-4.16.23-8.34.38-12.53.42-2.11.02-4.21,0-6.3-.04,5.24-2.51,10.68-4.64,16.28-6.32,10.36-3.12,21.15-4.9,32.03-5.52-10.89-.02-21.86,1.01-32.52,3.68-10.66,2.63-20.99,6.83-30.57,12.3-4.79,2.73-9.41,5.75-13.93,8.78-4.56,2.98-8.96,6.21-13.61,7.7-4.81,1.66-9.95,2.39-14.31.97-2.18-.68-4.1-1.92-5.71-3.52-.81-.79-1.53-1.69-2.17-2.66-.42-.66-.84-1.41-1.15-2.1.02-.05.06-.11.1-.17.25-.4.58-.84.96-1.29.72-.9,1.57-1.81,2.45-2.71,1.75-1.8,3.63-3.55,5.54-5.28,3.84-3.45,7.82-6.81,11.84-10.12,8.06-6.6,16.33-13.05,24.64-19.31l.8-.61.56-1.34c2.65-6.85,7.34-13.89,13.39-17.13,1.51-.8,3.1-1.42,4.73-1.8.43-.1.78-.16,1.18-.23l.74-.09,69.23-18.56c-9.41-12.49-31.98-34.19-84.62-58.64l20.61-4.68c5.78,1.87,11.53,3.85,17.24,5.94l10.22-1.75c-2.24-.88-4.45-1.82-6.68-2.69-3.45-1.32-6.94-2.57-10.41-3.84l4.72-1.06c5.65,2.21,11.29,4.47,16.9,6.83l19.85,2.64,8.98,1.2c-1.13-.49-2.78-1.18-4.77-2.01-8.53-3.57-23.25-9.65-28.09-11.6l33.87-7.7-37.56,5.85-.64.1c-.06-.03-.14-.05-.22-.08l-1.73.39-1.99.31-49.97,7.78c-8.35-3.7-17.38-7.41-27.16-11.16,12.82.83,25.99,2.49,38.7,5.36.75.17,1.49.42,2.25.62l-.12-.67,12.28-1.91c-4.29-1.36-8.58-2.66-12.97-3.83-6.61-1.66-13.11-2.92-19.78-4.06-6.66-1.07-13.39-1.88-20.26-2.05-6.85-.09-13.93.23-20.94,2.92-3.46,1.36-6.92,3.53-9.47,6.72-1.25,1.59-2.28,3.4-2.98,5.27-.74,2-1.04,3.48-1.51,5.13-3.42,12.88-6.68,25.75-9.95,38.64l-3.49,13.76,75.97-15.39-44.7,13.91-32.13,7.66-.91,2.62-.49.15-1.1,4.38-1.18,3.37.37-.14-3.1,12.27,64.3-10.56-35.1,9.8-29.63,5.47-.79,3.03-.79.23-6.76,26.75-1.27,5.03,5.23.44h.02c3.13.11,6.28.21,9.41.27l-3.4,2.25c2.18,2.65,6.81,9.24,9.89,13.61l.33-.07c-.21-.29-.41-.59-.62-.89l4.97-1.23,1.25-2.38c-1.92-3.71-3.85-7.44-5.79-11.18,6,.08,12.02.08,18.06-.05,5.68-.14,11.36-.37,17.08-.85,1.38-.12,2.75-.25,4.13-.41-1.7,1.54-3.38,3.1-5.04,4.7-1.93,1.84-3.83,3.73-5.68,5.74-.93,1.03-1.84,2.05-2.71,3.21-.46.58-.9,1.2-1.32,1.92-.22.37-.43.76-.64,1.25-.2.48-.44,1.1-.47,2.12h0l-.02.47.15.46c.64,1.75,1.34,2.97,2.2,4.34.87,1.31,1.87,2.53,3.01,3.65,2.28,2.19,5.17,3.84,8.22,4.72,6.19,1.74,12.37.44,17.71-1.57l1-.4.53-.21.47-.21c.69-.33,1.38-.69,2.02-1.04,1.28-.72,2.48-1.48,3.64-2.27,2.32-1.58,4.53-3.23,6.7-4.85,4.35-3.27,8.71-6.45,13.24-9.32,2.23-1.45,4.5-2.79,6.81-4.06,8.15,1.06,16.67,1.72,25.09,1.86,8.55.02,17.18-.36,25.89-2.28,4.33-1,8.71-2.46,12.85-5.19,2.04-1.39,4.04-3.17,5.51-5.53.73-1.15,1.16-1.98,1.73-3.01.52-.99,1.02-1.99,1.5-3.01,1.77-3.83,3.21-7.93,3.87-12.38l27.33-9.82,24.43,17.51c-3.66,3.46-7.2,7.02-10.59,10.74l12.85-8.33,17.02,43.96c-10.71-2.47-21.69-3.9-32.65-4.6-7.99-.57-15.98-.6-23.98-.5-8,.2-15.96.72-23.91,1.38-7.94.79-15.87,1.74-23.75,2.95-7.88,1.29-15.72,2.63-23.5,4.36-15.56,3.37-30.99,7.48-45.9,13.04,15.61-3.03,31.19-5.77,46.79-8.22,7.82-1.13,15.62-2.34,23.44-3.27,7.81-.99,15.65-1.92,23.5-2.56,7.84-.79,15.69-1.32,23.55-1.7,7.85-.45,15.71-.53,23.59-.55,11.1.07,22.23.62,33.33,1.83-3.68,20.14-7.44,40.29-11.34,60.39-2,10.33-4.03,20.66-6.16,30.95-1.07,5.16-2.16,10.28-3.3,15.41-.98,4.32-1.96,8.72-3.18,12.89-29.82,7.24-166.83,61.73-187.8,70.1-.08-5.49-.14-10.97-.21-16.45l94.62-34.26-106.87,32.61c.02-.2.03-.37.04-.56l-.47-1.38.49-.14c.08-2.45.17-4.9.17-7.38,0-4.06-.12-8.05-.31-12.01l6.52-2.47c-.28,6.73-.58,13.45-.92,20.18l6.65-2.02c-.06-6.36-.11-12.72-.13-19.09v-1.2l150.24-57.07-153.35,50.51-1.83.61-8.2,2.7-3.74,1.23-10.21,3.37v2.52l-.38.15c.21,3.49.36,6.96.41,10.48.11,12.23-.86,24.38-3.05,36.37-2.18,11.98-5.6,23.74-10.52,34.81-4.93,11.03-11.39,21.5-19.96,29.83-4.27,4.11-9.09,7.66-14.38,10.19-5.28,2.52-11.04,3.92-16.87,3.98-5.81.05-11.63-1.24-16.99-3.68-5.37-2.44-10.3-5.9-14.7-10-8.81-8.24-15.45-18.75-20.59-29.82-1.32-2.87-2.52-5.8-3.64-8.76l6.13-2.93c1.76,4.67,3.76,9.3,6.29,13.64,5.96,10.65,14.73,20.12,25.63,25.29-9.45-7.42-16.35-17.07-21.27-27.56-2.05-4.52-3.87-9.16-5.35-13.9l60.65-29.06-62,24.5c-1.38-4.89-2.53-9.85-3.42-14.87-1.12-5.73-1.89-11.57-2.52-17.41-.53-4.44-.85-8.92-1.13-13.41l64.11-25.72c.11.67.23,1.36.33,2.06.55-.88,1-1.79,1.37-2.75l1.15-.45-1.11.34c.94-2.49,1.3-5.21,1.3-7.88-.05-3.74-.87-7.5-2.33-10.92-.68-1.64-1.51-3.2-2.44-4.67,1.09-.78,2.2-1.52,3.29-2.25,2.8-1.83,5.68-3.5,8.61-5.07,1.33,3.3,2.5,6.64,3.49,10.04,1.21,3.93,2.08,7.96,2.77,11.99.75,4.07,1.13,8.19,1.46,12.33.52,8.29.37,16.68-.66,25.2,3.57-7.85,5.17-16.58,5.58-25.26.24-4.36-.02-8.74-.48-13.11-.52-4.36-1.43-8.68-2.59-12.91-1.1-3.8-2.49-7.48-4.15-11.06,2.09-1.02,4.22-2.02,6.39-3,1.1-.52,2.23-1.02,3.34-1.52,2.94,7.93,5.19,16.12,6.77,24.44,1.32,6.6,2.21,13.3,2.75,20.04.64,6.74.76,13.53.81,20.33-.05,13.61-1.16,27.24-2.65,40.97,4.06-13.21,6.6-26.92,7.57-40.8.56-6.95.53-13.93.23-20.92-.39-6.97-1.25-13.94-2.53-20.83-1.4-6.88-3.21-13.68-5.62-20.3-.68-1.8-1.39-3.58-2.14-5.34.83-.4,1.64-.81,2.48-1.25-1.05-.16-2.11-.26-3.16-.31-1.81-4.16-3.81-8.24-6.15-12.14-3.54-6.06-7.71-11.75-12.41-16.94-4.76-5.1-9.97-9.86-16-13.3,5.19,4.55,9.63,9.76,13.61,15.27,4,5.48,7.44,11.31,10.49,17.34,1.63,3.27,3.12,6.62,4.48,10.02-1.14.11-2.28.3-3.39.51-2.62.52-5.2,1.31-7.7,2.3-5.7-10.09-13.62-18.86-23.08-25.13,5.4,6.68,10.34,13.47,14.42,20.68,1.27,2.25,2.42,4.54,3.52,6.86-3.39,1.89-6.57,4.25-9.27,7.08-.84.9-1.65,1.86-2.41,2.86-.4-.52-.81-1-1.24-1.47-2.5-2.69-5.41-4.97-8.8-6.49,1.55,3.37,3.23,6.36,4.76,9.35.72,1.41,1.41,2.81,2.09,4.18-.32.82-.59,1.64-.8,2.5.47-.41.94-.79,1.4-1.17.52,1.13,1.04,2.25,1.53,3.38,1.24,2.97,2.33,6,3.23,9.16.71,2.5,1.32,5.02,1.81,7.77l-64.39,20.2c-.52-11.31-.65-22.65-.41-34.09-2.83,11.64-4.09,23.61-4.43,35.6l-34.26,10.74-.89-2.68,26.6-8.13c0-.97-.05-1.95-.05-2.92.11-24.56,4.46-49.36,14.79-71.53,5.17-11,11.88-21.39,20.61-29.54,4.36-4.05,9.26-7.5,14.57-9.88,5.29-2.42,11.02-3.68,16.73-3.64,5.74.08,11.41,1.45,16.61,3.96,5.22,2.47,9.98,5.98,14.22,10.07,8.49,8.23,14.94,18.63,19.85,29.6.12.27.24.56.35.84l11.54,1.85,7.74,1.25c-.29-.95-.61-1.83-.9-2.76-15.28-48.07-43.27-73.33-74.15-73.33-7.68,0-15.17,1.52-22.47,4.57,3.59-3.06,7.42-5.77,11.51-8.01,7.89-4.32,16.81-6.56,25.75-6.1,9.01.39,17.85,3.04,25.33,8,7.51,4.95,13.61,11.96,18.35,19.79,4.76,7.85,8.27,16.5,10.96,25.39,2.33,7.72,4.02,15.65,5.28,23.65l3.08,5.25,3.1,5.26c-.24-1.54-.54-3.51-.93-5.75-1.57-9.38-4.16-23.46-6-29.75-2.71-9.2-6.25-18.23-11.22-26.6-1.29-2.19-2.69-4.32-4.21-6.39l7.14-1.72c1.71,3.34,3.33,6.74,4.76,10.24.35.87.65,1.77,1.01,2.66l7.15-1.38c-.45-1.32-.9-2.62-1.39-3.93-1.19-3.18-2.52-6.31-3.93-9.42l18.31-4.43c.28,1.03.52,2.05.65,3.07.37,3.93.56,7.93.68,11.95l3.35-.64c-.05-3.87-.14-7.74-.5-11.72-.16-1.2-.4-2.36-.66-3.52l75.92-18.35-100.23,18.75c.64,1.14,1.23,2.2,1.7,3.06l-5.25-2.41-13.01,2.45c-3.3-3.71-7.02-7.07-11.19-9.85-8.24-5.59-18.11-8.65-27.95-9.16-9.96-.62-20.06,1.84-28.77,6.52-8.75,4.67-16.23,11.21-22.7,18.41-6.46,7.23-11.99,15.18-16.92,23.41-9.82,16.51-17.31,34.17-23.58,52.16-6.22,18.03-11.22,36.42-14.91,55.15-.91,4.7-1.74,9.4-2.4,14.16-.68,4.77-1.16,9.68-1.25,14.55-.21,9.73.59,19.34,1.84,28.84.81,5.87,1.78,11.67,2.89,17.48l-.29.1.46.83c2.38,12.37,5.41,24.59,8.96,36.72l-2.28,20.4c-6.88,2.16-14.24,3.62-21.57,4.9-8.22,1.4-16.55,2.51-24.88,3.5-16.69,1.95-33.48,3.41-50.29,4.63-33.63,2.43-67.36,4.02-101.08,5.28-33.73,1.23-67.49,2.1-101.24,2.73-33.5.61-67.03,1.01-100.53,1.11l-16.19-14.98h-.01l-.56-.53-.9-.02c-26.12-.41-52.26-2.74-78.32-5.49-26.08-2.75-52.12-5.94-78.14-9.4-26.03-3.36-52.01-7.17-78-10.9l-38.94-5.84c-5.92-.97-11.86-1.82-17.85-2.37l-.41-.88-1.52.71c-6.48-.52-13.03-.68-19.69-.21,3.74,1.62,7.53,2.98,11.35,4.15l-6.76,3.17c-4.76-4.3-9.49-8.63-14.12-13.04l-3.65-3.56-1.7-1.75c.21.31-.1-.3-.12-.9-.26-2.72.22-6.2.75-9.43,2.35-13.26,6.23-26.52,9.75-39.76,1.81-6.64,3.63-13.26,5.37-19.98.86-3.37,1.71-6.73,2.42-10.24.31-1.64.62-3.12.77-5.11l14.01,3.77c.62,5.49,3.45,24.31,13.45,32.33.47,8.41.93,16.83,1.28,25.21-2.09-1.55-4.16-3.15-6.16-4.83-3.13-2.65-6.16-5.41-9.03-8.34-2.86-2.94-5.55-6.06-7.89-9.44-2.34-3.36-4.36-6.99-5.49-10.98.78,4.07,2.51,7.94,4.6,11.56,2.09,3.62,4.56,7.02,7.21,10.24,2.66,3.24,5.5,6.32,8.47,9.27,2.98,2.97,6.03,5.78,9.33,8.49h0l3.26,2.54.1-4.23c.25-10.35.3-20.64.37-30.93l.14-30.92-.61-3.84-2.87-.03-30.14-.21c0-.12.02-.23.03-.36.06-2.38-.43-4.5-.98-6.35-1.13-3.77-2.74-7.02-4.41-10.2-.41-.78-.85-1.52-1.28-2.28,29.22,5.45,156.18,27.58,291.81,27.58,73.94,0,150.45-6.59,215.1-26.03,47.28-14.22,188.23-75.23,189.65-75.85,0,0-143.81,57.67-190.87,71.81-188.2,56.6-478.06,3.52-508.51-2.34-.44-.69-.84-1.39-1.28-2.08-3.33-5.14-6.86-10.07-10.67-14.87,1.72-2.68,3.61-5.46,5.44-8.13,2.4-3.45,4.84-6.88,7.32-10.27,4.97-6.81,10.1-13.5,15.36-20.08,1.03-1.28,2.09-2.53,3.12-3.81.25,1.72.71,3.47,1.67,5.33.6,1.1,1.36,2.28,2.68,3.35,1.26,1.08,3.32,1.92,5.27,1.84.25.02.48-.02.71-.03l.56-.07.71-.15.51-.13c.62-.18,1.17-.37,1.66-.57,1-.39,1.9-.79,2.8-1.22,6.91-3.36,13.13-7.1,19.45-10.91.03,0,.07-.02.1-.04,11.36,3.16,22.82,5.82,34.33,8.2-.41.39-.83.76-1.23,1.17.47-.4.94-.75,1.42-1.14,4.15.85,8.3,1.66,12.46,2.45,16.82,3.21,33.74,5.79,50.7,8,16.98,2.18,34,3.99,51.03,5.62,17.03,1.63,34.11,2.94,51.18,3.94,34.17,2.06,68.42,2.88,102.66,2.12,8.55-.18,17.12-.47,25.66-.86,8.55-.45,17.1-.98,25.64-1.64,13.55-1.02,27.08-2.31,40.56-4.03-.62.99-1.2,1.98-1.77,3.03-1.02,1.9-2.01,3.77-2.85,6.37-.19.72-.39,1.39-.5,2.41-.03.21-.05.56-.06.83,0,.19,0,.78.07,1.3l.06.39.05.25.04.17.02.09c.27.94.15.48.26.78.09.25.21.49.32.73,1.03,1.9,2.41,2.73,3.37,3.25,1,.5,1.8.74,2.55.94,2.89.65,5.02.6,7.2.57,4.28-.11,8.25-.59,12.21-1.13,7.89-1.1,15.59-2.54,23.26-4l11.46-2.24,5.7-1.07,2.83-.53.72-.14c.29-.06.81-.15,1.1-.24.69-.17,1.25-.37,1.8-.56,4.2-1.61,7.59-3.44,11.13-5.31,3.49-1.87,6.91-3.8,10.31-5.75,6.79-3.93,13.48-7.95,20.13-12.01,26.59-16.3,52.75-33.16,78.85-50.14,26.09-17.01,51.93-34.33,77.74-51.71h0l3.96-2.59-4.53-1.2c-3.83-1-7.39-1.25-11.04-1.56-3.61-.27-7.21-.43-10.8-.53-7.21-.2-14.37-.21-21.57-.09h-.02l-.46.02-.47.22-43.05,21.6-42.89,21.91-10.7,5.55-10.43,5.56c-3.3,1.48-7.12,2.74-10.85,3.94-3.76,1.2-7.58,2.35-11.4,3.45-15.31,4.38-30.86,8.36-46.36,12.13l-.39.09-.4.18c-4.32,1.9-7.7,4.38-10.98,6.91-3.24,2.56-6.25,5.3-9.13,8.1-5.78,5.62-11.08,11.58-16,17.9-1.78,2.28-3.48,4.64-5.14,7.04-14.75,1.06-29.52,1.9-44.3,2.35-8.49.27-16.99.41-25.49.47-8.5.11-17,.13-25.49.05-33.99-.32-67.98-1.9-101.87-4.35-16.96-1.26-33.88-2.76-50.8-4.41-16.93-1.67-33.81-3.66-50.68-5.73-18.25-2.21-36.5-4.49-54.78-6.7,14.2-11.08,28.78-21.63,43.58-31.84,9.39-6.41,18.87-12.7,28.46-18.83,9.6-6.07,19.29-11.99,29.09-17.73,19.63-11.41,39.64-22.15,60.17-31.72,10.29-4.75,20.53-9.57,30.72-14.55,5.11-2.48,10.25-4.92,15.46-7.17,5.01-2.12,10.01-4.31,15.21-5.89l27.28,1.29h.24l-3.38,2.4,6,.4c31.95,2.15,63.91,3.65,95.88,4.96,31.96,1.31,63.94,2.28,95.92,3.13,31.99.86,63.97,1.39,95.96,1.66,24.66.19,49.32.21,73.99-.17-17.08,3.37-34,7.52-50.76,12.11-24.09,6.61-47.88,14.16-71.47,22.28-23.59,8.13-46.97,16.85-70.16,26-23.18,9.19-46.22,18.75-68.98,28.96,22.89-9.88,46.06-19.11,69.36-27.95,23.31-8.83,46.79-17.21,70.45-24.98,23.67-7.78,47.53-14.98,71.62-21.22,24.09-6.22,48.43-11.57,73.02-14.92l-.11-.8c12.19-1.12,24.52-1.65,36.73-1.6,12.39.11,24.75.9,36.72,3,6,1.08,11.87,2.56,17.5,4.48,5.66,1.94,10.81,4.56,16,7.79,2.33,1.44,4.59,2.94,6.8,4.54l10.33,2.05,5.55-.84c-5.34-4.43-13.75-11.02-17.79-13.58-2.79-1.73-5.56-3.36-8.6-4.88-1.35-.67-2.72-1.27-4.09-1.87l9.18.98,1.81.19.45-1.77h0c9.09-27.64,17.43-55.5,26.56-82.92l3.5-10.24c1.22-3.51,2.4-7.05,3.38-10.7,1.01-3.67,1.9-7.44,2.42-11.47.47-4.03.72-8.5-.87-13.35-.78-2.4-2.13-4.79-3.87-6.71-1.73-1.94-3.73-3.42-5.7-4.55-3.98-2.23-7.87-3.41-11.63-4.4-7.57-1.89-14.75-2.95-22.11-4.05-14.69-1.95-29.19-3.17-43.78-4.25-14.59-1.06-29.17-1.86-43.76-2.43-29.18-1.06-58.42-1.21-87.66.03-14.63.63-29.25,1.6-43.85,3.26-14.58,1.66-29.16,3.86-43.6,7.25-6.57,1.54-13.17,3.41-19.61,5.6,14.12-4.97,28.81-8.42,43.57-11.63,9.44-2.02,18.93-3.87,28.43-5.75,4.76-.94,9.53-1.89,14.29-2.92,4.78-1.07,9.53-2.12,14.37-3.69,1.23-.42,2.4-.82,3.77-1.48,1.35-.7,2.11-1.21,3.14-1.66,1.99-.93,4.16-1.66,6.38-2.3,4.45-1.26,9.13-2.09,13.84-2.75,9.42-1.28,19.03-1.86,28.64-2.19,9.73-.3,19.5-.28,29.26-.11,2.46.05,4.92.11,7.39.17.4.02.83.02,1.26.03l41.9-4.49c-7.23-.44-14.44-.82-21.67-1.13-19.41-.81-38.86-1.22-58.35-.55-9.74.38-19.5.99-29.27,2.37-4.88.71-9.76,1.6-14.62,2.98-2.44.71-4.86,1.54-7.26,2.66-1.17.54-2.48,1.36-3.27,1.76-.84.4-1.93.83-2.98,1.18-4.37,1.45-9.09,2.53-13.76,3.59-4.7,1.03-9.43,2.01-14.17,2.97-9.48,1.91-19.01,3.81-28.49,5.9-18.93,4.18-38.06,8.82-56.09,16.69-17.95,7.66-35.25,16.55-52.33,25.79-17.07,9.28-33.86,19.04-50.39,29.21-16.52,10.19-32.81,20.78-48.65,32.06-2.26,1.63-4.5,3.24-6.73,4.89-.4-1.1-.81-2.17-1.31-3.23-.39-.83-.75-1.61-1.19-2.43l-.31-.58-.14-.29c-.07-.12-.02-.09-.33-.49-.97-1.22-2.05-1.54-2.75-1.75-1.48-.34-2.51-.3-3.55-.27-1,.05-1.96.15-2.87.31-1.83.29-3.58.68-5.3,1.11-6.84,1.77-13.29,4.18-19.66,6.85-3.21,1.32-6.3,2.81-9.49,4.41-.79.4-1.61.83-2.48,1.36-1.61.93-2.94,2.66-3.52,4.25-1.07,3.21-.59,5.54-.18,7.58.99,4.05,2.76,7.23,4.63,10.28,1.21,1.82,2.49,3.54,3.88,5.18l-18.23-1.02c-5.88-1.29-11.77-2.37-17.68-3.36l10.72-3.88-14.54,3.53c2.74.43,5.05.76,6.32.94l-12.18.49-36.28,8.84,1.82,6.05,35.15-12.72c6.06.83,12.1,1.79,18.1,2.92-2.91.92-5.83,1.79-8.74,2.75-5.47,1.72-10.94,3.45-16.39,5.31-10.9,3.68-21.51,8.16-31.79,13.29-20.61,10.15-40.65,21.35-60.06,33.55-9.73,6.07-19.27,12.37-28.67,18.92-9.41,6.52-18.68,13.24-27.75,20.21-9.11,6.91-18.01,14.09-26.75,21.46-5.31,4.49-10.58,9.04-15.74,13.71-12.15-1.47-24.31-2.89-36.49-4.24,4.04-2.55,8.06-5.13,12.05-7.81l4.57-3.17c.78-.55,1.52-1.09,2.35-1.74.75-.59,1.55-1.23,2.3-1.93,1.54-1.36,3.07-2.97,4.32-4.89,1.28-1.95,2.15-4.15,2.63-6.29.99-4.27.79-8.37.55-12-.12-2.79.55-6.18,1.57-9.35,2.09-6.39,5.6-12.51,9.79-18.08,5.83-7.85,13.07-14.69,21.05-20.64,1.92-1.11,3.85-2.21,5.78-3.27,14.73-8.13,30.04-15.25,45.66-21.57,15.64-6.31,31.63-11.84,47.81-16.32,7.96-2.1,16.27-3.09,24.61-3.53.47-.02.94-.02,1.39-.06l-.83-.18,22.16-2.24,5.88-1.73c-8.49-.42-20.9-1.03-24.37-.98l-13.29,4.82-.28-.94,53.57-17.33-54.43,14.5-.04-.14c-5.27.56-10.52,1.39-15.71,2.7-16.54,4.44-32.71,9.89-48.58,16.13-15.87,6.27-31.44,13.36-46.48,21.51-15.04,8.11-29.59,17.35-43.06,27.96-13.52,10.56-26.18,22.08-38.2,34.22-12.01,12.15-23.38,24.91-34.17,38.14-5.39,6.62-10.64,13.35-15.74,20.2-2.54,3.43-5.05,6.89-7.5,10.38-2.5,3.55-4.84,6.93-7.28,10.8l-1.39,2.21,1.67,2.17h0c3.87,5.47,7.76,11.11,11.32,16.79,3.53,5.65,7.07,11.55,8.98,17.27.47,1.42.76,2.71.75,3.78-.02,1.07-.28,2.85-.56,4.41-.57,3.24-1.32,6.58-2.08,9.89-1.52,6.65-3.19,13.32-4.83,20.02-1.64,6.68-3.26,13.39-4.74,20.15-1.48,6.77-2.9,13.56-3.84,20.55-.23,1.76-.42,3.52-.53,5.34-.09,1.84-.18,3.65.15,5.78.24,1.06.3,2.24,1.67,3.85.75.71,1.32,1.25,1.99,1.86l3.89,3.47c5.23,4.56,10.51,8.97,15.84,13.38h0l1.03.88,1.23-.58,12.42-5.85c6.86,1.77,13.81,3.04,20.8,4.12l38.96,6.21c25.98,4.08,52.04,7.66,78.12,11.04,26.12,3.27,52.27,6.22,78.51,8.4,13.12,1.12,26.27,1.93,39.44,2.55,12.9.59,25.82.89,38.77.42l16.28,14.79.59.53h.78c33.8.24,67.58.17,101.37-.11,33.79-.27,67.58-.8,101.37-1.69,33.79-.91,67.58-2.18,101.36-4.28,16.9-1.07,33.77-2.34,50.66-4.15,8.43-.91,16.88-1.96,25.3-3.3,1.97-.31,3.93-.65,5.89-1l72.87,4.08-136.71,43.24,600.88-170.6.18-.03.32-.15c1.07-.51,23.26-12.05,30.65-78.38.27-.47.52-.93.78-1.4.94-1.78,1.77-3.59,2.5-5.42,1.49-3.68,2.68-7.44,3.67-11.22,1.99-7.58,3.23-15.29,4.04-23.01,1.58-15.47,1.51-31.02.6-46.44-.3-4.72-.69-9.43-1.13-14.14l49.52-20.79-52.28,15.55ZM1210.01,119.19c.75.06,1.54.12,2.27.2-1.98.34-3.95.7-5.94,1.03-.73.13-1.48.24-2.22.36l5.88-1.58ZM479.6,335.87c.86-1.55,1.84-3.09,2.85-4.63,2.06-3.07,4.27-6.12,6.56-9.12,4.63-5.95,9.56-11.74,14.8-17.1,2.63-2.66,5.33-5.24,8.15-7.55,2.73-2.25,5.62-4.35,8.37-5.65,15.33-4.23,30.58-8.58,45.78-13.42,3.84-1.23,7.69-2.5,11.54-3.85,3.86-1.4,7.64-2.74,11.63-4.65l10.64-6.05,10.5-5.84,83.99-46c6.95-.09,13.93-.09,20.88.11,3.55.1,7.1.24,10.62.5,1.68.15,3.39.31,5.07.49-24.75,15.71-49.64,31.22-74.51,46.72-26.39,16.42-52.87,32.76-79.65,48.45-6.71,3.9-13.42,7.76-20.18,11.49-3.39,1.86-6.77,3.67-10.17,5.4-3.36,1.7-6.89,3.47-10,4.56-.37.13-.74.24-.97.3-.18.05-.15.02-.34.06l-.72.11-2.91.47-5.78.99-11.49,1.99c-7.62,1.3-15.25,2.58-22.79,3.46-3.74.44-7.53.8-11.03.82-.64,0-1.28-.02-1.89-.05.32-.65.68-1.35,1.07-2.02ZM580.55,58.51c6.74-2.28,13.55-4.1,20.53-5.64,13.94-3.04,28.2-4.99,42.52-6.41,14.34-1.39,28.75-2.28,43.19-2.78,28.88-1.02,57.86-.63,86.79.61,14.47.59,28.93,1.42,43.36,2.51,14.4,1.1,28.89,2.36,43.04,4.26,7.01,1.06,14.23,2.18,20.77,3.84,3.25.85,6.37,1.9,8.72,3.25,2.4,1.42,3.65,2.82,4.38,4.87.75,2.07.81,5.08.45,8.23-.37,3.17-1.12,6.53-1.99,9.89-.91,3.34-1.9,6.74-2.96,10.14l-.92,3.01c-32.17-6.83-232.16-46.61-364.04-10.34,11.86-6.36,23.89-12.39,36.18-17.69,6.59-2.85,13.26-5.47,19.98-7.75ZM416.86,139.43c15.77-11.13,32.03-21.6,48.52-31.66,16.52-10.06,33.29-19.69,50.3-28.86,3.3-1.76,6.61-3.52,9.92-5.24-2.63,1.42-5.27,2.86-7.87,4.32-25.52,14.32-49.99,30.29-73.99,46.82-23.78,16.44-47.09,33.47-69.79,51.4,2.53-3.55,5.72-6.82,9-9.95,3.46-3.29,7.1-6.4,10.82-9.44,7.46-6.07,15.2-11.81,23.09-17.4ZM399.65,137.34l.1.13c-.06-.05-.09-.08-.15-.15-.15-.24,0-.04.05.02ZM363.3,153.35c.5-.3,1.05-.59,1.64-.91,2.82-1.54,5.86-2.92,8.84-4.39,6.01-2.84,12.12-5.59,18.22-7.9,1.51-.57,3.03-1.1,4.51-1.53.75-.2,1.47-.4,2.15-.53.56-.12,1.13-.18,1.4-.2l.17.2c.47.59.96,1.26,1.42,1.93.76,1.1,1.53,2.27,2.21,3.39-4.35,3.27-8.64,6.59-12.85,10.05-3.76,3.1-7.47,6.3-11.02,9.7-3.26,3.14-6.42,6.42-9.18,10.22l-1.58-.09c-1.03-3.06-2.22-6.06-3.24-8.98-1.11-3-2.13-6.08-2.57-8.68-.2-.97-.17-1.91-.12-2.28ZM50.96,308.02s-.08-.06-.11-.07c.11.03.23.12.11.07ZM71.54,272.19c11.73-12.04,24.12-23.49,37.27-33.94,2.97-2.38,6.02-4.68,9.09-6.92-4.4,5.63-8.2,11.84-10.75,18.81-1.29,3.73-2.33,7.53-2.31,12.05.15,3.61.09,6.89-.68,9.73-.75,2.79-2.14,4.8-4.6,6.9-.59.52-1.22,1.02-1.92,1.54-.62.47-1.34.97-2.06,1.48l-4.45,2.97c-6.04,3.9-12.21,7.71-18.39,11.44-6.16,3.68-12.48,7.4-18.68,10.36-.77.36-1.52.69-2.23.96-.34.13-.68.24-.92.32l-.14.02c-.17-.12-.41-.33-.67-.65-.73-.92-1.49-2.31-2.25-3.78-.51-1.04-1.04-2.14-1.6-3.25,8.1-9.64,16.5-18.99,25.27-28.02ZM780.15,436.53c.71,2.22,1.46,4.38,2.2,6.55l5.77-2.33c-2.24-6.68-4.03-13.55-5.4-20.51-1.53-7.94-2.46-16-2.94-24.09l8.15-3.27c.06,9.98.91,19.98,2.68,29.88,1.05,5.36,2.35,10.69,4,15.93l-16.47,6.5c-.04-.11-.08-.24-.12-.36l2.28-.94c-.18-2.44-.24-4.9-.14-7.37ZM759.71,452.47l-.11-.24.86-.36c0,.12.01.2.02.29l-.78.31ZM764.24,450.36l.47-.2c-.71-7.36-.71-14.76,0-22.05,1.16,6.95,2.35,13.8,3.83,20.53l7.52-3.03c0,.14.01.27.02.41l-11.77,4.64c-.02-.11-.04-.21-.06-.3ZM808.81,518.72c-2.5-1.04-4.96-2.25-7.34-3.61-2.51-1.78-4.91-3.68-7.18-5.71-7.12-6.5-12.98-14.26-17.46-22.79-2.31-4.23-4.26-8.68-5.95-13.23-1.78-4.53-3.14-9.22-4.47-13.94-.12-.46-.21-.94-.34-1.41l4.23-2.02c.11.43.22.89.33,1.32,1.33,4.73,2.69,9.43,4.47,13.95,1.69,4.55,3.64,9,5.96,13.22,4.48,8.54,10.34,16.28,17.47,22.79,7.18,6.42,15.57,11.73,25.14,14.82-5.07-.14-10.07-1.54-14.84-3.39ZM809.33,499.75c-1.56-1.32-3.08-2.66-4.5-4.13-4.89-5.04-8.97-10.8-12.47-16.95-3.52-6.14-6.45-12.67-9.15-19.37-.28-.74-.55-1.52-.84-2.27-.47-2.05-.9-4.14-1.23-6.23l3.32-1.61c.97,2.71,1.93,5.37,2.96,8.01,2.69,6.68,5.63,13.22,9.14,19.35,3.51,6.14,7.57,11.9,12.47,16.95,4.92,5.03,10.71,9.22,17.42,12.49-6.03-.58-11.92-2.88-17.13-6.25ZM1227.05,349.83c.45,2.36.95,4.68,1.53,7.01l-4.61,1.25-1.39-4.98,2.38-.47c-.21-1.71-.34-3.44-.44-5.17l1.68-.71.85,3.07ZM1249.16,396.19c-2.63-.53-5.08-1.96-7.21-3.68-2.11-1.75-3.96-3.83-5.52-6.07-2.15-3.04-3.84-6.34-5.27-9.73,1.48.15,2.98.26,4.49.26,1.06,2.63,2.22,5.24,3.58,7.73,2.45,4.43,5.36,8.69,9.94,11.49ZM1242.21,376.44c.61-.09,1.23-.17,1.84-.3,1.11,2.76,2.28,5.52,3.61,8.23-2.04-2.47-3.84-5.14-5.45-7.92ZM1229.53,372.61c-.08-.23-.18-.47-.26-.7-.06-.15-.09-.3-.13-.45-.11-.01-.2-.05-.29-.06-.33-.07-.65-.19-.97-.28-.36-1.08-.7-2.16-1.04-3.24.4.03.81.09,1.21.14-.53-1.83-.96-3.65-1.36-5.51l3.1-1.21c.78,2.61,1.61,5.19,2.6,7.74.49,1.24,1.03,2.49,1.57,3.72-1.47,0-2.95-.08-4.44-.14ZM1223.16,369.55c-1.92-.79-3.8-1.72-5.56-2.83,1.7.21,3.35.44,5.01.65.17.73.37,1.45.56,2.18ZM1225.4,338.16c.13,1.33.27,2.68.43,4.02l-5.94-2.84,5.5-1.18ZM1220.43,353.56c.14,1.78.35,3.56.6,5.35l-7.9,2.14,7.3-7.49ZM865.15,518.93c11.96-7.08,23.08-17.83,32.46-31.71,8.32-12.33,14.92-26.48,19.67-41.8l-1.01,16.24-.21,3.1,2.95-.96c21.02-6.83,42.14-13.42,63.3-19.84,21.17-6.41,42.38-12.63,63.67-18.56,21.3-5.91,42.68-11.56,64.17-16.56,10.76-2.47,21.56-4.79,32.4-6.71,5.42-.96,10.85-1.81,16.28-2.46,5.43-.64,10.9-1.14,16.24-1.01h.29l.26-.06,14.73-3.51c2.46,2.43,9.73,9.41,12.88,10.48,3.16,1.05,8.93,1.45,15.94,1.45,11.2,0,25.55-1.03,37.52-2.11l-391.55,114.02ZM1272.32,387.77c-5.66,0-11.48-5.78-16.43-16.13,1.35-.82,2.65-1.72,3.8-2.81-1.51.52-3.01.93-4.5,1.32-.04-.08-.08-.15-.11-.23-.61.24-1.22.5-1.84.7-.05.01-.11.03-.14.04-1.63.38-3.25.72-4.87.99-3.44.59-6.89.9-10.36,1.04-.29,0-.59,0-.88-.03-.47-1.38-.91-2.79-1.33-4.19.85.03,1.68.08,2.52.08-.53-1.22-1.09-2.46-1.57-3.71-.7-1.79-1.3-3.6-1.87-5.43l3.45-1.36c.48,1.92.97,3.83,1.53,5.71.47,1.61.97,3.2,1.51,4.79,3.74-.11,7.48-.46,11.22-1.09.49-.08.97-.21,1.46-.27-1.61-3.97-3.1-8.53-4.43-13.49l22.49-8.71-39.51,10.79c-.31-1.48-.63-2.97-.9-4.46l.87-.18c-.49-2.13-.94-4.25-1.33-6.41l3.97-1.65c.4,2.43.84,4.83,1.35,7.25l11.63-2.34c-.68-3.06-1.32-6.24-1.89-9.57l17.77-7.44-34.08,10.03c-.17-1.2-.33-2.45-.49-3.68l.61-.13c-.66-5.49-1.02-11.01-1.03-16.54-.03-7.47.43-14.97,1.83-22.31.33,7.44.79,14.82,1.42,22.16.49,5.31,1.07,10.57,1.81,15.81l11.44-2.47c-1.63-10.91-2.55-23.19-2.55-36.56,0-8.92.43-17.33,1.19-25.2l22.04-9.26c1.92,5.85,3.52,11.69,4.68,17.62.18.94.34,1.9.5,2.86-1.77,1.08-3.4,2.37-4.73,3.97,1.78-.47,3.48-.93,5.16-1.36.75,4.74,1.26,9.54,1.5,14.34.42,6.64.33,13.32.01,20-.37,6.71-.99,13.41-1.93,20.17,2.63-6.33,4.19-13.05,5.19-19.83,1.01-6.79,1.28-13.7.93-20.57-.32-5.03-.97-10.05-2.07-14.97,2.3-.49,4.54-.87,6.79-1.02h.11c.3,2.85.52,5.74.67,8.6.36,6.32.33,12.68.21,19.05-.15,6.39-.46,12.78-.79,19.27,2.06-6.18,3.27-12.59,4.06-19.02.78-6.45,1.01-13,.72-19.51-.17-2.79-.45-5.59-.84-8.36,1.1.08,2.2.21,3.3.46.8.16,1.61.4,2.42.68.3,2.84.56,5.69.72,8.54.65,9.78.57,19.6-.05,29.37-.64,9.82-1.93,19.6-3.5,29.41,3.28-9.4,5.51-19.18,6.77-29.08,1.31-9.92,1.58-19.98.99-29.98-.14-2.18-.36-4.37-.59-6.54.25.11.49.22.75.34-.24-.43-.54-.84-.82-1.25-.84-7.47-2.21-14.89-4.17-22.16-2.65-9.63-6.13-19.12-11.32-27.64,3.6,9.25,6.13,18.8,8.13,28.38,1.15,5.74,2.06,11.52,2.75,17.34-.33-.17-.64-.39-.98-.55-1.6-.74-3.32-1.18-5.06-1.41-.45-2.34-.96-4.67-1.65-6.96-1.55-5.23-3.79-10.37-6.97-14.78l4.83-2.03-5.18,1.55c-.52-.72-1.07-1.41-1.65-2.09.35.76.65,1.54.98,2.28l-10.38,3.12c-.03-.05-.05-.09-.08-.14.02.05.03.09.05.16l-29.37,8.77-.68-1.9,9.31-2.79c4.54-35.94,16.35-58.44,27.54-58.44,14.22,0,29.46,36.36,29.46,90.51s-15.24,90.5-29.46,90.5ZM1266.48,262.65l9.71-4.07c2.07,4.96,3.52,10.05,4.54,15.24.38,2.01.69,4.04.97,6.05-2.53.18-4.96.84-7.23,1.8-.18-.67-.33-1.35-.52-2.02-1.73-5.97-4.23-11.73-7.47-17ZM1291.81,186.17c-5.47-4.91-11.92-7.26-19.21-7.05,2.03-1.51,4.19-2.66,6.45-3.19,2.67-.63,5.78-.34,8.39.71,2.67,1.07,5.08,3,7.12,5.41,4.09,4.87,6.8,11.31,8.87,17.84,1.26,4.18,2.28,8.45,3.13,12.78-3.58-12.02-8.49-20.9-14.76-26.51Z"/>
        <path class="cls-1" d="M304.85,165.27c-.12-.02-.3-.02-.44-.03l-.24.09.68-.06Z"/>
        <path class="cls-1" d="M915.02,207.87c-.3-.44-.57-.89-.87-1.32l-.29.07c.4.55.75,1.05,1.05,1.46l.11-.21Z"/>
        <polygon class="cls-1" points="221.33 163.26 164.65 177.08 166.46 183.12 221.33 163.26"/>
        <path class="cls-1" d="M883.36,209.74l-22.1,3.4,1.24,6.19,19.09-4.73c4.23,3.77,8.19,7.84,11.76,12.25,3.09,3.83,5.94,7.85,8.55,12.05l6.69,3.04,5.25,2.41c-.47-.86-1.06-1.92-1.7-3.06-3.43-6.13-8.88-15.48-12.14-19.7-2.58-3.33-5.4-6.46-8.36-9.48l22.22-5.5.29-.07c.3.43.57.87.87,1.32,2.05,3.02,4.08,6.07,6,9.18,2.66,4.44,5.27,8.93,7.51,13.57.52,1.08,1.02,2.18,1.5,3.27l4.05-.74c-.52-1.41-1.1-2.85-1.68-4.28-2.05-4.89-4.26-9.71-6.63-14.44-1.57-3.2-3.19-6.39-4.81-9.56l9.34-2.33-9.76,1.5c-.26-.51-.51-1.03-.78-1.54l-2.19.54-4.97,1.23c.21.3.4.6.62.89l-.33.07-23.97,3.68-5.55.84Z"/>
        <path class="cls-1" d="M877.87,26.86c-6.26-1.05-12.56-1.83-18.91-2.02-6.36-.18-12.73-.02-19.17,1.28,6.13,2.31,12.28,3.74,18.45,4.99,6.17,1.25,12.38,2.06,18.58,2.88,6.19.81,12.4,1.51,18.61,2.24,6.22.73,12.4,1.46,18.73,2.51-5.43-3.54-11.57-5.71-17.66-7.63-6.12-1.82-12.35-3.2-18.62-4.25Z"/>
        <path class="cls-1" d="M273.07,172.04l11.19.51,8.93-3.24c.26.02.52.03.78.05,3.41.21,6.81.49,10.2.81l13.22-.52,12.18-.49c-1.27-.18-3.58-.52-6.32-.94-6.76-1.03-16.16-2.47-19.31-2.78l.23-.09.24-.09,34.72-12.56-41.7,12.21-5.88,1.73-18.48,5.41Z"/>
      </g>
    </g>
  </g>
</svg>