<?xml version="1.0" encoding="UTF-8"?>
<svg id="Layer_2" data-name="Layer 2" xmlns="http://www.w3.org/2000/svg" viewBox="0 0 1278.28 598.11">
  <defs>
    <style>
      .cls-1 {
        fill: none;
        stroke: #fff;
        stroke-linecap: round;
        stroke-linejoin: round;
      }

      .cls-2 {
        opacity: .1;
      }
    </style>
  </defs>
  <g id="_レイヤー_2" data-name="レイヤー 2">
    <g class="cls-2">
      <path class="cls-1" d="M.95,472.93s-4.53,37.5,15.25,43.27c19.78,5.77,32.14,4.53,48.21,12.36,16.07,7.83,173.89,45.74,189.14,49.45,15.25,3.71,20.19,6.18,32.55,9.07,12.36,2.88,250.13,13.19,266.2,9.89,16.07-3.3,139.28-31.32,139.28-31.32l-34.2-13.6s29.67-13.19,37.5-11.13c7.83,2.06,60.57.41,87.36-10.71,26.78-11.13,38.32-21.84,49.45-39.56,12.36,1.24,22.25,2.89,31.32-.82,9.07-3.71,148.35-55.63,173.89-63.46,25.55-7.83,137.22-47.39,137.22-47.39l-12.77-5.77s44.09-2.88,49.04-2.88,24.31-10.3,35.85-37.91c11.54-27.61,16.89-98.07,16.07-107.14-.82-9.07-12.36-32.97-12.36-32.97l-25.55-12.36-57.69,2.88-392.7,67.99-117.85,76.23-77.47,126.92L.95,472.93Z"/>
      <path class="cls-1" d="M860.6,375.47c-1.54,80.37-38.37,147.69-82.27,150.35-43.89,2.67-78.23-60.33-76.69-140.7,1.54-80.37,38.37-147.69,82.27-150.35,43.89-2.67,78.23,60.33,76.69,140.7Z"/>
      <path class="cls-1" d="M847.74,375.74c-1.14,62.01-30.17,113.91-64.85,115.93-34.68,2.01-61.87-46.62-60.73-108.63,1.14-62.01,30.17-113.91,64.85-115.93,34.68-2.01,61.87,46.62,60.73,108.63Z"/>
      <g>
        <path class="cls-1" d="M838.89,354.05c-2.88-29.26-15.87-78.91-58.93-78.7-.92.2,40.18,10.1,47.18,66.55,4.92,39.62.82,70.46-4.12,84.47-4.94,14.01-17.72,55.22-52.13,57.9,0,0,30.7,11.74,49.65-26.17,18.96-37.91,21.22-74.79,18.34-104.05Z"/>
        <path class="cls-1" d="M802.33,452.15c17.03-35.82,19.07-70.67,16.48-98.31-2.59-27.64-18.03-78.69-54.29-71.28-.83.19,34.91,7.23,41.21,60.57,4.42,37.43-1.33,67.53-5.77,80.77-4.44,13.24-11.13,45.33-42.24,52.97,0,0,27.58,11.1,44.61-24.72Z"/>
        <path class="cls-1" d="M737.32,350.13c0-1.24,1.24-7.83,1.65-9.07.41-1.24,6.18-.82,7.01-1.24.82-.41,4.53-8.65,4.53-8.65l5.36-34.61-2.88-.82s-7.42,10.71-10.3,17.72c-2.88,7.01-13.19,40.38-12.77,41.62.41,1.24,7.42-4.94,7.42-4.94Z"/>
        <path class="cls-1" d="M759.57,298.63l-3.3,19.78,15.66-14.42s-7.83-5.77-12.36-5.36Z"/>
        <path class="cls-1" d="M751.46,342.43l3.45,3.45c1.44,1.44,3.78,1.47,5.26.06l5.54-5.28c.3-.28.55-.62.74-.98,2.03-3.9,14.13-27.13,14.13-27.88,0-.43-1.67-1.97-3.28-3.36-1.58-1.36-3.96-1.18-5.31.4-4.71,5.49-14.78,17.16-15.72,17.79-.91.6-4.03,7.85-5.63,11.68-.59,1.41-.27,3.03.81,4.11Z"/>
        <path class="cls-1" d="M782.9,320.88l-10.51,16.54c-.72,1.14.44,2.54,1.69,2.03l15.56-6.28-3.7-11.88c-.43-1.38-2.28-1.63-3.05-.41Z"/>
        <path class="cls-1" d="M791.71,339.27c-.22-1-1.28-1.57-2.23-1.19l-22.9,9.16-5.06,5.06c-1.45,1.45-1.99,3.59-1.39,5.55l2.37,7.75c.67,2.2,2.92,3.53,5.17,3.06l5.91-1.23,18.47-13.04c1.54-1.09,2.29-3,1.89-4.85l-2.22-10.28Z"/>
        <polygon class="cls-1" points="795.83 358.79 776.46 371.15 796.24 378.15 795.83 358.79"/>
        <path class="cls-1" d="M795.04,395.19l.78-7.58c.25-2.42-1.17-4.7-3.45-5.55l-18.12-6.76c-1.49-.56-3.14-.54-4.62.05l-4.46,1.78c-2.17.87-3.67,2.89-3.87,5.22l-.61,7.07c-.18,2.15.95,4.2,2.86,5.19l8.78,4.54,17.84.33c2.49.05,4.61-1.83,4.86-4.31Z"/>
        <polygon class="cls-1" points="792.95 405.76 771.93 402.88 787.59 423.89 792.95 405.76"/>
        <path class="cls-1" d="M780.42,437.23l3.42-6.41c.78-1.47.67-3.25-.29-4.61l-12.44-17.56-9.44-6.84c-1.38-1-3.32-.68-4.3.71l-3.25,4.59c-1.2,1.7-1.35,3.93-.39,5.77l2.96,5.65,19.01,19.37c1.4,1.43,3.78,1.08,4.73-.68Z"/>
        <polygon class="cls-1" points="764.92 454.8 776.05 444.5 759.16 426.78 764.92 454.8"/>
        <path class="cls-1" d="M754.15,425.02c-.23-1.02-.67-1.97-1.29-2.81l-6.07-8.21-5.77,2.47.75,10.08c.05.69.2,1.37.43,2.03l11.18,31.16,7.83-3.71-7.07-31.01Z"/>
        <polygon class="cls-1" points="737.32 449.86 741.85 459.74 749.27 460.57 741.02 434.61 737.32 449.86"/>
        <path class="cls-1" d="M737.32,425.13c-1.24-7.42-7.83-14.42-7.83-14.42-.41,11.95,5.77,34.2,5.77,34.2,0,0,3.3-12.36,2.06-19.78Z"/>
        <path class="cls-1" d="M732.37,406.18l2.47,2.88s2.88-.41,7.42-1.24c4.53-.82,4.53-2.88,9.07-14.83,4.53-11.95,2.06-30.49,2.06-32.97s-11.54-14.83-11.54-14.83l-2.47,6.59s7.01,7.83,7.01,8.65,1.65,7.42,2.06,14.01c.41,6.59-4.53,23.08-6.59,26.78-2.06,3.71-9.48,4.94-9.48,4.94Z"/>
      </g>
      <path class="cls-1" d="M1204.81,206.94s-16.48,44.5-9.07,82.41c6.71,34.31,11.13,48.21,22.05,52.95,8.01,3.48,21.44-6.76,26.78-31.32,5.26-24.19,10.85-71.05,1.85-93.33-8.54-21.15-14.22-27.81-20.4-27.4-6.18.41-3.71-3.3-3.71-3.3,0,0,9.48-.82,15.25,5.36,5.77,6.18,18.95,31.32,18.13,56.04-.82,24.72-10.3,84.06-10.3,84.06,0,0-13.39,25.75-20.81,26.58s-25.55-4.12-31.73-35.44c-6.18-31.32-15.04-77.67,11.95-116.62Z"/>
      <path class="cls-1" d="M1214.27,197.8c2.73,1.72,5.05,3.91,7.17,6.31,1.05,1.2,2.07,2.44,3,3.74.48.64.92,1.31,1.38,1.97.43.68.88,1.34,1.28,2.03,1.64,2.76,3.03,5.66,4.23,8.64,1.2,2.98,2.11,6.07,2.87,9.18.75,3.12,1.34,6.28,1.67,9.47.11.79.15,1.59.23,2.39.07.8.14,1.6.18,2.4l.13,2.4.09,2.35c.2,6.28.27,12.57.25,18.87-.09,6.3-.32,12.61-.83,18.92-.28,3.15-.61,6.3-1.04,9.44-.21,1.57-.45,3.14-.72,4.71-.28,1.56-.59,3.13-.92,4.68-1.35,6.21-3.22,12.41-6.33,18.1-1.59,2.81-3.52,5.48-5.92,7.68-1.2,1.1-2.52,2.07-3.94,2.85-1.43.77-2.95,1.34-4.51,1.7-.26.06-.52-.1-.58-.36-.06-.24.08-.48.31-.56h0c1.42-.52,2.76-1.23,3.97-2.09,1.23-.84,2.35-1.84,3.35-2.94,2.01-2.21,3.55-4.82,4.78-7.56,1.26-2.74,2.25-5.62,3.03-8.57.79-2.95,1.44-5.95,1.94-8.98.25-1.52.48-3.04.67-4.57.2-1.53.4-3.06.56-4.6.33-3.07.56-6.16.74-9.25.39-6.19.57-12.4.61-18.63.1-6.23.02-12.47-.05-18.72l-.02-2.34-.06-2.29c-.01-.76-.06-1.53-.11-2.29-.06-.76-.07-1.53-.16-2.28l-.22-2.28-.29-2.27c-.08-.76-.22-1.51-.33-2.26l-.18-1.13-.22-1.12c-1.16-5.97-3.01-11.82-5.74-17.27-.32-.69-.7-1.35-1.04-2.03-.38-.66-.73-1.34-1.14-1.98-.78-1.31-1.63-2.58-2.54-3.81-.9-1.23-1.87-2.42-2.9-3.54-.51-.57-1.03-1.13-1.58-1.66-.54-.52-1.12-1.06-1.67-1.5l-.03-.02c-.24-.19-.28-.53-.09-.77.18-.22.49-.27.72-.12Z"/>
      <path class="cls-1" d="M1273.18,185.34c-6.58-.97-17.54-2.51-21.19-2.51-5.36,0-9.89-4.94-9.89-4.94-3.3-14.83-14.42-48.21-14.42-48.21,0,0-7.42-8.24-16.48-14.42-9.07-6.18-39.15-7.01-39.15-7.01l4.53-4.53,13.11.94c2.75.2,5.51-.29,8.04-1.41l40.63-18.13c3.25-1.45,5.28-4.75,5.11-8.31l-2.89-61.06c-.07-1.37-1.39-2.32-2.71-1.95l-12.3,3.44c-3.39.95-5.73,4.03-5.73,7.55v1.88l-1.39-.3-22.58-4.82c-4.61-.98-9.31-1.5-14.03-1.53l-164.79-1.17-2.84-.02s-35.85-8.24-75-12.36c-1.11-.12-2.29-.23-3.53-.35-2.76-.26-5.86-.51-9.25-.76-49.12-3.63-160.83-6.46-236.11-3.84-82.83,2.88-89.42,15.25-89.42,15.25h-.28c-11.97,1.02-106.45,63.87-106.45,63.87,0,0-11.13,1.24-14.01,1.65-1.92.28-10.63,6.23-16.21,10.17-2.97,2.09-4.56,5.63-4.15,9.23l.59,5.32-23.49,16.48c-28.43.41-150.82,30.08-150.82,30.08,0,0-17.21,4.26-39.41,10.05h0c-1.13.3-2.27.6-3.43.9-29.39,7.69-66.13,17.71-83.65,24.08-26.78,9.74-74.41,60.29-88.61,75.81-2.62,2.87-3.94,6.69-3.64,10.57l.36,4.69-13.61,14.57c-2.38,2.55-3.7,5.91-3.7,9.4v10.23l-24.53,19.41c-2.42,1.92-3.92,4.76-4.13,7.85-1.18,17.12,5.55,63.67,7.53,76.8.12.76.04,1.51-.21,2.2-.4,1.19-1.3,2.19-2.51,2.72l-9.26,4.07c-2.83,1.24-5.11,3.46-6.43,6.25l-8.26,17.51-.81,21c-.28,7.27,1.58,14.46,5.36,20.69l6.27,10.33c1.89,3.12,5.62,4.6,9.13,3.64l16.01-4.39c2.35-.64,4.83-.59,7.14.16,10.86,3.52,45.02,14.46,78.05,23.99,34.41,9.93,122.56,26.28,146.43,30.63,3.78.69,6.99,3.19,8.58,6.7l4.66,10.29c1.65,3.65,5.22,6.06,9.22,6.23l243.94,10.84c6.06.27,12.12-.4,17.98-1.97l133.32-35.94c3.3-4.12,2.47-17.72,2.47-17.72l-13.6,3.71,3.3-66.76c0-47.8,29.67-206.86,114.97-210.57,77.06,11.13,67.17,114.97,63.05,142.16-4.12,27.2-23.9,77.47-23.9,77.47l22.66,5.77,69.64-28.84,208.09-72.94,33.38-11.95c0-32.55,14.42-107.55,14.42-107.55,20.6-87.77,47.39-79.12,47.39-79.12,39.15,23.9,22.66,113.73,22.66,113.73l-7.42,32.97,17.72-17.72,15.03-124.21c.35-2.9-1.67-5.54-4.55-5.97ZM1142.49,94.61c-2.84-.11-5.54-1.29-7.55-3.3-7.17-7.21-24.66-24.61-29.85-28.18-6.02-4.14-36.48-21.7-41.68-24.7h0c-.49-.28-.75-.44-.75-.44l152.96,3.22,3.63.08s-8.02,33.55-22.35,51.93c-1.62,2.08-4.16,3.23-6.8,3.14l-47.6-1.75Z"/>
      <path class="cls-1" d="M348.12,436.46l10.3-1.65,168.54-8.24,14.42,1.65s122.8-57.28,132.69-70.05c9.89-12.77,18.13-22.66,18.13-22.66,0,0-12.36,84.47-13.6,93.54-1.24,9.07-6.59,108.79-6.59,115.38l-121.77,29.88s-186.67-.82-187.9-2.47c-1.24-1.65-11.13-18.13-11.13-18.13,0,0,6.18-33.38,6.18-35.44s-9.27-81.8-9.27-81.8Z"/>
      <path class="cls-1" d="M337.2,396.7l44.92-6.18s147.11-17.31,152.88-19.78c5.77-2.47,17.72-11.95,17.72-11.95l-7.01,34.2-179.25,40.79-21.84,3.3-7.42-40.38Z"/>
      <path class="cls-1" d="M400.65,367.44l-8.65-9.07s127.74-15.25,142.16-17.31c14.42-2.06,24.72-8.24,24.72-8.24l30.08-25.55-4.12,21.84s-40.38,28.43-49.45,30.49c-9.07,2.06-134.75,7.83-134.75,7.83Z"/>
      <path class="cls-1" d="M924.39,144.51s1.65,14.83,2.06,16.48c.41,1.65,12.77,18.13,12.77,18.13l14.01-1.65s12.36,11.13,21.84,11.13,38.32.41,39.56-7.01-11.13-37.09-23.49-40.79c-12.36-3.71-59.75,2.88-66.76,3.71Z"/>
      <path class="cls-1" d="M786.35,261.95s49.45-14.83,75.41,57.28c0,0,11.54,53.98,5.36,107.55-6.18,53.57-9.48,60.57-9.48,60.57l-24.31-5.77s26.78-63.05,27.2-101.37c.41-38.32-.41-114.97-74.17-118.26Z"/>
      <path class="cls-1" d="M862.22,471.49s46.52-16.69,48.16-17.11c1.65-.41,21.84-13.6,21.84-13.6l220.04-71.7.82-6.59-24.72-33.38,29.67-4.53,15.66-4.94s-7.01,42.44-6.18,52.33l-239,85.3-67.58,28.43-2.25-3.03,3.53-11.18Z"/>
      <path class="cls-1" d="M1071.5,337.77l19.78-42.44s-1.65,8.24,4.94,10.3c6.59,2.06,9.07-2.47,16.89-4.94,7.83-2.47,56.04-25.14,56.04-25.14,0,0,10.3-14.42,14.42-30.49,0,0-13.6,59.75-14.83,75.41l-10.71,4.12s-40.8,7.83-42.86,8.65c-2.06.82-43.68,4.53-43.68,4.53Z"/>
      <path class="cls-1" d="M906.68,286.68s-9.48,9.07-9.07,18.96c.41,9.89,3.71,57.28,3.71,57.28,0,0,60.16-8.24,64.7-9.07s84.06-16.07,85.3-16.07,15.25-.41,15.25-.41c0,0,17.31-47.39,18.54-53.16,1.24-5.77,11.13-34.61,13.6-39.15,2.47-4.53-145.05,55.63-192.02,41.62Z"/>
      <path class="cls-1" d="M1228.09,170.06l-31.32-22.25s-13.6.82-19.37,9.48c-5.77,8.65-33.79,44.92-44.09,67.58-10.3,22.66-20.6,42.44-20.6,42.44l62.63-11.13s20.19-82,52.74-86.12Z"/>
      <path class="cls-1" d="M1242.92,193.96s-8.65-12.77-15.66-11.13c-7.01,1.65-16.89,6.59-27.61,26.78-10.71,20.19-8.65,18.13-8.65,18.13,0,0,3.71-34.61,28.43-50.68,0,0,14.01-10.71,29.26,11.95l-5.77,4.95Z"/>
      <path class="cls-1" d="M1247.05,182.42s5.77,8.24,9.48,8.65c3.71.41,16.89-5.36,16.89-5.36l-26.37-3.3Z"/>
      <path class="cls-1" d="M32.47,422.45s7.42,18.95,11.54,20.6c4.12,1.65,11.95,2.47,11.95,2.47l8.24,7.01.82,24.31-16.48,13.6s-9.48-4.94-10.3-8.65-10.3-39.15-10.3-42.03v-15.66l4.53-1.65Z"/>
      <path class="cls-1" d="M27.11,332.62s2.47,12.36,5.77,18.54c3.3,6.18,18.54,20.6,18.54,20.6,0,0,0-27.61-.82-32.14-.82-4.53-4.53-21.43-4.53-21.43l4.53-3.3,7.83,29.67,1.24,39.15s-6.59.41-8.65-1.24c-2.06-1.65-29.26-36.26-29.26-37.91s-.41-7.42,5.36-11.95Z"/>
      <path class="cls-1" d="M64.2,284l14.01,44.92,40.38-30.08,182.55,25.55s93.95-47.8,104.67-51.92l-88.39-11.33-79.94,46.98-122.38-17.31,38.32-56.04-38.32,7.01-21.02,32.97-21.84,2.47-8.04,6.8Z"/>
      <path class="cls-1" d="M305.05,320.05l2.59.99c3.9,1.48,7.07,4.41,8.87,8.17l29.34,61.31.41,9.07s-5.36-2.88-8.65-7.01c-3.3-4.12-40.38-67.17-40.38-67.17v-5.36h7.83Z"/>
      <path class="cls-1" d="M443.1,339.83l-52.33,16.89v2.88l155.71-18.62c4.04-.48,7.84-2.19,10.89-4.89,18.44-16.35,86.42-76.03,109.48-87.74l-37.09,11.95c-26.49,20.85-51.07,44.45-74.28,70.03-3.14,2.96-7.13,4.87-11.41,5.46l-133.94,18.46,32.97-14.42Z"/>
      <path class="cls-1" d="M400.86,367.24l-40.79,23.9,160.29-19.78c11.72-.92,24.48-7.11,32.97-15.25l35.64-30.7-37.8,24.18c-5.21,3.34-11.87,4.75-18.03,5.28l-132.27,12.36Z"/>
      <path class="cls-1" d="M357.39,435.43s76.23-23.08,97.66-26.78c21.43-3.71,61.4-11.95,61.4-11.95l-89.83,29.67s82.83-2.47,87.77-2.47,16.89,2.06,20.6,4.94c0,0-12.77-2.47-38.32-.82-25.55,1.65-139.28,7.42-139.28,7.42Z"/>
      <path class="cls-1" d="M532.93,391.75s68.82-25.96,85.71-49.04c16.89-23.08,58.93-86.95,68.4-93.13l-62.46,94.25c-4.87,7.35-11.44,13.42-19.15,17.68-17.29,9.56-49.66,26.18-72.5,30.23Z"/>
      <path class="cls-1" d="M360.68,556.99s118.57,3.73,158.51,2.58c5.74-.16,10.79-3.85,12.7-9.26l4.33-12.27s-7.83,16.07-11.95,16.48c-4.12.41-164-.82-164-.82l.41,3.3Z"/>
      <path class="cls-1" d="M659.43,216.62s17.31-10.71,30.91-14.01c13.6-3.3,92.72-18.13,92.72-18.13l37.91-1.65s-121.15,41.21-130.63,45.74c0,0,22.25-16.07,20.19-16.07s-59.75,9.89-59.75,9.89l8.65-5.77Z"/>
      <path class="cls-1" d="M757.92,215.39s36.26,16.89,44.92,26.37c0,0-47.39,2.47-75,42.86-27.61,40.38-47.8,73.35-66.76,86.53-18.95,13.19-121.56,59.34-121.56,59.34l-4.53-1.65s-18.61-4.06-34.65-2.65-95.15,2.65-95.15,2.65c0,0,65.52-20.19,67.17-20.19s42.26-11.55,42.26-11.55l18.31-5.34s77.88-30.49,84.47-41.21c6.59-10.71,67.99-131.86,140.52-135.16Z"/>
      <path class="cls-1" d="M919.86,385.16l-11.13-6.59v-2.88l-4.95-12.36s63.87-9.07,93.13-14.83c29.26-5.77,58.1-14.01,70.46-11.13,0,0-2.88,3.71-4.12,4.53-1.24.82-143.4,43.27-143.4,43.27Z"/>
      <path class="cls-1" d="M846.51,250s-51.92-32.55-58.1-34.61l107.55-12.36.41,6.59,208.51-56.45,57.69-13.6,16.89,14.01s-32.14,43.27-37.09,52.74c-4.94,9.48-32.14,52.75-32.14,52.75l22.25-47.39h-31.73l-95.19,14.01-99.31,13.6-6.59,3.71,3.71,10.71-30.08,7.01-26.78-10.71Z"/>
      <path class="cls-1" d="M1226.85,130.09s-9.07-1.65-11.95-.82c-2.88.82-15.66,3.71-15.66,3.71l-.41,16.89s21.43,12.77,25.14,16.48c3.71,3.71,12.36,11.13,12.36,11.13l7.83,2.47-17.31-49.86Z"/>
      <path class="cls-1" d="M1276.71,188.6s-13.6,7.01-17.72,5.77c-4.12-1.24-9.07-4.95-9.07-4.95l-7.83,5.77s16.07,28.02,14.42,57.69c-1.65,29.67-10.3,79.94-10.3,79.94l16.48-17.72,14.01-126.51Z"/>
      <path class="cls-1" d="M1193.48,96.3l-.41,7.42,47.39-20.6,3.71-4.94-2.47-51.92-17.31,5.36s-6.59,30.91-10.71,39.97c-4.12,9.07-13.6,22.66-20.19,24.72Z"/>
      <path class="cls-1" d="M829.41,149.66l-1.83,8.32c-1.66,7.52-7.44,13.44-14.92,15.27-31.82,7.77-115.66,28.22-128.3,31.22-15.66,3.71-28.02,12.36-30.49,12.77-74.58,12.77-185.84,74.17-185.84,74.17,0,0-24.31-8.65-30.91-11.95-2.61-1.31-9.22-2.87-16.25-4.28-10.74-2.15-22.48-3.96-22.48-3.96l-139.86-16.54-93.86-11.1c-1.06-.12-2.13-.28-3.18-.47-1.07-.19-2.13-.42-3.19-.68l-5.91-1.44c-5.16-1.26-10.53-1.33-15.72-.2l-16.84,3.65c33.38-38.32,126.38-80.44,126.38-80.44,0,0,.16-.12.47-.36h0c22.21-5.79,39.41-10.05,39.41-10.05,0,0,122.38-29.67,150.82-30.08,0,0,157.62,8.86,173.27,9.27,15.66.41,219.22,16.89,219.22,16.89Z"/>
      <path class="cls-1" d="M829.41,149.66l-1.83,8.32s-192.67,31.24-217.39,37.83c-23.95,6.39-165.19,65.72-189.32,79.37-10.74-2.15-22.48-3.96-22.48-3.96l-139.86-16.54c27.49-21.81,104.05-56.49,119.18-56.79-4.34-4.86-166.11,26.46-216.22,45.22-1.07-.19-2.13-.42-3.19-.68l-5.91-1.44c-5.16-1.26-10.53-1.33-15.72-.2l-16.84,3.65c33.38-38.32,126.38-80.44,126.38-80.44,0,0,.16-.12.47-.36h0c22.21-5.79,39.41-10.05,39.41-10.05,0,0,122.38-29.67,150.82-30.08,0,0,157.62,8.86,173.27,9.27,15.66.41,219.22,16.89,219.22,16.89Z"/>
      <path class="cls-1" d="M1273.18,185.34c-6.58-.97-17.54-2.51-21.19-2.51-5.36,0-9.89-4.94-9.89-4.94-3.3-14.83-14.42-48.21-14.42-48.21,0,0-7.42-8.24-16.48-14.42-9.07-6.18-39.15-7.01-39.15-7.01l4.53-4.53,13.11.94c2.75.2,5.51-.29,8.04-1.41l40.63-18.13c3.25-1.45,5.28-4.75,5.11-8.31l-2.89-61.06c-.07-1.37-1.39-2.32-2.71-1.95l-12.3,3.44c-3.39.95-5.73,4.03-5.73,7.55v1.88l-1.39-.3-22.58-4.82c-4.61-.98-9.31-1.5-14.03-1.53l-164.79-1.17-2.84-.02s-35.85-8.24-75-12.36c-1.11-.12-2.29-.23-3.53-.35-2.76-.26-5.86-.51-9.25-.76-49.12-3.63-160.83-6.46-236.11-3.84-82.83,2.88-89.42,15.25-89.42,15.25h-.28c-11.97,1.02-106.45,63.87-106.45,63.87,0,0-11.13,1.24-14.01,1.65-1.92.28-10.63,6.23-16.21,10.17-2.97,2.09-4.56,5.63-4.15,9.23l.59,5.32-23.49,16.48c-28.43.41-150.82,30.08-150.82,30.08,0,0-17.21,4.26-39.41,10.05h0c-1.13.3-2.27.6-3.43.9-29.39,7.69-66.13,17.71-83.65,24.08-26.78,9.74-74.41,60.29-88.61,75.81-2.62,2.87-3.94,6.69-3.64,10.57l.36,4.69-13.61,14.57c-2.38,2.55-3.7,5.91-3.7,9.4v10.23l-24.53,19.41c-2.42,1.92-3.92,4.76-4.13,7.85-1.18,17.12,5.55,63.67,7.53,76.8.12.76.04,1.51-.21,2.2-.4,1.19-1.3,2.19-2.51,2.72l-9.26,4.07c-2.83,1.24-5.11,3.46-6.43,6.25l-8.26,17.51-.81,21c-.28,7.27,1.58,14.46,5.36,20.69l6.27,10.33c1.89,3.12,5.62,4.6,9.13,3.64l16.01-4.39c2.35-.64,4.83-.59,7.14.16,10.86,3.52,45.02,14.46,78.05,23.99,34.41,9.93,122.56,26.28,146.43,30.63,3.78.69,6.99,3.19,8.58,6.7l4.66,10.29c1.65,3.65,5.22,6.06,9.22,6.23l243.94,10.84c6.06.27,12.12-.4,17.98-1.97l133.32-35.94c3.3-4.12,2.47-17.72,2.47-17.72l-13.6,3.71,3.3-66.76c0-47.8,29.67-206.86,114.97-210.57,77.06,11.13,67.17,114.97,63.05,142.16-4.12,27.2-23.9,77.47-23.9,77.47l22.66,5.77,69.64-28.84,208.09-72.94,33.38-11.95c0-32.55,14.42-107.55,14.42-107.55,20.6-87.77,47.39-79.12,47.39-79.12,39.15,23.9,22.66,113.73,22.66,113.73l-7.42,32.97,17.72-17.72,15.03-124.21c.35-2.9-1.67-5.54-4.55-5.97ZM1142.49,94.61c-2.84-.11-5.54-1.29-7.55-3.3-7.17-7.21-24.66-24.61-29.85-28.18-6.02-4.14-36.48-21.7-41.68-24.7h0c-.49-.28-.75-.44-.75-.44l152.96,3.22,3.63.08s-8.02,33.55-22.35,51.93c-1.62,2.08-4.16,3.23-6.8,3.14l-47.6-1.75Z"/>
      <path class="cls-1" d="M829.41,149.66l-1.83,8.32c-1.65,7.52-7.44,13.44-14.92,15.27-31.82,7.77-115.66,28.22-128.3,31.22-15.66,3.71-28.02,12.36-30.49,12.77-74.58,12.77-185.84,74.17-185.84,74.17,0,0-24.31-8.65-30.91-11.95-6.59-3.3-38.73-8.24-38.73-8.24l-233.72-27.64c-2.14-.25-4.27-.64-6.37-1.15l-5.91-1.44c-5.16-1.26-10.54-1.33-15.73-.2l-16.84,3.65c33.38-38.32,126.38-80.44,126.38-80.44,0,0,.16-.12.47-.36h0c22.21-5.79,39.41-10.05,39.41-10.05,0,0,122.38-29.67,150.82-30.08,0,0,157.62,8.86,173.27,9.27,15.66.41,219.22,16.89,219.22,16.89Z"/>
      <path class="cls-1" d="M653.87,217.24s47.39-7.42,57.28-4.53c0,0-97.94,47.79-146.37,108.62-2.38,2.99-5.88,4.89-9.7,5.21l-86.85,7.38c-5.33.45-10.37-2.44-12.67-7.27l-3.23-6.79c-3.12-6.55-1.38-14.39,4.22-19.01l11.48-9.45s125.27-69.64,185.84-74.17Z"/>
      <path class="cls-1" d="M575.73,308.23s48.47,12.44,56.71,15.73c8.24,3.3,58.1,10.3,61.81,12.36,3.71,2.06,15.17,5.19,15.17,5.19"/>
      <path class="cls-1" d="M243.25,164.53l-.37.58s-51.23,26.45-56.03,29.4c-4.8,2.95-62.07,37.57-67.02,49.93l-39.56,62.63-12.57-27.4-.36-4.69c-.3-3.88,1.02-7.7,3.64-10.57,14.2-15.52,61.83-66.07,88.61-75.81,17.52-6.37,54.26-16.39,83.65-24.08Z"/>
      <path class="cls-1" d="M687.87,552.87l-133.32,35.94c-5.86,1.58-11.93,2.25-17.98,1.97l-243.94-10.84c-4-.18-7.57-2.59-9.22-6.23l-4.66-10.29c-1.59-3.5-4.79-6-8.58-6.7-23.87-4.36-112.02-20.7-146.43-30.63-33.03-9.54-67.19-20.48-78.05-23.99-2.31-.75-4.79-.8-7.14-.16l-16.01,4.39c-3.52.96-7.24-.52-9.13-3.64l-6.27-10.33c-3.77-6.22-5.64-13.42-5.36-20.69l.81-21,8.26-17.51c1.32-2.79,3.6-5.01,6.43-6.25l9.26-4.07c1.21-.53,2.11-1.53,2.51-2.72l.8.72,5.09,23.86s6.18,32.14,11.54,36.26c5.36,4.12,1.65.82,1.65.82l.41-4.94,7.71-5.97c3.18-2.46,4.97-6.31,4.8-10.33l-4.63-109.27c-.29-6.79,2.75-13.3,8.14-17.45l44.7-34.39c3.59-2.76,8.16-3.94,12.64-3.25l176.7,27.04c4.7.72,8.78,3.64,10.97,7.87l33.19,64.15,27.98,135.32c1.33,6.45-.13,13.17-4.04,18.48l-4.17,5.67,1.24,8.65,174.72,3.3,20.19-1.65,4.12-3.71,75.17-32.98c3.31-1.45,7.19-.55,9.51,2.23l10.91,13.04,18.34-4.74,13.6-3.71s.82,13.6-2.47,17.72Z"/>
      <path class="cls-1" d="M366.66,441l145.9-7.85c12.22-.66,22.41,9.22,22.14,21.45l-1.56,70.05-34.12-12.31c-3.63-1.31-6.32-4.43-7.07-8.21l-10.32-51.59-114.97-11.54Z"/>
      <path class="cls-1" d="M557.45,503.63s62.22-34.61,65.11-37.09c2.88-2.47,66.34-65.11,66.34-65.11l-2.06,23.9-13.6,11.95-1.79,8.42c-.71,3.35-2.57,6.34-5.26,8.46l-38.7,30.51-45.09,26.27c-4.44,2.59-9.96,2.45-14.27-.35l-10.69-6.96Z"/>
      <path class="cls-1" d="M1115.54,109.76l-85.45,19.3-4.33,8.87c-2.41,4.95-7.33,8.19-12.83,8.46l-44.52,2.19c-3.07.15-5.75,2.14-6.78,5.04l-9.01,25.29h-11.95l-13.19-18.13,8.24-11.13-44.5,2.47-61.81-2.47-179.73-13.83-136.79-6.87-75.98-5.47,23.49-16.48-.59-5.32c-.4-3.61,1.19-7.15,4.15-9.23,5.58-3.94,14.29-9.89,16.21-10.17,2.88-.41,14.01-1.65,14.01-1.65,0,0,94.48-62.85,106.45-63.86h.28s116.82-5.16,168.74-3.51c51.92,1.65,142.16,5.77,142.16,5.77,0,0,10.34-13.52,14.62-13.68.04,0,.08,0,.12,0,4.22.08,11.22.08,11.22.08,0,0-.8.21-2.09.68-4.14,1.51-13.39,5.68-18.1,14.15,9.07,2.06,32.55,4.94,32.55,4.94l69.23,13.6,63.09,24.74c6.14,2.41,11.38,6.64,15.03,12.14l19.76,29.79c1.08,1.64.2,3.85-1.72,4.28Z"/>
      <path class="cls-1" d="M1062.64,37.99s-31.73-14.42-48.42-19.16"/>
      <path class="cls-1" d="M1172.05,108.25s-18.75-1.44-24.93-5.56c-6.18-4.12-12.18-11.38-12.18-11.38"/>
      <path class="cls-1" d="M1066.96,120.71s.63,6.7,7.23,10.82c6.59,4.12,27.2,11.54,29.67,22.25,2.47,10.71,3.3,65.52-7.42,97.25-10.71,31.73-28.43,84.06-28.43,85.71"/>
      <path class="cls-1" d="M894.11,150.9s-5.36,17.31,0,45.33c5.36,28.02,7.83,53.16,7.83,53.16l22,6.9c2.7.85,3.72,4.14,1.96,6.36-5.62,7.08-16.05,20.15-19.02,23.41-4.12,4.53-4.12,77.47-4.12,77.47,0,0,6.18,11.95,6.18,14.42l.32,10.1"/>
      <path class="cls-1" d="M909.26,388.05l159.97-50.9,56.74-8.11c4.11-.59,8.19,1.23,10.51,4.67l19.2,28.47c.79,1.17.05,2.76-1.35,2.91l-19.57,2.14-25.91-5.32c-2.77-.57-5.6-.71-8.41-.43l-40.26,4.1-149.17,51.92s-2.47-2.06-2.47-8.24.73-21.22.73-21.22Z"/>
      <polyline class="cls-1" points="1125.98 329.05 1162.37 323.56 1173.73 319.88"/>
      <path class="cls-1" d="M1098.96,173.64l-20.26,6.07c-1.68.5-3.3-.7-3.58-2.71l-.94-6.61c-.28-2,.9-3.9,2.6-4.23l20.56-3.95c1.18-.23,2.31.91,2.54,2.53l.76,5.35c.23,1.62-.51,3.21-1.68,3.56Z"/>
      <path class="cls-1" d="M56.78,447.59l-5.04-.13c-6.73-.17-12.74-4.24-15.4-10.42l-7.29-16.92c.24-.69.32-1.44.21-2.2-1.98-13.14-8.71-59.68-7.53-76.8,0,0,23.1,36.82,31.76,39.71l3.3,66.76Z"/>
      <path class="cls-1" d="M881.75,249.8s21.02-10.71,33.38-12.77c12.36-2.06,112.91-16.89,135.16-21.43,22.25-4.53,53.89-10.98,53.89-10.98l-.64,5.08,30.4.13-17.72,38.73-22.25,45.74,25.96-66.76-21.43-2.47s-54.8,2.06-75.41,4.12c-20.6,2.06-105.49,16.07-105.49,16.07l-35.85,4.53Z"/>
      <path class="cls-1" d="M925.84,258.04l-28.85,11.54s-20.19,5.77-29.67,1.24l-6.59-12.77s-18.54-8.65-20.19-10.71c0,0,23.49,9.07,32.55,9.07s31.45-5.68,31.45-5.68l21.29,7.33Z"/>
      <path class="cls-1" d="M1219.23,41.29c.82-4.94.62-14.63.62-14.63"/>
      <path class="cls-1" d="M1218.46,26.36l-.05,3.39s-183.78-5.36-185.02-5.36l-16.33-5.54,164.79,1.17c4.71.03,9.42.54,14.03,1.53l22.58,4.82Z"/>
      <path class="cls-1" d="M1216.35,35.93l-.69,5.19-.05.09-152.96-3.22s.26.15.75.43l-11.95-5.31,164.9,2.82Z"/>
      <polygon class="cls-1" points="921.3 429.46 1060.58 379.6 1059.35 368.47 1105.5 363.53 1134.34 370.53 1151.65 369.3 943.97 438.11 929.13 442.64 927.9 432.75 921.3 429.46"/>
      <path class="cls-1" d="M238.09,192.52s80.35-44.92,129.39-53.57c-3.03-.12-63.54,27.46-87.77,51.1l-41.62,2.47Z"/>
      <path class="cls-1" d="M285.07,191.28s77.47-46.15,116.62-53.98c0,0-60.16,38.32-66.34,43.27,0,0,9.48.82,11.13.41l-21.84,10.3h-39.56Z"/>
      <path class="cls-1" d="M377.37,196.64c1.24-.82,79.12-31.32,203.56-54.81,0,0-121.97,46.98-128.98,50.68l14.86,2.79c1.37.26,1.52,2.15.21,2.63l-25.73,9.33c-1.66.6-3.45.75-5.19.42l-58.75-11.04Z"/>
      <path class="cls-1" d="M444.13,209.82s121.15-37.91,153.7-44.92c32.55-7.01,77.47-13.6,77.47-13.6,0,0-80.77,13.6-168.54,56.04l-29.22,9.99c-2.17.74-4.51.8-6.71.17l-26.7-7.68Z"/>
      <path class="cls-1" d="M827.58,157.98s-153.52,24.23-180.3,30.83c-26.78,6.59-166.89,39.15-219.22,86.95l37.52,15.3s71.27-49.91,152.86-70.51c6.18-2.06,20.19-11.54,33.38-14.83,13.19-3.3,110.43-27.2,122.38-23.9,0,0,38.35-7.15,40.39-8.31,2.05-1.16,9.93-5.13,12.99-15.51Z"/>
      <path class="cls-1" d="M117.36,288.12s39.15-71.29,70.88-89.42c0,0-17.72,20.6-19.78,23.49,0,0,68.4-51.51,112.08-64.28,0,0-108.37,62.63-125.68,81.59-17.31,18.96-37.5,48.62-37.5,48.62Z"/>
      <path class="cls-1" d="M401.15,268.68c10.29-4.79,20.61-9.41,30.97-13.96,10.37-4.54,20.77-8.99,31.24-13.28,10.47-4.28,20.98-8.49,31.61-12.39,10.62-3.9,21.32-7.64,32.21-10.74h0c.23-.07.47.07.53.29.06.22-.06.46-.28.53-10.77,3.4-21.32,7.41-31.81,11.59-10.49,4.18-20.85,8.67-31.17,13.23-10.33,4.57-20.58,9.29-30.79,14.11-10.21,4.82-20.39,9.72-30.47,14.76l-.04.02c-1.14.57-2.53.11-3.09-1.03-.57-1.14-4.46-.83-3.32-1.4.02,0,4.39-1.71,4.41-1.72Z"/>
      <path class="cls-1" d="M282.6,190.46l26.78-20.19,32.97-20.19s-30.91,22.66-31.73,23.08c-.82.41-28.02,17.31-28.02,17.31Z"/>
      <polygon class="cls-1" points="841.11 464.25 852.08 468.19 854.15 423.89 844.9 455 841.11 464.25"/>
      <polygon class="cls-1" points="872.68 184.28 880.51 183.45 885.04 187.16 882.57 204.06 871.44 190.46 872.68 184.28"/>
      <path class="cls-1" d="M316.18,351.37c-1.65,2.88-6.18,4.53-6.18,4.53,0,0-22.66,10.71-34.2,15.25-11.54,4.53-21.43,13.19-30.49,14.01-4.49.41-34.95-5.45-64.55-11.47-21.39-4.35-42.35-8.78-52.73-10.99-4.2-.89-7.47-4.18-8.36-8.39-2.27-10.78-5.86-32.16-3.17-49.79.28-1.88.64-3.71,1.08-5.49l4.12-.82s18.54,28.84,22.66,30.08c4.12,1.24,127.74,21.84,130.21,21.02,1.79-.6,9.21-3.79,15.04-6.61,2.21-1.07,4.2-2.08,5.56-2.87,4.94-2.88,14.83-10.3,14.83-10.3,0,0,1.85,2.16,3.28,4.21.91,1.3,1.66,2.57,1.66,3.21,0,1.65,2.88,11.54,1.24,14.42Z"/>
      <path class="cls-1" d="M289.61,342.7l-2.68,6.61s-22.66,16.9-28.02,20.6c-5.36,3.71-14.42,2.88-14.42,2.88,3.71-.82,9.48-7.01,11.13-12.36,1.65-5.36-25.55-4.94-38.73-7.83-13.19-2.88-66.34-11.95-67.99-11.54-1.65.41,0,5.36,3.71,11.54,3.68,6.12,44.14,15.08,44.9,15.24-.54-.09-18.01-2.94-37.07-6.59-19.37-3.71-32.14-7.42-34.61-9.48-2.47-2.06-.82-3.3-.82-3.3,0,0,13.19-12.36,13.19-15.25s-8.24-3.3-11.54-9.07c-3.3-5.77-8.85-18.7-8.85-18.7l-1.29-.95c.28-1.88.64-3.71,1.08-5.49l4.12-.82s18.54,28.84,22.66,30.08c4.12,1.24,127.74,21.84,130.21,21.02,1.79-.6,9.21-3.79,15.04-6.61Z"/>
      <path class="cls-1" d="M317,352.19c-1.65,2.88-6.18,4.53-6.18,4.53,0,0-22.66,10.71-34.2,15.25-11.54,4.53-21.43,13.19-30.49,14.01-4.49.41-34.95-5.45-64.55-11.47,27.11,3.9,57.06,8.17,57.96,8.17,1.65,0,6.18,0,12.36-1.65,5.55-1.48,52.71-38.91,62.21-46.47.91,1.3,1.66,2.57,1.66,3.21,0,1.65,2.88,11.54,1.24,14.42Z"/>
      <path class="cls-1" d="M75.62,265.52l-2.79,3.29c-2.78,3.27-3.56,7.79-2.03,11.8l7.98,20.91c.63,1.66,3.26,2.15,3.88.49,7.95-21.4,56.95-81.46,75.49-92.18,18.54-10.71,63.87-38.73,63.87-38.73l-30.98,10.88s-37.43,17.55-43.61,22.09c-6.18,4.53-23.3,17.33-25.45,18.97-2.16,1.64-46.36,42.5-46.36,42.5Z"/>
      <path class="cls-1" d="M659.18,244.08l-75.4,58.48-3.25.39s13.19-18.13,13.19-19.37-1.38-6.55-2.55-6.57c-1.16-.02-5.99,1.03-7.08,2.15-1.09,1.12-8.51,11.84-8.51,11.84h-9.48s7.01-13.19,4.12-13.19-4.6-.8-4.6-.8l.48-5.79,17.31-7.42,44.92-7.42,22.55-12,8.31-.31Z"/>
      <path class="cls-1" d="M646.04,247.32l-22.66-16.48s13.87-7.08,16-7.25c2.13-.17,21.5-1.41,21.91,3.13.41,4.53-2.23,10.3-2.23,10.3l-13.01,10.3Z"/>
      <path class="cls-1" d="M623.38,230.84s21.43,12.36,21.43,14.83c0,0-11.54,6.59-14.42,7.42-2.88.82-56.45-.41-56.45-.41l49.45-21.84Z"/>
      <g>
        <path class="cls-1" d="M174.84,185.31c-7.83,2.06-23.49,11.54-29.67,15.25-6.18,3.71-28.43,26.37-38.32,32.55-9.89,6.18-32.97,32.97-32.97,32.97,0,0,12.36,2.06,16.89,3.3,4.53,1.24,5.36,9.07,5.36,9.07,0,0,3.71-5.36,2.06-6.18-1.65-.82-2.47-13.6-2.06-14.83.41-1.24,13.19-6.59,13.19-6.59l-1.24,9.48,10.71-18.96s-.82-4.94-.41-9.48c.41-4.53,8.24-8.24,12.77-10.71,4.53-2.47,12.36-.82,12.36-.82,0,0,5.77-9.89,9.07-14.01,3.3-4.12,42.03-25.14,42.03-25.14,0,0-11.95,2.06-19.78,4.12Z"/>
        <path class="cls-1" d="M132.81,223.63c-2.88-2.06-11.54,6.59-12.36,8.24-.82,1.65.41,3.71,2.88,4.95,2.47,1.24,8.65-6.59,9.89-9.07,1.24-2.47-.08-3.88-.41-4.12Z"/>
      </g>
      <path class="cls-1" d="M690.34,214.56c-5.36,0-39.15,4.12-39.15,4.12l-29.67,10.3-58.51,23.49s-11.13,2.88-14.83,3.71c-3.12.69-68.41,37.28-89.01,48.86-4.36,2.45-6.34,7.72-4.55,12.39,1.76,4.6,4.49,8.98,6.2,10.45,2.88,2.47,9.48-.82,9.48-.82,0,0-2.61-18.28-.41-20.19,9.48-8.24,63.46-31.32,70.05-33.79,5.66-2.12,70.23-9.71,88.4-11.82,3.12-.36,6.11-1.42,8.77-3.09l69.31-43.61h-16.07ZM631.83,250.83c-4.94,1.65-52.33,1.24-52.33,1.24,0,0,58.51-27.2,64.28-28.43,5.16-1.11,37.74-4.86,44.51-5.63.28-.03.41.34.17.49-7.49,4.44-52.1,30.83-56.63,32.33Z"/>
      <path class="cls-1" d="M511.91,291.21s7.42,4.95,7.83,11.54c.41,6.59.82,11.95-2.88,12.77s-11.13-3.71-10.71-9.48c.41-5.77,2.06-13.6,5.77-14.83Z"/>
      <g>
        <path class="cls-1" d="M541.99,272.72c-.82.46-57.41,25.8-57.41,25.8,0,0-8.52,9.18-10.17,12.88-1.65,3.71-.82,10.3,0,13.19.82,2.88,19.37,3.71,19.37,3.71l65.52-3.71,25.55-22.66s-29.67-.41-31.32-1.65c-1.65-1.24-9.07-10.3-8.65-15.66.19-2.5,12.77-10.71,14.01-11.13,1.24-.41,54.39-1.65,56.87-2.06,2.47-.41,15.26-10.57,15.26-10.57,0,0-88.2,11.39-89.02,11.85ZM541.58,292.03s-12.36,8.24-13.6,10.71c-1.24,2.47-6.18,12.77-8.24,14.01-2.06,1.24-9.89,4.94-9.89,4.94,0,0-2.47,2.47-4.53.41l3.71-2.06s-7.83-5.77-7.83-13.6,1.24-12.36,2.47-13.6c1.24-1.24,11.54-5.77,11.54-5.77,0,0,6.18-2.47,11.54-2.47s14.83,1.24,15.25,2.47c.41,1.24-.41,4.94-.41,4.94Z"/>
        <path class="cls-1" d="M563.42,276.37c-5.36.82-14.83,9.48-14.83,10.3s6.18,10.3,6.18,10.3l12.36.41s0-3.71.82-4.95c.82-1.24,7.01-12.77,7.01-14.83s-6.18-2.06-11.54-1.24Z"/>
        <path class="cls-1" d="M587.32,277.2c-2.06.41-11.13,6.59-14.01,10.71-2.88,4.12,6.59,11.95,6.59,11.95h4.94c1.65,0,9.48-6.18,10.71-8.24,1.24-2.06,1.65-12.36,1.24-13.6-.41-1.24-7.42-1.24-9.48-.82Z"/>
      </g>
      <path class="cls-1" d="M130.34,299.86s16.07,25.96,18.13,26.78c2.06.82,123.62,20.19,126.09,19.78,2.47-.41,30.91-16.48,32.14-17.31,1.24-.82,0-3.71,0-3.71l-174.87-27.59c-1.14-.18-2.01,1.01-1.49,2.04h0Z"/>
      <path class="cls-1" d="M349.15,430.49s-33.79-.41-47.8-2.06c-14.01-1.65-98.07-14.01-105.9-15.66-7.83-1.65-105.08-23.49-113.32-25.55-5.98-1.5-9.68-6.57-11.27-9.25-.59-1-.89-2.13-.89-3.29v-23.93s-.82-3.71-1.24-5.77c-.07-.37.56-.87,1.66-1.43,5-2.54,19.57-6.48,20.59-6.82,1.24-.41,24.72.41,24.72.41,0,0,3.09,12.98,3.95,17.16.86,4.18,6.72,8.47,6.72,8.47,0,0,116.87,23.61,119.75,23.2,2.88-.41,20.38-10.46,20.38-10.46l22.81-9.77s12.85,1.69,21.09,1.69,20.6,4.53,22.25,6.18c1.65,1.65,6.59,15.25,7.42,16.07.82.82,9.07,40.79,9.07,40.79Z"/>
      <path class="cls-1" d="M307.94,395.46s-14.01,3.71-36.26,1.24c-22.25-2.47-117.44-18.54-138.04-23.08-20.6-4.53-51.71-10.92-56.04-14.42-1.16-.94-4.49-3.47-7.62-6.25v-2.2c-1.85-.51-1.34-3.85-1.24-5.77.02-.38.56-.87,1.66-1.43.28.66,6.43,12.89,22.85,17.29,16.89,4.53,122.18,22.87,125.89,23.69,3.71.82,69.02,9.68,70.26,10.1,1.24.41,18.54.82,18.54.82Z"/>
      <path class="cls-1" d="M72.24,357.96l-.41,16.9s1.24,6.18,6.59,8.24v-20.6s-5.36-2.47-6.18-4.53Z"/>
      <path class="cls-1" d="M92.43,312.64l-5.77,13.6-22.66,17.72.82,28.85,3.71,2.88s7.94,9.9,9.33,10.31c1.39.41,15.81,5.76,15.81,5.76l11.74,120.12c-24.74-7.33-48.39-15-63.66-23.69l7.83-3.71.82-7.01s11.54-7.01,11.54-11.54-5.36-124.86-5.36-124.86c0,0,30.91-26.78,35.85-28.43Z"/>
      <polygon class="cls-1" points="166.81 525.88 147.23 519.08 123.26 467.08 122.92 466.34 136.19 399.83 140.93 400.89 155.8 404.21 155.68 405.97 166.81 525.88"/>
      <path class="cls-1" d="M140.93,400.89l-11.95,66.31c-.15.85-1.02,1.37-1.84,1.11l-3.87-1.23-.34-.75,13.27-66.5,4.74,1.06Z"/>
      <polygon class="cls-1" points="205.54 416.68 213.37 451.71 278.48 464.9 270.24 426.16 205.54 416.68"/>
      <polygon class="cls-1" points="277.65 426.57 285.48 464.48 343.17 477.67 351.41 441.82 348.12 432.34 309.79 431.11 277.65 426.57"/>
      <path class="cls-1" d="M351.41,441.82l-14.45,74.26c-.11.54.2,1.08.72,1.27l2.29.83c.7.26,1.46-.18,1.6-.91l12.51-66.18-2.68-9.27Z"/>
      <polygon class="cls-1" points="33.5 444.09 8.37 451.5 7.54 447.79 33.5 439.14 33.5 444.09"/>
      <path class="cls-1" d="M3.83,451.5s7.42,11.13,8.24,11.13,22.66-1.24,22.66-1.24l4.94,6.18,9.89,16.89-10.3,4.94s78.71,27.2,89.42,30.08c10.71,2.88,125.27,27.61,147.52,30.49l.48.12c2.83.71,5.22,2.61,6.55,5.21l5.8,11.38c1.49,2.92,4.42,4.84,7.7,5.03,25.56,1.52,136.09,8.02,161.19,8.75,0,0-23.08,5.36-54.39,4.94-27.14-.36-95.43-5.97-113.17-7.47-2.64-.22-4.97-1.83-6.12-4.22l-6.57-13.68c-.92-1.92-2.71-3.28-4.81-3.66-19.83-3.56-122-22.05-145.42-29.48-25.96-8.24-93.95-31.32-93.95-31.32l-11.01,8.87c-2.18,1.75-5.39,1.33-7.01-.95-5.7-7.98-16.61-27.19-11.65-52.01Z"/>
      <path class="cls-1" d="M56.37,425.75l-16.04,11.85c-1.46,1.08-3.54.38-4.06-1.36-7.16-24.3-10.6-79.74-11.14-89.09-.02-.39.48-.57.71-.25,4.09,5.63,15.86,20.62,20,25.88.92,1.17,1.47,1.86,1.47,1.86l3.75,4.85c2.12,2.74,3.35,6.07,3.51,9.54l1.48,30.27.32,6.44Z"/>
      <path class="cls-1" d="M56.05,419.3c-4.38-13.89-8.68-37.63-10.22-46.51.92,1.17,1.47,1.86,1.47,1.86l3.75,4.85c2.12,2.74,3.35,6.07,3.51,9.54l1.48,30.27Z"/>
      <path class="cls-1" d="M507.59,515.58s-106.31,26.37-104.67,28.43c1.65,2.06,65.11,7.42,89.01,8.24,9.93.34,17.86.8,23.75.66,10.04-.25,15.77-7.99,17.05-15.08l.41-13.19-25.55-9.07Z"/>
      <path class="cls-1" d="M467.62,437.29h0c-6.72.43-11.48,6.75-10.05,13.33l12.67,58.11c.93,4.28,3.92,7.83,7.99,9.48l53.72,21.78,1.19-15.34-34.28-14.89c-4.08-1.77-7.03-5.44-7.88-9.8l-10.34-52.72c-.57-2.89,1.5-5.64,4.44-5.89l32.82-2.82s11.13,1.24,12.77,3.3c0,0-8.24-7.42-18.13-7.42s-44.92,2.88-44.92,2.88Z"/>
      <path class="cls-1" d="M502.36,114.7l-.76-6.62c-.25-2.18.71-4.32,2.51-5.58,15.42-10.81,87.07-60.9,95.16-63.47,0,0,90.24-2.06,91.48-1.65,1.24.41,1.65,8.24,2.47,8.65l1.65.82s-28.43,46.56-30.9,56.87l-152.05,16.07-4.79-.44c-2.49-.23-4.48-2.17-4.76-4.65Z"/>
      <path class="cls-1" d="M732.37,60.04l-9.68,29.46-23.39.97c-2.1.03-3.67-1.91-3.2-3.96.79-3.44,2.17-8.28,4.14-11.23,1.99-2.99,7.13-10.48,10.9-15.94,2.53-3.68,7.29-5.09,11.42-3.37l9.82,4.07Z"/>
      <path class="cls-1" d="M650.57,130.3l-80.35-5.36.82-4.12,20.19-1.24,49.45,6.59s-4.12-7.42-18.13-9.89c-14.01-2.47-23.08.82-23.08.82h-6.59s11.9-7.07,27.2-5.36c15.63,1.75,23.31,6.31,25.96,10.3,2.42,3.65,8.24,7.01,8.24,7.01h39.97c1.65,0,21.84,5.36,21.84,5.36l-65.52-4.12Z"/>
      <path class="cls-1" d="M800.79,115.6c-1.27-3.47-2.97-8.16-4.76-13.33-3.71-10.71-6.18-28.02-6.18-33.38s1.46-17.45-1.24-18.54c-7.62-3.09-27.2-2.06-27.2-2.06,0,0-20.19.41-25.55,4.94-1.13.96-12.77,36.67-12.77,36.67,0,0-.82,4.94-6.18,8.24-5.36,3.3-35.03,10.71-42.03,13.19-7.01,2.47,2.06,12.36,2.06,12.36l2.06,2.47,28.43-2.47s7.83.82,11.95.82,16.48,5.77,16.48,5.77l61.81,7.01,3.24-9.48c1.36-3.97,1.31-8.28-.13-12.21ZM748.44,104.13c-2.47,2.88-13.19,8.65-14.83,8.65s-5.36-3.71-4.94-6.18c.41-2.47,14.42-14.83,17.72-12.77,0,0,4.53,7.42,2.06,10.3ZM782.32,114.22c-1.54,0-11.55-5.46-13.86-8.19-2.31-2.73,1.92-9.75,1.92-9.75,3.08-1.95,16.16,9.75,16.55,12.09.39,2.34-3.08,5.85-4.62,5.85Z"/>
      <path class="cls-1" d="M810.25,42.32s31.55,25.87,41.64,35.93c2.08,2.07,4.86,3.3,7.79,3.41l12.76.49c2.28.09,4.41-1.16,5.45-3.19l14.88-29.08c.53-1.04-.18-2.29-1.34-2.36l-81.18-5.2Z"/>
      <polygon class="cls-1" points="854.76 147.81 919.04 22.95 915.33 22.54 851.05 149.04 854.76 147.81"/>
      <path class="cls-1" d="M947.88,27.07h3.71c-1.49-2.22-48.09,89.82-53.98,110.43,0,0,27.61-79.53,50.27-110.43Z"/>
      <path class="cls-1" d="M947.68,34.28l51.1,2.88,19.78,3.71,25.55,10.3-8.54,25.87c-1.62,5.18-6.71,8.46-12.1,7.79l-23.66-2.96-7.26-19.57c-2.22-5.99-7-10.74-13.09-12.69-2.81-.9-6.18-1.53-10.15-1.53-14.42,0-29.88,1.03-29.88,1.03l8.24-14.83Z"/>
      <polygon class="cls-1" points="1048.02 67.87 1053.78 87.23 1043.48 85.17 1048.02 67.87"/>
      <path class="cls-1" d="M1070.68,88.88l-5.27-18.32c-.99-3.43,2.56-6.41,5.77-4.84,8.65,4.24,20.94,10.41,20.94,11.21,0,1.24,10.3,13.6,10.3,13.6l-31.73-1.65Z"/>
      <path class="cls-1" d="M941.91,127.82s2.47-12.36,3.71-14.83c1.24-2.47,7.42-11.54,11.54-12.36,4.12-.82,10.71-2.47,20.6-.41,9.89,2.06,34.61,3.71,46.98,12.36,0,0-13.19-2.47-14.83-3.3-1.65-.82-27.61-4.53-34.2-5.77-6.59-1.24-16.89-1.65-20.6.82-3.71,2.47-6.59,11.54-6.59,11.54l-2.06,14.01-4.53-2.06Z"/>
      <path class="cls-1" d="M1003.72,140.18l12.98-.28c3.51-.08,6.6-2.33,7.76-5.65.59-1.7,1.19-3.22,1.52-3.55.82-.82,1.24-1.24,2.88-2.06,1.65-.82,2.47-4.12,2.47-5.77,0-1.08-6.06-.92-10.21-.68-2.34.13-4.44,1.48-5.54,3.55l-5.68,10.73-6.18,3.71Z"/>
      <polygon class="cls-1" points="943.97 129.31 1006.19 124.94 948.5 115.87 943.97 129.31"/>
      <path class="cls-1" d="M952.21,141.42s3.71-5.36,19.78-6.18c16.07-.82,28.85-.82,28.85-.82l-12.36,4.94-36.26,2.06Z"/>
      <path class="cls-1" d="M983.53,59.83c-4.53-4.12-48.26-.72-48.26-.72-6.22,5.46-24.23,47.4-24.23,47.4l6.14,23.37,14.42,12.77,5.77-.82s5.77-22.66,10.01-31.11c4.24-8.45,18.43-11.59,18.43-11.59l34.23,4.21s-11.99-39.4-16.52-43.52ZM939.02,112.16c-4.12,3.71-11.13,12.36-14.83,8.24-3.71-4.12-4.94-8.24-1.65-11.13,3.3-2.88,12.77-11.13,15.66-7.83,0,0,4.94,7.01.82,10.71Z"/>
    </g>
  </g>
</svg>