<?xml version="1.0" encoding="UTF-8"?>
<svg id="Layer_2" data-name="Layer 2" xmlns="http://www.w3.org/2000/svg" viewBox="0 0 150 150">
  <defs>
    <style>
      .cls-1 {
        fill: #fff;
      }
    </style>
  </defs>
  <g id="_レイヤー_2" data-name="レイヤー 2">
    <g>
      <path class="cls-1" d="M67.4,9.81c.15.86.05,1.63-.31,2.31-.23.46-.61.82-1.14,1.08-.28.14-.62.24-1.01.31-.73.12-1.36.04-1.9-.25-.45-.23-.83-.58-1.14-1.05-.31-.47-.55-1.03-.69-1.68l1.75-.42c.2.71.47,1.19.82,1.47.26.21.54.28.82.22.4-.08.7-.33.88-.76.09-.21.11-.49.05-.85-.08-.51-.4-.98-.95-1.41-.42-.29-1.06-.72-1.9-1.3-.71-.5-1.23-.96-1.57-1.39-.36-.49-.59-1.04-.69-1.66-.18-1.12.06-2.03.72-2.73.41-.42.96-.69,1.64-.8.66-.11,1.25-.05,1.77.17.4.17.75.44,1.05.82.29.38.51.83.64,1.36l-1.73.61c-.13-.5-.34-.87-.62-1.11-.2-.18-.47-.24-.79-.18-.34.06-.57.25-.7.58-.1.27-.13.58-.07.94.09.56.43,1.1,1.01,1.6.22.19.54.41.95.65.49.29.82.5.98.62.53.38.96.78,1.28,1.18.15.19.28.37.38.53.25.41.4.79.47,1.13Z"/>
      <path class="cls-1" d="M72.44,12.77c-.83.03-1.54-.23-2.15-.79-.6-.56-.92-1.25-.95-2.07l-.27-6.81c-.03-.83.23-1.55.79-2.15.56-.6,1.25-.92,2.07-.95.83-.03,1.54.23,2.14.79.6.56.92,1.25.95,2.08l.06,1.42-1.95.08-.06-1.46c-.01-.3-.13-.55-.35-.75-.22-.2-.48-.3-.78-.29-.3.01-.55.13-.75.35-.2.22-.3.48-.28.78l.27,6.83c.01.3.13.55.34.75.22.2.48.3.77.28.3-.01.55-.13.75-.34.2-.22.3-.48.29-.77l-.07-1.72,1.95-.08.07,1.74c.03.83-.23,1.54-.79,2.14-.56.6-1.25.92-2.07.95Z"/>
      <path class="cls-1" d="M80.93.32c1.05.09,1.79.44,2.23,1.05.39.54.55,1.26.47,2.16l-.15,1.81c-.07.88-.47,1.6-1.19,2.15l.94,5.54-2.03-.17-.75-4.78c-.05,0-.11,0-.17-.01l-1.08-.09-.38,4.68-1.88-.15L77.97.08l2.96.24ZM81.8,3.41c.06-.72-.27-1.11-.98-1.17l-1.13-.09-.33,3.98,1.13.09c.3.02.56-.06.79-.26.23-.19.35-.44.38-.74l.15-1.82Z"/>
      <path class="cls-1" d="M90.26,1.5c.81.17,1.44.6,1.89,1.29s.59,1.44.42,2.24l-1.39,6.67c-.17.81-.6,1.44-1.29,1.89-.69.45-1.44.59-2.24.42-.81-.17-1.44-.6-1.89-1.29-.45-.69-.59-1.44-.42-2.24l1.39-6.67c.17-.81.6-1.44,1.29-1.89.69-.45,1.43-.59,2.23-.43ZM90.66,4.59c.06-.29,0-.56-.15-.81-.16-.25-.39-.4-.68-.46-.29-.06-.56-.01-.81.15s-.41.39-.47.68l-1.39,6.69c-.06.29,0,.56.16.81.17.25.4.4.69.46.29.06.56.01.81-.15.25-.16.4-.39.46-.68l1.39-6.69Z"/>
      <path class="cls-1" d="M96.97,16.51l-4.87-1.61,3.92-11.85,1.79.59-3.33,10.07,3.08,1.02-.59,1.78Z"/>
      <path class="cls-1" d="M103.1,19.21l-4.67-2.13,5.17-11.36,1.71.78-4.39,9.65,2.95,1.35-.78,1.7Z"/>
      <path class="cls-1" d="M114.15,22.56c-.46.68-1.1,1.1-1.9,1.26-.81.16-1.55,0-2.22-.45l-2.44-1.66,7.03-10.32,2.44,1.66c.68.46,1.09,1.1,1.24,1.9.15.81-.01,1.55-.47,2.22l-3.67,5.39ZM110.19,21.22l.94.64c.25.17.52.22.81.16.29-.06.52-.21.68-.46l3.68-5.4c.17-.25.22-.52.17-.81-.05-.29-.2-.52-.44-.69l-.94-.64-4.9,7.19Z"/>
      <path class="cls-1" d="M124.27,18.42c.63.55.96,1.23,1.02,2.05.05.82-.19,1.54-.73,2.16l-4.48,5.13c-.55.63-1.23.96-2.05,1.02-.82.05-1.54-.19-2.16-.73-.62-.55-.96-1.23-1.01-2.05-.05-.82.19-1.54.74-2.16l4.48-5.13c.55-.63,1.23-.96,2.05-1.02.82-.05,1.54.19,2.16.73ZM123.1,21.32c.2-.23.28-.49.26-.78-.02-.29-.14-.54-.37-.74-.22-.2-.49-.29-.78-.27-.3.02-.54.14-.74.36l-4.49,5.15c-.2.23-.28.49-.26.78.02.3.15.54.37.74s.48.28.78.26.54-.14.74-.37l4.49-5.15Z"/>
      <path class="cls-1" d="M133.84,28.64l1.28,1.5-10.76,6.61-1.16-1.36,4.53-5.27-5.87,3.69-1.17-1.37,8.14-9.68,1.28,1.5-4.45,5.08,5.67-3.64,1.28,1.5-4.44,5.08,5.67-3.63Z"/>
      <path class="cls-1" d="M138.13,34.75l-5.83,6.53,7.14-4.41.99,1.6-10.63,6.56-1.06-1.72,5.44-6.4-6.8,4.2-.99-1.6,10.62-6.56,1.11,1.8Z"/>
      <path class="cls-1" d="M137.21,54.3c-.81.33-1.58.38-2.32.17-.5-.13-.93-.43-1.29-.89-.19-.25-.36-.55-.51-.93-.27-.69-.32-1.32-.15-1.91.13-.49.4-.93.79-1.34.4-.41.89-.75,1.5-1.02l.77,1.63c-.65.34-1.07.71-1.27,1.11-.15.3-.16.58-.05.85.16.38.47.61.92.7.23.05.51,0,.84-.12.48-.19.88-.59,1.19-1.22.19-.47.49-1.18.88-2.13.34-.8.69-1.41,1.04-1.82.4-.45.9-.79,1.48-1.02,1.06-.41,2-.36,2.82.14.5.31.87.79,1.12,1.44.24.63.31,1.21.2,1.77-.08.43-.28.83-.59,1.19-.31.36-.71.67-1.2.91l-.96-1.56c.46-.23.78-.51.96-.84.13-.24.14-.5.02-.81-.12-.32-.36-.51-.71-.57-.28-.05-.59,0-.93.13-.53.21-.99.64-1.36,1.32-.14.25-.29.61-.44,1.07-.18.54-.32.9-.4,1.08-.27.6-.56,1.1-.89,1.5-.16.19-.3.35-.44.48-.35.33-.69.56-1.01.69Z"/>
      <path class="cls-1" d="M135.34,59.83c-.2-.81-.09-1.56.33-2.26.42-.7,1.03-1.16,1.83-1.36l6.6-1.66c.8-.2,1.56-.09,2.27.34.7.43,1.16,1.04,1.36,1.84.2.8.09,1.56-.34,2.26-.43.7-1.04,1.15-1.84,1.35l-1.38.35-.47-1.89,1.42-.36c.29-.07.51-.24.67-.5.15-.26.19-.53.12-.82-.07-.29-.24-.51-.49-.66-.26-.15-.53-.19-.82-.12l-6.62,1.66c-.29.07-.51.24-.66.49-.15.25-.19.53-.12.82.07.29.24.51.49.67.25.16.53.2.82.12l1.67-.42.47,1.89-1.69.42c-.8.2-1.56.09-2.26-.34-.7-.43-1.15-1.04-1.35-1.83Z"/>
      <path class="cls-1" d="M149.25,65.6c.13,1.04-.06,1.84-.58,2.4-.45.49-1.12.79-2.02.9l-1.8.22c-.88.11-1.66-.13-2.35-.72l-5.23,2.05-.25-2.02,4.53-1.71c0-.05-.01-.11-.02-.17l-.13-1.08-4.66.57-.23-1.87,12.38-1.52.36,2.95ZM146.41,67.09c.72-.09,1.03-.49.95-1.2l-.14-1.13-3.96.49.14,1.13c.04.3.17.54.41.72.24.18.5.25.8.22l1.81-.22Z"/>
      <path class="cls-1" d="M150,74.71c.01.83-.27,1.54-.84,2.13-.57.59-1.27.89-2.1.91l-6.81.11c-.83.01-1.54-.27-2.13-.84-.59-.57-.89-1.27-.91-2.1-.01-.83.27-1.54.84-2.12.57-.59,1.27-.89,2.1-.9l6.81-.11c.83-.01,1.54.27,2.13.84.59.57.89,1.27.9,2.09ZM147.07,75.79c.3,0,.55-.11.76-.33.21-.21.31-.47.3-.77s-.11-.55-.33-.76c-.21-.21-.47-.31-.77-.31l-6.83.11c-.3,0-.55.12-.76.33-.21.22-.31.47-.3.77s.11.55.33.76c.21.21.47.31.77.3l6.83-.11Z"/>
      <path class="cls-1" d="M136.69,84.6l.57-5.1,12.4,1.39-.21,1.87-10.54-1.18-.36,3.23-1.86-.21Z"/>
      <path class="cls-1" d="M135.32,91.16l1.11-5.01,12.18,2.71-.41,1.84-10.35-2.3-.7,3.17-1.83-.41Z"/>
      <path class="cls-1" d="M134.32,102.68c-.76-.31-1.3-.85-1.62-1.61-.32-.76-.32-1.51-.01-2.27l1.13-2.73,11.54,4.76-1.13,2.73c-.31.76-.85,1.3-1.61,1.6-.76.31-1.52.31-2.27,0l-6.03-2.49ZM134.81,98.53l-.43,1.05c-.11.28-.11.55.01.82.12.27.32.46.59.58l6.04,2.49c.28.11.55.11.83,0,.28-.11.47-.3.58-.57l.43-1.05-8.04-3.32Z"/>
      <path class="cls-1" d="M140.44,111.72c-.41.72-1.01,1.2-1.8,1.42-.79.22-1.55.13-2.27-.27l-5.94-3.33c-.72-.41-1.2-1.01-1.42-1.8-.22-.79-.13-1.55.27-2.27.41-.72,1.01-1.19,1.8-1.41s1.55-.13,2.26.28l5.94,3.33c.72.41,1.19,1.01,1.42,1.8.22.79.13,1.55-.27,2.26ZM137.37,111.17c.26.15.53.18.82.1s.5-.25.65-.51c.15-.26.18-.53.1-.82-.08-.29-.25-.5-.51-.65l-5.96-3.34c-.26-.15-.53-.18-.82-.09-.29.08-.5.25-.65.52s-.18.53-.1.82c.08.28.25.5.51.65l5.96,3.34Z"/>
      <path class="cls-1" d="M132.37,123.22l-1.21,1.56-8.66-9.19,1.1-1.42,6.08,3.36-4.81-5,1.1-1.42,11.13,6-1.21,1.56-5.88-3.32,4.72,4.81-1.21,1.56-5.88-3.32,4.71,4.82Z"/>
      <path class="cls-1" d="M127.28,128.65l-7.58-4.37,5.77,6.09-1.37,1.29-8.59-9.06,1.47-1.39,7.38,4.02-5.5-5.8,1.37-1.29,8.59,9.06-1.53,1.45Z"/>
      <path class="cls-1" d="M107.98,131.74c-.48-.72-.7-1.47-.65-2.24.03-.52.23-1,.6-1.45.2-.24.47-.47.8-.69.62-.4,1.23-.58,1.84-.54.5.03.99.2,1.47.5.48.3.91.72,1.31,1.26l-1.43,1.08c-.46-.57-.91-.9-1.35-1.01-.32-.08-.6-.04-.84.13-.34.24-.5.58-.5,1.05,0,.23.1.5.29.8.28.43.76.74,1.43.91.5.09,1.26.23,2.27.42.85.17,1.52.38,1.99.64.53.3.96.71,1.31,1.24.62.95.77,1.88.45,2.79-.2.55-.6,1.02-1.18,1.4-.56.37-1.12.55-1.69.56-.44,0-.87-.1-1.29-.33-.42-.23-.8-.55-1.13-.99l1.33-1.26c.32.4.66.65,1.02.76.26.08.52.03.79-.15.29-.19.43-.46.41-.81-.01-.29-.12-.58-.31-.89-.31-.48-.83-.83-1.57-1.06-.28-.09-.66-.16-1.14-.21-.57-.07-.95-.12-1.14-.17-.64-.14-1.19-.33-1.65-.57-.22-.11-.4-.22-.56-.34-.39-.28-.69-.56-.88-.85Z"/>
      <path class="cls-1" d="M102.2,131.05c.75-.36,1.51-.41,2.28-.14.78.27,1.35.77,1.71,1.51l2.99,6.12c.36.75.41,1.51.14,2.29-.27.78-.78,1.35-1.52,1.71-.75.36-1.51.41-2.28.14-.78-.27-1.34-.78-1.7-1.52l-.62-1.28,1.75-.86.64,1.32c.13.27.34.45.62.55.28.1.56.08.83-.05.27-.13.45-.34.54-.62.09-.28.08-.56-.05-.83l-2.99-6.14c-.13-.27-.34-.45-.62-.55s-.55-.08-.82.05c-.27.13-.45.34-.55.62-.1.28-.08.56.05.82l.76,1.55-1.75.86-.76-1.57c-.36-.75-.41-1.51-.14-2.28.27-.78.77-1.34,1.51-1.7Z"/>
      <path class="cls-1" d="M99.4,145.87c-.99.34-1.81.32-2.47-.07-.57-.34-1-.93-1.3-1.79l-.59-1.71c-.29-.84-.21-1.65.22-2.45l-3.08-4.7,1.93-.66,2.6,4.08s.1-.04.16-.05l1.03-.35-1.52-4.45,1.78-.61,4.04,11.8-2.81.96ZM97.36,143.39c.23.68.69.91,1.37.68l1.07-.37-1.29-3.78-1.07.37c-.28.1-.49.28-.62.55-.13.27-.15.54-.05.83l.59,1.72Z"/>
      <path class="cls-1" d="M90.38,148.53c-.81.17-1.56.03-2.25-.42-.69-.45-1.12-1.08-1.29-1.89l-1.4-6.67c-.17-.81-.03-1.56.42-2.25.45-.69,1.08-1.12,1.89-1.29.81-.17,1.56-.03,2.25.42.68.45,1.11,1.08,1.28,1.89l1.4,6.67c.17.81.03,1.56-.42,2.25-.45.69-1.08,1.12-1.88,1.28ZM88.78,145.85c.06.29.22.52.46.68.25.16.52.21.81.15s.52-.22.69-.46c.17-.25.22-.52.16-.81l-1.4-6.69c-.06-.29-.22-.52-.47-.68-.25-.16-.52-.21-.81-.15-.29.06-.52.22-.68.46-.16.25-.21.52-.15.81l1.4,6.69Z"/>
      <path class="cls-1" d="M78.21,137.46l5.1-.47,1.15,12.42-1.87.17-.98-10.56-3.23.3-.17-1.86Z"/>
      <path class="cls-1" d="M71.5,137.44l5.13.08-.2,12.48-1.88-.03.17-10.6-3.25-.05.03-1.87Z"/>
      <path class="cls-1" d="M60.03,138.84c.15-.81.56-1.45,1.24-1.92.67-.47,1.41-.63,2.22-.48l2.91.54-2.27,12.28-2.91-.54c-.81-.15-1.44-.56-1.9-1.24-.46-.68-.61-1.42-.46-2.22l1.19-6.41ZM64.2,138.47l-1.12-.21c-.29-.05-.56,0-.8.18-.24.17-.39.41-.44.69l-1.19,6.42c-.05.29,0,.56.17.81.17.25.39.4.68.45l1.12.21,1.58-8.56Z"/>
      <path class="cls-1" d="M52.46,146.71c-.79-.25-1.38-.74-1.76-1.47s-.45-1.49-.2-2.27l2.03-6.5c.25-.79.74-1.38,1.47-1.76.73-.38,1.49-.45,2.27-.2.79.25,1.38.74,1.75,1.47s.44,1.49.2,2.27l-2.03,6.5c-.25.79-.74,1.38-1.47,1.76-.73.38-1.49.45-2.26.2ZM52.36,143.59c-.09.29-.07.56.07.82.14.26.35.44.63.53.28.09.56.07.83-.07.26-.14.44-.35.53-.63l2.04-6.52c.09-.29.06-.56-.08-.82-.14-.26-.35-.44-.64-.53-.28-.09-.56-.07-.82.07s-.44.35-.53.63l-2.04,6.52Z"/>
      <path class="cls-1" d="M39.53,141.16l-1.78-.87,7.22-10.36,1.61.79-2.04,6.64,3.91-5.73,1.62.79-3.59,12.13-1.77-.86,2.04-6.44-3.74,5.61-1.77-.86,2.04-6.43-3.74,5.6Z"/>
      <path class="cls-1" d="M33.18,137.29l2.73-8.32-4.78,6.9-1.55-1.07,7.12-10.26,1.66,1.15-2.43,8.05,4.56-6.57,1.55,1.07-7.12,10.26-1.74-1.2Z"/>
      <path class="cls-1" d="M26.21,119.03c.61-.62,1.29-.99,2.06-1.09.51-.08,1.03.02,1.54.29.28.15.55.36.84.64.52.52.82,1.08.9,1.69.07.5.01,1.01-.19,1.54-.2.53-.52,1.04-.96,1.54l-1.36-1.18c.46-.57.7-1.08.71-1.52.02-.33-.08-.6-.3-.8-.3-.28-.67-.37-1.13-.27-.22.05-.47.2-.72.45-.37.37-.57.9-.6,1.59.01.51.03,1.28.05,2.3.01.87-.06,1.56-.22,2.08-.18.58-.5,1.09-.95,1.53-.81.8-1.68,1.14-2.64,1.01-.58-.09-1.12-.38-1.61-.87-.47-.48-.77-.99-.9-1.54-.1-.43-.08-.87.06-1.33.14-.46.38-.89.73-1.31l1.5,1.05c-.32.4-.5.78-.54,1.15-.02.27.08.52.31.75.24.24.54.32.88.24.28-.07.55-.23.8-.49.4-.4.64-.99.72-1.75.03-.29.02-.68-.02-1.15-.05-.57-.07-.95-.07-1.16,0-.66.07-1.23.22-1.73.07-.23.14-.44.21-.62.19-.44.41-.79.65-1.04Z"/>
      <path class="cls-1" d="M25.69,113.21c.51.66.71,1.39.61,2.21-.1.82-.48,1.48-1.13,1.98l-5.38,4.18c-.66.51-1.39.71-2.21.61-.82-.11-1.48-.48-1.98-1.13-.51-.66-.71-1.39-.6-2.2.11-.81.48-1.47,1.14-1.98l1.12-.87,1.2,1.54-1.16.9c-.24.18-.37.42-.41.72-.04.3.04.57.22.8.18.24.42.37.72.41s.56-.04.8-.22l5.39-4.19c.24-.18.37-.42.41-.72s-.04-.56-.22-.79c-.18-.24-.42-.37-.72-.41-.3-.04-.56.03-.8.22l-1.36,1.06-1.2-1.54,1.38-1.07c.66-.51,1.39-.71,2.2-.6.81.11,1.47.48,1.97,1.13Z"/>
      <path class="cls-1" d="M10.62,113.52c-.54-.9-.68-1.71-.44-2.43.21-.63.71-1.17,1.48-1.64l1.56-.93c.76-.45,1.57-.55,2.44-.28l3.96-3.99,1.04,1.75-3.45,3.39s.06.09.09.15l.56.93,4.04-2.41.96,1.62-10.71,6.39-1.52-2.55ZM12.63,111.02c-.62.37-.75.86-.38,1.48l.58.97,3.43-2.05-.58-.98c-.15-.26-.37-.42-.66-.49s-.56-.03-.82.12l-1.57.93Z"/>
      <path class="cls-1" d="M6.17,105.26c-.33-.76-.35-1.52-.05-2.29.3-.77.83-1.32,1.58-1.65l6.23-2.74c.76-.33,1.52-.35,2.29-.05.77.3,1.32.83,1.65,1.58.33.76.35,1.52.05,2.29-.3.76-.83,1.31-1.58,1.64l-6.23,2.74c-.76.33-1.52.35-2.29.05-.77-.3-1.31-.82-1.64-1.57ZM8.45,103.14c-.27.12-.46.32-.57.59-.11.28-.1.55.02.82.12.27.32.47.6.58.28.11.55.11.83-.02l6.25-2.75c.27-.12.46-.32.57-.6.11-.28.1-.55-.02-.83-.12-.27-.32-.46-.59-.57-.28-.11-.55-.1-.82.02l-6.25,2.75Z"/>
      <path class="cls-1" d="M14.49,91.06l1.51,4.9-11.92,3.69-.56-1.8,10.13-3.13-.96-3.1,1.79-.55Z"/>
      <path class="cls-1" d="M13.13,84.5l.98,5.03-12.25,2.38-.36-1.85,10.41-2.02-.62-3.19,1.84-.36Z"/>
      <path class="cls-1" d="M9.43,73.55c.82-.02,1.53.25,2.13.82.6.56.9,1.25.92,2.07l.07,2.96-12.48.28L0,76.71c-.02-.82.26-1.53.83-2.11s1.26-.89,2.08-.91l6.52-.14ZM10.64,77.55l-.03-1.13c0-.3-.12-.55-.34-.75-.22-.2-.48-.3-.77-.29l-6.53.14c-.3,0-.55.12-.76.33-.21.21-.31.47-.3.76l.02,1.13,8.7-.19Z"/>
      <path class="cls-1" d="M.18,67.78c.08-.83.44-1.5,1.07-2.02.64-.52,1.36-.74,2.18-.67l6.78.65c.83.08,1.5.44,2.02,1.07.52.64.74,1.37.66,2.18-.08.83-.44,1.5-1.07,2.02-.64.52-1.36.74-2.18.66l-6.78-.65c-.83-.08-1.5-.44-2.02-1.07-.52-.64-.74-1.36-.67-2.17ZM3.21,67.04c-.3-.03-.56.05-.79.24s-.36.43-.39.73c-.03.3.05.56.24.79.19.23.43.36.73.39l6.8.65c.3.03.56-.05.79-.24.23-.19.36-.44.39-.73.03-.3-.05-.56-.24-.79-.19-.23-.43-.36-.73-.39l-6.8-.65Z"/>
      <path class="cls-1" d="M2.93,53.99l.48-1.92,11.63,4.92-.44,1.74-6.92-.63,6.41,2.64-.44,1.75-12.61-1,.48-1.91,6.72.67-6.26-2.5.48-1.91,6.71.67-6.25-2.51Z"/>
      <path class="cls-1" d="M5.41,46.94l8.7.96-7.73-3.26.73-1.73,11.5,4.86-.79,1.86-8.37-.72,7.37,3.11-.73,1.73-11.5-4.86.82-1.95Z"/>
      <path class="cls-1" d="M21.86,36.38c.73.47,1.23,1.07,1.49,1.79.18.49.19,1.01.03,1.57-.09.3-.24.62-.46.95-.4.62-.89,1.02-1.46,1.23-.47.17-.99.22-1.55.13-.56-.09-1.13-.3-1.7-.63l.88-1.57c.65.33,1.2.46,1.64.39.33-.05.57-.2.72-.46.22-.35.23-.74.03-1.16-.09-.21-.29-.42-.59-.61-.43-.29-.99-.37-1.68-.26-.5.12-1.25.29-2.24.52-.85.19-1.54.26-2.08.21-.6-.06-1.17-.27-1.69-.62-.95-.63-1.46-1.42-1.52-2.38-.04-.59.14-1.17.52-1.75.37-.56.81-.96,1.32-1.19.4-.18.84-.25,1.31-.22s.95.19,1.43.45l-.72,1.69c-.46-.24-.87-.33-1.24-.29-.27.03-.49.18-.67.45-.19.29-.21.59-.05.91.13.26.34.49.64.69.48.31,1.1.43,1.86.34.29-.03.66-.12,1.12-.26.55-.16.92-.27,1.12-.3.64-.13,1.22-.18,1.74-.14.24.02.46.04.65.08.47.1.85.24,1.15.42Z"/>
      <path class="cls-1" d="M27.45,34.67c-.54.63-1.22.98-2.03,1.05-.82.07-1.54-.17-2.17-.7l-5.19-4.41c-.63-.54-.98-1.22-1.04-2.04-.06-.82.17-1.55.7-2.17.54-.63,1.22-.98,2.03-1.04.82-.06,1.54.17,2.17.71l1.08.92-1.26,1.49-1.11-.95c-.23-.19-.49-.28-.79-.25-.3.02-.55.15-.74.38-.19.23-.28.49-.25.79s.15.54.38.74l5.2,4.43c.23.19.49.28.78.25.29-.02.54-.15.73-.38.19-.23.28-.49.26-.79s-.15-.54-.37-.74l-1.31-1.12,1.26-1.49,1.33,1.13c.63.54.98,1.22,1.04,2.04.06.82-.17,1.54-.7,2.16Z"/>
      <path class="cls-1" d="M24.07,19.99c.77-.71,1.53-1.02,2.29-.93.66.08,1.29.45,1.9,1.12l1.23,1.33c.6.65.86,1.43.78,2.33l4.71,3.07-1.5,1.38-4.02-2.69s-.08.07-.12.11l-.8.73,3.18,3.46-1.38,1.27-8.45-9.18,2.18-2.01ZM26.93,21.44c-.49-.53-1-.56-1.53-.07l-.84.77,2.7,2.94.84-.77c.22-.2.34-.45.35-.75,0-.3-.09-.56-.29-.78l-1.23-1.34Z"/>
      <path class="cls-1" d="M31.23,13.94c.67-.48,1.42-.66,2.23-.52.81.14,1.46.54,1.94,1.21l3.96,5.54c.48.67.66,1.42.52,2.23-.14.81-.54,1.46-1.21,1.94-.67.48-1.42.66-2.23.52-.81-.14-1.45-.54-1.93-1.21l-3.96-5.54c-.48-.67-.66-1.42-.52-2.23.14-.81.54-1.46,1.2-1.93ZM33.78,15.74c-.17-.24-.41-.39-.7-.44-.29-.05-.56.01-.8.19-.24.17-.39.41-.44.7s.01.56.18.8l3.98,5.55c.17.24.41.39.7.43.29.05.56-.02.81-.19.24-.17.39-.41.44-.7s-.01-.56-.19-.8l-3.98-5.55Z"/>
      <path class="cls-1" d="M46.83,19.16l-4.48,2.49-6.07-10.9,1.64-.92,5.16,9.27,2.84-1.58.91,1.64Z"/>
      <path class="cls-1" d="M52.97,16.47l-4.72,2-4.86-11.49,1.73-.73,4.13,9.77,2.99-1.26.73,1.72Z"/>
    </g>
  </g>
</svg>