<?xml version="1.0" encoding="UTF-8"?>
<svg id="Layer_2" data-name="Layer 2" xmlns="http://www.w3.org/2000/svg" viewBox="0 0 282.3 189.27">
  <defs>
    <style>
      .cls-1, .cls-2 {
        fill: none;
      }

      .cls-2 {
        stroke: #fff;
        stroke-miterlimit: 10;
        stroke-width: 2px;
      }
    </style>
  </defs>
  <g id="_レイヤー_2" data-name="レイヤー 2">
    <g>
      <g>
        <path class="cls-2" d="M240.04,47.89l-46.84,46.84c-3.48,3.48-9.12,3.48-12.6,0l-23.25-23.25,12.75-12.75,16.81,16.82h0l40.39-40.39,12.75,12.74Z"/>
        <g>
          <path class="cls-2" d="M81.75,125.68v45.88c0,4.96-4.02,8.98-8.98,8.98h0c-4.96,0-8.98-4.02-8.98-8.98v-88.17"/>
          <path class="cls-2" d="M92.79,51.72c13.6-.86,33.44-2.71,44.97-3.82,4.96-.48,9.25,3.42,9.25,8.4,0,2.06-.75,3.97-2.01,5.45-1.25,1.47-3.01,2.53-5.05,2.87l-33.19,5.51c-4.07.67-7.05,4.2-7.05,8.32v93.1c0,4.96-4.02,8.98-8.98,8.98-2.48,0-4.72-1.01-6.35-2.63-1.62-1.63-2.63-3.87-2.63-6.35v-45.88"/>
          <path class="cls-2" d="M63.79,125.89c-8.1,0-14.95-6.27-15.37-14.37-.37-7.17-.73-21.19-1.23-28.68-.75-11.29,3.67-17.92,7.75-21.79,4.72-4.47,11.13-7.09,16.32-8.4"/>
          <path class="cls-2" d="M81.75,58.72c6.52,0,11.82-5.26,13.05-13.05.24-1.53.5-3.21.59-4.76.58-9.55-5.17-17.73-13.64-17.73s-14.22,8.18-13.64,17.73c.09,1.55.35,3.23.59,4.76,1.24,7.79,6.53,13.05,13.05,13.05Z"/>
        </g>
        <g>
          <polyline class="cls-2" points="122.59 38.34 122.59 12.47 218.85 12.47 218.85 28.36"/>
          <polyline class="cls-2" points="122.59 81.72 122.59 131.77 218.85 131.77 218.85 69.08"/>
          <path class="cls-2" d="M195.95,131.77l7.98,44.97h-10.31l-7.05-22.73c-2.15-6.94-8.57-11.66-15.83-11.66h0c-7.25,0-13.66,4.71-15.82,11.64l-7.1,22.75h-10.31l6.45-36.33"/>
        </g>
      </g>
      <rect class="cls-1" width="282.3" height="189.27"/>
    </g>
  </g>
</svg>