<?xml version="1.0" encoding="UTF-8"?>
<svg id="Layer_2" data-name="Layer 2" xmlns="http://www.w3.org/2000/svg" viewBox="0 0 282.3 189.27">
  <defs>
    <style>
      .cls-1, .cls-2 {
        fill: none;
      }

      .cls-2 {
        stroke: #fff;
        stroke-miterlimit: 10;
        stroke-width: 2px;
      }
    </style>
  </defs>
  <g id="_レイヤー_2" data-name="レイヤー 2">
    <g>
      <g>
        <path class="cls-2" d="M196.21,121.48c0,9.16,7.45,16.61,16.61,16.61s16.61-7.45,16.61-16.61-7.45-16.61-16.61-16.61-16.61,7.45-16.61,16.61ZM212.82,111.31c5.61,0,10.17,4.56,10.17,10.17s-4.56,10.17-10.17,10.17-10.17-4.56-10.17-10.17,4.56-10.17,10.17-10.17Z"/>
        <path class="cls-2" d="M73.12,121.48c0,9.16,7.45,16.61,16.61,16.61s16.61-7.45,16.61-16.61-7.45-16.61-16.61-16.61-16.61,7.45-16.61,16.61ZM99.9,121.48c0,5.61-4.56,10.17-10.17,10.17s-10.17-4.56-10.17-10.17,4.56-10.17,10.17-10.17,10.17,4.56,10.17,10.17Z"/>
        <path class="cls-2" d="M118.37,111.74c-2.21,0-4.01,1.8-4.01,4.01v11.45c0,2.21,1.8,4.01,4.01,4.01h65.81c2.21,0,4.01-1.8,4.01-4.01v-11.45c0-2.21-1.8-4.01-4.01-4.01h-65.81ZM181.75,124.78h-60.95v-6.6h60.95v6.6Z"/>
        <path class="cls-2" d="M113.44,30.56c-9.86,0-18.68,5.59-23.01,14.59l-7.92,16.48-2.21,4.56h-15.96c-5.64,0-10.24,4.59-10.24,10.24,0,2.51.94,4.93,2.65,6.81l7.63,8.5c-4.64,8.28-7.09,17.6-7.09,27.11v25.19c0,7.47,6.01,13.54,13.4,13.54h4.83v9.8c0,7.58,6.17,13.75,13.75,13.75h10.73c7.58,0,13.75-6.17,13.75-13.75v-9.8h75.05v9.8c0,7.58,6.17,13.75,13.75,13.75h10.73c7.58,0,13.75-6.17,13.75-13.75v-9.8h4.84c7.39,0,13.4-6.08,13.4-13.54v-25.19c0-9.53-2.46-18.84-7.12-27.1l7.64-8.49c1.72-1.86,2.66-4.29,2.66-6.83,0-5.66-4.58-10.27-10.22-10.27h-2.98c-1.78,0-3.22,1.44-3.22,3.22s1.44,3.22,3.22,3.22h2.98c2.08,0,3.78,1.72,3.78,3.82,0,.92-.34,1.79-.98,2.49l-6.46,7.18c-.38-.52-.79-1.06-1.24-1.64l-3.96-5c-.09-.1-.16-.21-.24-.31-.13-.17-.26-.34-.39-.51-.59-.78-1.18-1.68-1.86-2.82-.9-1.53-2.88-2.04-4.41-1.13-1.53.9-2.04,2.88-1.13,4.41.82,1.38,1.55,2.49,2.31,3.49.03.04.06.07.09.11.09.1.16.21.24.31.14.19.28.38.39.5l3.9,4.92c1.39,1.78,2.35,3.17,3.12,4.51.02.04.04.07.06.11,4.83,7.73,7.39,16.65,7.39,25.79v25.19c0,3.92-3.12,7.1-6.95,7.1h-8.02s-.03,0-.04,0-.03,0-.04,0h-31.71s-.03,0-.04,0-.03,0-.04,0h-81.41s-.03,0-.04,0-.03,0-.04,0h-31.71s-.03,0-.04,0-.03,0-.04,0h-8.01c-3.83,0-6.95-3.19-6.95-7.1v-25.19c0-9.11,2.54-18.04,7.37-25.84.83-1.38,1.85-2.83,3.19-4.55l3.65-4.61h72.15s.09.01.14.01h51.71c1.78,0,3.22-1.44,3.22-3.22s-1.44-3.22-3.22-3.22h-49.45s-.09-.01-.14-.01h-70.13c1.15-2.09,2.16-4.26,2.97-6.54.01-.02.03-.05.04-.07l11.01-22.85c3.25-6.75,9.84-10.94,17.2-10.94h58.07c1.78,0,3.22-1.44,3.22-3.22s-1.44-3.22-3.22-3.22M60.55,76.43c0-2.09,1.7-3.8,3.79-3.8h13.09c-.86,1.75-1.85,3.43-2.96,5.01-1.1.45-1.88,1.48-1.99,2.72l-3.26,4.12c-.44.57-.85,1.11-1.24,1.63l-6.45-7.19c-.64-.71-.99-1.59-.99-2.5ZM107.31,167.39c0,4.03-3.28,7.31-7.31,7.31h-10.73c-4.03,0-7.31-3.28-7.31-7.31v-9.8h25.35v9.8ZM220.59,167.39c0,4.03-3.28,7.31-7.31,7.31h-10.73c-4.03,0-7.31-3.28-7.31-7.31v-9.8h25.35v9.8Z"/>
        <path class="cls-2" d="M205.46,49.71c.6.61,1.42.95,2.28.95h0c.85,0,1.67-.34,2.27-.94l13.13-13.08c1.26-1.25,1.26-3.29,0-4.55-1.26-1.26-3.29-1.27-4.55,0l-10.85,10.8-5.67-5.7c-1.25-1.26-3.29-1.27-4.55-.02-1.26,1.25-1.27,3.29-.02,4.55l7.94,7.99Z"/>
        <path class="cls-2" d="M209.02,76.02c.41.19.87.28,1.33.28s.9-.1,1.32-.28c1.23-.55,30.24-13.75,30.24-31.28V10.36c0-1.3-.79-2.47-1.99-2.97-1.2-.5-2.59-.22-3.51.7-.05.05-5.29,5.21-11.79,5.13-3.68-.03-7.21-1.74-10.51-5.13-.4-.4-.81-.85-1.31-1.44-.61-.72-1.51-1.14-2.46-1.14s-1.85.42-2.46,1.14c-.5.59-.91,1.04-1.34,1.47-3.27,3.35-6.79,5.07-10.47,5.1-.03,0-.06,0-.1,0-6.46,0-11.64-5.08-11.68-5.12-.92-.93-2.31-1.21-3.51-.71-1.21.5-1.99,1.67-1.99,2.98v34.38c0,17.53,29,30.73,30.24,31.28ZM185.22,16.66c2.81,1.57,6.53,2.99,10.75,2.99.03,0,.05,0,.08,0,5.17-.02,9.98-2.13,14.29-6.24,4.33,4.12,9.13,6.21,14.3,6.24.02,0,.05,0,.08,0,4.23,0,7.94-1.42,10.75-2.99v28.08c0,10.49-17.04,20.9-25.12,24.79-8.08-3.9-25.12-14.3-25.12-24.79v-28.08Z"/>
      </g>
      <rect class="cls-1" y="0" width="282.3" height="189.27"/>
    </g>
  </g>
</svg>