<?xml version="1.0" encoding="UTF-8"?>
<svg id="Layer_2" data-name="Layer 2" xmlns="http://www.w3.org/2000/svg" viewBox="0 0 282.3 189.27">
  <defs>
    <style>
      .cls-1, .cls-2 {
        fill: none;
      }

      .cls-2 {
        stroke: #fff;
        stroke-miterlimit: 10;
        stroke-width: 2px;
      }
    </style>
  </defs>
  <g id="_レイヤー_2" data-name="レイヤー 2">
    <g>
      <g>
        <path class="cls-2" d="M207.12,26c-1.84.65-3.31,1.98-4.15,3.74-.84,1.76-.94,3.74-.29,5.58l.15.43c-4.33.33-8.7-.41-12.67-2.18l-17.66-7.88c-4.69-2.1-9.68-3.16-14.82-3.16h-18.49c-5.74,0-11.18,2.5-14.92,6.86l-25.3,29.49c-4.51,5.26-4.17,13.09.78,17.83,3.15,3.02,7.49,5.23,12.88,6.59,1.17.29,2.36.44,3.54.44,3.52,0,6.95-1.29,9.62-3.69l16.2-14.58c2.83-2.55,4.74-6.03,5.36-9.79l.56-3.41c.38-2.3-1.18-4.48-3.49-4.86-2.31-.39-4.48,1.18-4.86,3.49l-.56,3.41c-.31,1.88-1.26,3.61-2.67,4.88l-16.2,14.58c-1.47,1.32-3.5,1.82-5.44,1.34-2.72-.68-6.51-2.02-9.09-4.49-1.7-1.63-1.79-4.35-.2-6.21l25.3-29.49c2.13-2.48,5.22-3.9,8.49-3.9h18.49c3.95,0,7.77.81,11.38,2.42l17.66,7.88c5.33,2.38,11.22,3.37,17.03,2.88l2.01-.17,20.87,58.89-13.61,9.39c-.75-1.23-1.7-2.36-2.83-3.36l-51.33-45.13c-1.75-1.54-4.43-1.37-5.97.38-1.54,1.75-1.37,4.43.38,5.97l51.33,45.13c2.63,2.31,2.89,6.33.58,8.96-2.16,2.46-5.8,2.88-8.39,1.03-.27-.21-1.6-1.35-1.92-1.63-.02-.02-.04-.03-.06-.05-.02-.02-.03-.04-.05-.05l-14.89-12.26c-1.8-1.48-4.47-1.23-5.95.58-1.48,1.8-1.23,4.47.58,5.95l14.45,11.89c.02.07.04.13.07.2.1.3.21.64.36,1.05.91,2.39.46,5.06-1.18,6.98-2.19,2.57-6.37,3.36-8.87,1.73l-15.61-14.21c-1.73-1.57-4.41-1.45-5.98.28-1.57,1.73-1.45,4.4.28,5.98l15.05,13.7c.48,2.25-.34,5.32-2.07,7.38-2.18,2.6-5.82,3.06-8.54,1.1l-15.41-14.57c-1.7-1.61-4.37-1.53-5.98.17-1.61,1.7-1.53,4.37.17,5.98l14.8,14c.58,2.36.06,4.9-1.43,6.68-2.23,2.67-5.96,3.12-8.67,1.05-1.85-1.42-4.51-1.07-5.93.79-1.42,1.85-1.07,4.51.79,5.93,2.66,2.03,5.78,3.02,8.9,3.02,4.24,0,8.45-1.83,11.4-5.35,1.95-2.32,3.14-5.15,3.52-8.12,4.73.48,9.6-1.33,12.87-5.24,2.2-2.63,3.59-5.95,4.02-9.25,4.77.3,9.8-1.65,13.11-5.54,2.13-2.49,3.37-5.55,3.63-8.71,4.83.72,9.86-.98,13.3-4.89,2.22-2.53,3.41-5.61,3.63-8.74l14.39-9.93.14.4c.65,1.84,1.98,3.31,3.74,4.15,1,.48,2.06.71,3.14.71.82,0,1.65-.14,2.44-.42l26.74-9.48c1.84-.65,3.31-1.98,4.15-3.74.84-1.76.94-3.74.29-5.58-.78-2.2-3.2-3.35-5.4-2.57-1.82.65-2.93,2.41-2.81,4.25l-24.7,8.76-26.24-74.04,24.7-8.75c1.07,1.5,3.04,2.18,4.86,1.53,2.2-.78,3.35-3.2,2.57-5.4-.65-1.84-1.98-3.31-3.74-4.15"/>
        <path class="cls-2" d="M139.21,150.56l-10.46-11.89,2.48-2.18c2.43-2.13,2.66-5.84.53-8.27l-12.05-13.7c-.07-1.31-.55-2.56-1.42-3.55l-12.36-14.05c-2.13-2.42-5.84-2.66-8.27-.53l-1.66,1.46-10.09-11.47c-1.03-1.18-2.46-1.88-4.02-1.98-1.55-.1-3.07.41-4.24,1.45l-19.85,17.46-11.08-5.37,20.46-57.72c4.05,1.01,10.76,2.32,18.36,2.32,6.26,0,13.13-.89,19.6-3.56,2.16-.89,3.19-3.36,2.3-5.52s-3.36-3.19-5.52-2.3c-11.53,4.76-25.18,2.6-31.89,1.03l.46-1.31c.65-1.84.55-3.82-.29-5.58-.84-1.76-2.31-3.09-4.15-3.74l-26.74-9.48c-1.84-.65-3.82-.55-5.58.29-1.76.84-3.09,2.31-3.74,4.15-.78,2.2.37,4.62,2.57,5.4,1.83.65,3.79-.03,4.86-1.53l24.7,8.76-26.24,74.04-24.7-8.75c.12-1.84-.99-3.61-2.81-4.25-2.2-.78-4.62.37-5.4,2.57-.65,1.84-.55,3.82.29,5.58.84,1.76,2.31,3.09,4.15,3.74l26.74,9.47c.8.28,1.62.42,2.45.42,1.07,0,2.14-.24,3.14-.71,1.76-.84,3.09-2.31,3.74-4.15l.41-1.15,7.51,3.64c-.96,2.04-.69,4.55.9,6.36l11.29,12.84c-.06,1.46.4,2.94,1.44,4.11l12.05,13.7c.07,1.27.52,2.53,1.42,3.55l12.36,14.05c.6.68,1.33,1.19,2.12,1.52.09.12.16.24.25.36l12.36,14.05c1.16,1.31,2.78,1.99,4.4,1.99,1.37,0,2.75-.48,3.87-1.46l24.83-21.84c1.18-1.03,1.88-2.46,1.98-4.02.1-1.56-.41-3.07-1.45-4.24ZM110.14,114.52l-28.21,24.81-8.3-9.43,24.1-21.2c.8-.7,1.36-1.6,1.68-2.58l1.87-1.65,8.84,10.06ZM81.28,93.91l8.37,9.52-20.92,18.4-7.82-8.89c1.08-.33,2.03-1.09,2.56-2.19.24-.5.37-1.02.41-1.54l17.4-15.3ZM86.64,146.61l28.21-24.81,8.84,10.06-3.65,3.21c-.52.24-1.02.52-1.45.91l-23.28,20.48-8.66-9.85ZM110.22,172.6l-8.74-9.94,20.92-18.4,8.74,9.94-20.92,18.4Z"/>
      </g>
      <rect class="cls-1" width="282.3" height="189.27"/>
    </g>
  </g>
</svg>