<?xml version="1.0" encoding="UTF-8"?>
<svg id="Layer_2" data-name="Layer 2" xmlns="http://www.w3.org/2000/svg" viewBox="0 0 92.52 98.63">
  <defs>
    <style>
      .cls-1 {
        fill: none;
        stroke: #a7a04f;
        stroke-linecap: round;
        stroke-miterlimit: 10;
        stroke-width: 6px;
      }

      .cls-2 {
        fill: #a7a04f;
      }
    </style>
  </defs>
  <g id="_レイヤー_2" data-name="レイヤー 2">
    <g>
      <polyline class="cls-1" points="9.35 40.82 45.93 4.24 82.51 40.82"/>
      <polyline class="cls-1" points="9.35 66.89 45.93 30.31 82.51 66.89"/>
      <g>
        <path class="cls-2" d="M0,85.98h5.75c2.8,0,4.68,1.56,4.68,3.98,0,2.79-2.14,4.07-4.76,4.07h-2.07v4.35H0v-12.4ZM3.59,91.47h1.48c1.03,0,1.76-.43,1.76-1.46s-.74-1.47-1.75-1.47h-1.49v2.94Z"/>
        <path class="cls-2" d="M15.75,95.97l-.72,2.41h-3.54l3.92-12.4h4.7l4.07,12.4h-3.79l-.75-2.41h-3.89ZM19.01,93.27c-.58-1.95-1.06-3.68-1.34-4.89h-.05c-.29,1.34-.76,3.11-1.26,4.89h2.65Z"/>
        <path class="cls-2" d="M37.37,98.38h-2.44c-.1-.34-.19-.84-.23-1.13-.7.92-1.91,1.38-3.63,1.38-3.8,0-5.71-2.87-5.71-6.31,0-3.8,2.21-6.57,6.35-6.57,3.75,0,5.47,2.14,5.69,4.04h-3.6c-.18-.66-.64-1.48-2.11-1.48-2.08,0-2.58,1.91-2.58,3.89s.59,3.85,2.6,3.85c1.83,0,2.15-1.34,2.15-2.16v-.08h-2.27v-2.54h5.79v7.11Z"/>
        <path class="cls-2" d="M49.23,93.36h-5.65v2.33h6.3l-.41,2.69h-9.4v-12.4h9.38v2.69h-5.89v2h5.65v2.69Z"/>
        <path class="cls-2" d="M58.76,88.67h-3.54v-2.69h10.7v2.69h-3.51v9.71h-3.64v-9.71Z"/>
        <path class="cls-2" d="M79.74,92.17c0,3.51-2.11,6.44-6.36,6.44s-6.19-2.92-6.19-6.42,2.21-6.44,6.37-6.44c3.91,0,6.17,2.71,6.17,6.42ZM70.94,92.13c0,2.28.76,3.86,2.55,3.86,1.89,0,2.51-1.68,2.51-3.79,0-2.26-.66-3.83-2.56-3.83-1.77,0-2.51,1.46-2.51,3.76Z"/>
        <path class="cls-2" d="M82.1,85.98h5.75c2.8,0,4.68,1.56,4.68,3.98,0,2.79-2.14,4.07-4.76,4.07h-2.07v4.35h-3.59v-12.4ZM85.68,91.47h1.48c1.03,0,1.76-.43,1.76-1.46s-.74-1.47-1.75-1.47h-1.49v2.94Z"/>
      </g>
    </g>
  </g>
</svg>