<?xml version="1.0" encoding="UTF-8"?>
<svg id="Layer_2" data-name="Layer 2" xmlns="http://www.w3.org/2000/svg" viewBox="0 0 79.16 98.56">
  <defs>
    <style>
      .cls-1 {
        fill: none;
        stroke: #a7a04f;
        stroke-linecap: round;
        stroke-miterlimit: 10;
        stroke-width: 6px;
      }

      .cls-2 {
        fill: #a7a04f;
      }
    </style>
  </defs>
  <g id="_レイヤー_2" data-name="レイヤー 2">
    <g>
      <polyline class="cls-1" points="3 40.82 39.58 4.24 76.16 40.82"/>
      <polyline class="cls-1" points="3 66.89 39.58 30.31 76.16 66.89"/>
      <g>
        <path class="cls-2" d="M6.08,89.34h4.19c2.04,0,3.41,1.13,3.41,2.9,0,2.03-1.56,2.96-3.47,2.96h-1.51v3.17h-2.61v-9.04ZM8.69,93.34h1.08c.75,0,1.28-.31,1.28-1.07s-.54-1.07-1.27-1.07h-1.09v2.14Z"/>
        <path class="cls-2" d="M17.56,96.62l-.52,1.76h-2.58l2.86-9.04h3.43l2.97,9.04h-2.77l-.55-1.76h-2.84ZM19.94,94.66c-.42-1.42-.77-2.68-.98-3.56h-.04c-.21.97-.55,2.26-.92,3.56h1.93Z"/>
        <path class="cls-2" d="M33.33,98.38h-1.78c-.07-.25-.14-.61-.17-.82-.51.67-1.39,1.01-2.64,1.01-2.77,0-4.16-2.09-4.16-4.6,0-2.77,1.61-4.79,4.63-4.79,2.73,0,3.98,1.56,4.15,2.95h-2.62c-.13-.48-.47-1.08-1.54-1.08-1.51,0-1.88,1.39-1.88,2.83s.43,2.81,1.89,2.81c1.33,0,1.57-.98,1.57-1.57v-.06h-1.66v-1.85h4.22v5.18Z"/>
        <path class="cls-2" d="M41.98,94.72h-4.12v1.69h4.59l-.29,1.96h-6.85v-9.04h6.84v1.96h-4.29v1.46h4.12v1.96Z"/>
        <path class="cls-2" d="M48.93,91.3h-2.58v-1.96h7.8v1.96h-2.56v7.08h-2.65v-7.08Z"/>
        <path class="cls-2" d="M64.23,93.85c0,2.56-1.54,4.69-4.64,4.69s-4.51-2.12-4.51-4.68,1.61-4.69,4.64-4.69c2.85,0,4.5,1.98,4.5,4.68ZM57.82,93.82c0,1.66.55,2.81,1.86,2.81,1.38,0,1.83-1.22,1.83-2.76,0-1.65-.48-2.79-1.87-2.79-1.29,0-1.83,1.06-1.83,2.74Z"/>
        <path class="cls-2" d="M65.96,89.34h4.19c2.04,0,3.41,1.13,3.41,2.9,0,2.03-1.56,2.96-3.47,2.96h-1.51v3.17h-2.61v-9.04ZM68.57,93.34h1.08c.75,0,1.28-.31,1.28-1.07s-.54-1.07-1.27-1.07h-1.09v2.14Z"/>
      </g>
    </g>
  </g>
</svg>