<?xml version="1.0" encoding="UTF-8"?>
<svg id="Layer_2" data-name="Layer 2" xmlns="http://www.w3.org/2000/svg" viewBox="0 0 60 60">
  <defs>
    <style>
      .cls-1 {
        fill: #fff;
      }

      .cls-2 {
        fill: none;
      }
    </style>
  </defs>
  <g id="_レイヤー_2" data-name="レイヤー 2">
    <g>
      <path class="cls-1" d="M14.31,49.52c-.93,0-1.77,0-2.58,0-2.18-.02-4.01-1.32-4.65-3.33-.14-.43-.22-.93-.24-1.44-.03-.76-.02-1.53-.02-2.28,0-.31,0-.61,0-.92,0-2.19,0-4.38,0-6.57,0-6.37,0-12.95,0-19.43,0-1.31.36-2.38,1.12-3.28.95-1.13,2.15-1.71,3.57-1.74,1.3-.02,2.45-.04,3.51-.04s2.07.01,3.03.04c2.66.07,4.68,2.16,4.7,4.87,0,.93,0,1.87,0,2.78,0,.42,0,.84,0,1.26v.68l.25.05c.14.03.28.05.42.07.27.04.52.08.76.15,1.86.52,3.13,2.17,3.16,4.11,0,.24,0,.49,0,.75,0,.12,0,.25,0,.37v.3h3.82l.07-.2c.37-1.05,1.05-1.76,2.01-2.1.35-.12.7-.19,1.05-.19.6,0,1.22.2,1.82.58l.24.16.17-.24c.77-1.1,1.67-1.64,2.73-1.64.5,0,1.04.12,1.62.36l.31.13.1-.32c.51-1.59,1.52-2.4,3.09-2.47.05,0,.09,0,.14,0,1.25,0,2.2.75,2.98,2.35l.08.17h.67c.39,0,.78,0,1.17,0,.39,0,.78,0,1.17,0,.68,0,1.24,0,1.75-.01h.04c.43,0,.68.13.85.43v13.71c-.16.3-.41.43-.84.43h-.04c-.51,0-1.07-.01-1.75-.01-.39,0-.78,0-1.17,0-.39,0-.78,0-1.17,0h-.71l-.07.2c-.58,1.54-1.6,2.32-3.04,2.32-.03,0-.06,0-.09,0-1.51-.03-2.54-.86-3.04-2.45l-.1-.32-.31.14c-.54.24-1.06.36-1.57.36-1.1,0-2.1-.59-2.75-1.62l-.15-.24-.36.19c-.08.04-.16.09-.24.13-.47.25-1,.39-1.52.39-1.1,0-2.1-.57-2.67-1.52-.22-.38-.5-.54-.9-.54-.02,0-.03,0-.05,0-.31,0-.64.01-1.06.01-.21,0-.43,0-.64,0-.22,0-.43,0-.65,0h-.17c-.11,0-.22,0-.33.02-.05,0-.11,0-.17.01l-.29.02v.29c0,.12,0,.24,0,.36,0,.24,0,.48,0,.71-.02,2.01-1.28,3.64-3.2,4.17-.23.06-.47.1-.73.14-.13.02-.27.04-.4.06l-.25.04v.69c0,.42,0,.84,0,1.27,0,.92,0,1.88,0,2.81-.02,2.31-1.6,4.25-3.84,4.73-.33.07-.69.11-1.08.11-1.05,0-2.29.01-3.52.01ZM8.02,44.43c.03.15.04.3.06.43.04.3.08.57.16.85.45,1.55,1.8,2.52,3.5,2.53.78,0,1.63.01,2.6.01s1.91,0,2.84,0h.62c.68,0,1.3-.16,1.86-.46,1.22-.66,1.98-2.13,1.78-3.42l-.06-.36-.34.12s-.07.02-.11.04c-.08.03-.16.05-.25.09-.27.11-.54.22-.81.33-.55.22-1.13.45-1.69.66-.1.04-.19.05-.28.05-.28,0-.5-.18-.58-.48-.09-.32.08-.61.46-.76.45-.19.91-.37,1.36-.54.27-.11.54-.21.81-.32.31-.12.62-.25.93-.38l.6-.25v-4.51l-1.04.42c-.49.2-.95.38-1.42.57-.07.03-.15.06-.22.09-.23.09-.44.18-.66.25-.07.02-.15.04-.22.04-.26,0-.47-.15-.57-.4-.12-.31,0-.62.31-.79.09-.05.19-.09.29-.13l.05-.02c.39-.15.77-.31,1.16-.46.56-.22,1.13-.45,1.69-.67.11-.05.22-.1.32-.14.04-.02.08-.04.12-.06l.18-.08v-3.63l-.62.24c-.14.06-.28.11-.41.16-.24.09-.47.19-.71.28-.5.2-1.02.41-1.54.6-.09.03-.18.05-.27.05-.31,0-.55-.21-.61-.53-.05-.3.14-.57.52-.72.56-.23,1.12-.45,1.69-.67.4-.16.8-.32,1.2-.48.14-.06.28-.12.41-.18.06-.03.11-.05.17-.07l.18-.08v-4.48l-2.11.83c-.13.05-.26.1-.39.16-.27.11-.55.23-.83.32-.08.03-.15.04-.23.04-.26,0-.47-.15-.57-.4-.13-.32,0-.63.34-.8.05-.02.1-.04.15-.07l.95-.38c.7-.28,1.4-.56,2.1-.84.1-.04.2-.09.3-.13.04-.02.08-.04.13-.06l.17-.08v-.74c0-.75,0-1.49,0-2.23,0-.06,0-.11-.02-.17,0-.02,0-.04,0-.07l-.05-.38-.36.13c-.06.02-.12.04-.18.06-.12.04-.24.09-.36.13-.26.1-.52.21-.78.31-.49.2-1.01.41-1.51.6-.12.04-.23.07-.34.07-.28,0-.49-.17-.57-.47-.09-.32.06-.59.41-.74.45-.19.91-.37,1.36-.55.23-.09.45-.18.68-.27.35-.14.7-.28,1.05-.43l.65-.27v-4.5l-1.1.44c-.65.26-1.3.52-1.94.77h-.02c-.14.06-.27.11-.39.13-.04,0-.08,0-.12,0-.28,0-.48-.16-.57-.44-.09-.29.03-.57.32-.73.06-.03.13-.06.21-.09.03-.01.07-.03.1-.04l1-.4c.57-.23,1.15-.46,1.72-.69.13-.05.25-.1.38-.16.06-.02.11-.05.17-.07l.21-.09-.03-.23s0-.06-.01-.09c0-.07-.01-.13-.03-.21-.43-1.56-1.79-2.59-3.45-2.62-1-.02-2.04-.03-3.09-.03s-2.08,0-3.15.02c-1.66.02-2.97,1-3.44,2.55-.03.09-.04.18-.05.26,0,.03,0,.06-.01.1l-.04.23.22.09c.06.02.11.05.16.07.11.05.22.09.32.14.36.14.71.28,1.07.43.59.24,1.18.47,1.78.71.35.14.72.41.54.89-.1.26-.28.38-.55.38-.13,0-.28-.03-.43-.09-.19-.07-.39-.15-.57-.23-.15-.06-.29-.12-.44-.18-.4-.16-.79-.31-1.2-.47l-.93-.36v4.5l.59.24c.3.12.59.24.88.36.24.1.48.19.72.29.5.2,1.02.4,1.52.62.4.17.55.48.41.83-.1.25-.3.39-.55.39-.1,0-.2-.02-.31-.06-.47-.18-.94-.37-1.4-.55-.23-.09-.45-.18-.68-.27-.17-.07-.34-.13-.52-.2l-.67-.26v3.65l.18.08s.09.04.13.06c.1.04.2.08.29.12.33.13.66.26.99.39.69.28,1.41.56,2.11.85.22.09.37.23.44.39.06.14.05.3-.02.46-.1.24-.3.37-.56.37-.1,0-.21-.02-.33-.06-.24-.09-.49-.19-.73-.29-.11-.04-.22-.09-.33-.13l-2.18-.87v4.5l.6.24c.31.12.61.25.91.37.24.1.48.19.71.28.5.2,1.03.41,1.53.62.2.09.34.23.4.4.05.16.03.33-.06.5-.11.2-.3.31-.52.31-.1,0-.2-.02-.3-.06-.45-.17-.9-.35-1.34-.53-.23-.09-.46-.19-.7-.28-.18-.07-.37-.14-.55-.21-.09-.03-.17-.06-.26-.1l-.41-.16v3.66l.99.4c.81.32,1.61.64,2.41.96.03.01.07.03.1.04.13.05.25.1.35.16.24.15.34.34.31.59-.02.2-.12.46-.43.52-.05,0-.1.02-.15.02-.12,0-.26-.02-.39-.07-.4-.14-.8-.31-1.19-.46-.18-.08-.36-.15-.55-.22-.23-.09-.47-.18-.71-.28l-.34-.13-.41-.16v4.5l.89.35c.54.22,1.07.43,1.61.64.12.05.24.1.36.14.31.12.63.25.93.39.35.16.48.49.33.83-.1.23-.31.36-.55.36-.1,0-.2-.02-.3-.06-.53-.2-1.07-.42-1.59-.63-.28-.11-.55-.22-.83-.33-.09-.04-.19-.07-.3-.11-.06-.02-.13-.04-.21-.07l-.48-.17.08.5ZM23.25,21.5c-.07,0-.14,0-.21,0l-.27.03v17.01h.31c1.73-.07,2.99-1.38,3-3.13,0-3.7,0-7.38,0-10.82,0-.28-.03-.56-.1-.84-.3-1.27-1.5-2.26-2.73-2.26ZM44.38,21.25c-.95,0-1.71.62-1.88,1.55-.03.18-.03.36-.03.53v.08c0,4.25,0,8.49,0,12.74,0,.03,0,.06,0,.09,0,.11,0,.23,0,.35.09.92.81,1.64,1.7,1.71.06,0,.12,0,.18,0,.89,0,1.6-.55,1.83-1.4.07-.25.07-.51.08-.71,0-1.66,0-3.34,0-4.98v-7.77s0-.07,0-.1c0-.11,0-.22,0-.34-.07-.97-.82-1.71-1.76-1.76-.04,0-.08,0-.11,0ZM39.33,23.55c-.91,0-1.64.57-1.85,1.45-.05.23-.06.46-.06.66,0,2.42,0,4.84,0,7.27v.98s0,.07,0,.07c0,.1,0,.21,0,.32.09.92.81,1.64,1.7,1.71.06,0,.12,0,.18,0,.89,0,1.6-.55,1.83-1.4.05-.19.07-.4.07-.66,0-1.04,0-2.09,0-3.11v-1.89c0-.7,0-1.4,0-2.11,0-.15,0-.29,0-.44,0-.36,0-.72-.01-1.09-.05-.94-.78-1.7-1.71-1.76-.06,0-.11,0-.17,0ZM47.54,35.77h4.38v-11.99h-4.38v11.99ZM32.38,30.74c0,.74,0,1.5,0,2.25.01.95.65,1.7,1.58,1.87.1.02.2.03.31.03.75,0,1.47-.48,1.73-1.17.1-.26.16-.58.16-.91,0-1.57,0-3.17,0-4.72v-1.39c0-.09,0-.19-.01-.3-.09-.89-.75-1.58-1.64-1.71-.08-.01-.17-.02-.26-.02-.75,0-1.46.48-1.73,1.17-.1.25-.15.55-.16.86-.01.75,0,1.51,0,2.25,0,.28,0,.55,0,.83v.3h0c0,.22,0,.44,0,.66ZM29.05,27.21c-.38,0-.88,0-1.4.03h-.29v5.55h3.74v-5.58h-.31c-.14,0-.27,0-.41,0-.23,0-.45,0-.67,0-.22,0-.45,0-.67,0Z"/>
      <rect class="cls-2" width="60" height="60"/>
    </g>
  </g>
</svg>