<?xml version="1.0" encoding="UTF-8"?>
<svg id="Layer_2" data-name="Layer 2" xmlns="http://www.w3.org/2000/svg" viewBox="0 0 60 60">
  <defs>
    <style>
      .cls-1 {
        fill: #fff;
      }

      .cls-2 {
        fill: none;
      }
    </style>
  </defs>
  <g id="_レイヤー_2" data-name="レイヤー 2">
    <g>
      <g>
        <path class="cls-1" d="M30.16,13.21c-.78-.41-1.69-.35-2.42.16l-10.56,7.33h-5.9c-1.39,0-2.52,1.25-2.52,2.79v13.03c0,1.54,1.13,2.79,2.52,2.79h5.9l10.56,7.33c.41.29.88.43,1.34.43.37,0,.74-.09,1.08-.27.89-.46,1.44-1.43,1.44-2.52V15.73c0-1.09-.55-2.06-1.44-2.52ZM29.22,44.27c0,.23-.09.36-.14.4l-10.85-7.54c-.2-.14-.44-.21-.68-.21h-6.26c-.05-.03-.16-.18-.16-.41v-13.03c0-.23.11-.38.16-.41h6.26c.24,0,.48-.07.68-.21l10.85-7.54c.05.04.14.17.14.4v28.54Z"/>
        <path class="cls-1" d="M44.78,14.41c-.47-.47-1.22-.47-1.69,0-.47.47-.47,1.22,0,1.69,7.66,7.66,7.66,20.13,0,27.8-.47.47-.47,1.22,0,1.69.23.23.54.35.84.35s.61-.12.84-.35c4.16-4.16,6.46-9.7,6.46-15.59s-2.29-11.42-6.46-15.59Z"/>
        <path class="cls-1" d="M41.04,18.21c-.45-.48-1.21-.5-1.69-.05-.48.45-.5,1.21-.05,1.69,5.35,5.7,5.35,14.62,0,20.31-.45.48-.43,1.24.05,1.69.23.22.52.32.82.32.32,0,.64-.13.87-.38,6.21-6.61,6.21-16.97,0-23.58Z"/>
        <path class="cls-1" d="M37.29,22.05c-.42-.51-1.18-.57-1.68-.15-.51.42-.57,1.17-.15,1.68,3.1,3.72,3.1,9.12,0,12.84-.42.51-.35,1.26.15,1.68.22.19.49.28.76.28.34,0,.68-.15.92-.43,3.84-4.6,3.84-11.29,0-15.89Z"/>
      </g>
      <rect class="cls-2" width="60" height="60"/>
    </g>
  </g>
</svg>