<?xml version="1.0" encoding="UTF-8"?>
<svg id="Layer_2" data-name="Layer 2" xmlns="http://www.w3.org/2000/svg" viewBox="0 0 60 60">
  <defs>
    <style>
      .cls-1, .cls-2 {
        fill: none;
      }

      .cls-2 {
        fill-rule: evenodd;
        stroke: #fff;
        stroke-linecap: round;
        stroke-linejoin: round;
      }
    </style>
  </defs>
  <g id="_レイヤー_2" data-name="レイヤー 2">
    <g>
      <g>
        <path class="cls-2" d="M30,47.83c9.82,0,17.83-8.01,17.83-17.83s-8.01-17.83-17.83-17.83S12.17,20.18,12.17,30s8.01,17.83,17.83,17.83Z"/>
        <path class="cls-2" d="M33.59,12.53v8.8l6.22-6.22c2.02,1.33,3.75,3.06,5.08,5.08l-6.22,6.22h8.8c.24,1.16.36,2.36.36,3.59s-.12,2.43-.36,3.59h-8.8l6.22,6.22c-1.33,2.02-3.06,3.75-5.08,5.08l-6.22-6.22v8.8c-1.16.24-2.36.36-3.59.36s-2.43-.12-3.59-.36v-8.8l-6.22,6.22c-2.02-1.33-3.75-3.06-5.08-5.08l6.22-6.22h-8.8c-.24-1.16-.36-2.36-.36-3.59s.12-2.43.36-3.59h8.8l-6.22-6.22c1.33-2.02,3.06-3.75,5.08-5.08l6.22,6.22v-8.8c1.16-.24,2.36-.36,3.59-.36s2.43.12,3.59.36Z"/>
        <path class="cls-2" d="M30,33.59c1.98,0,3.59-1.61,3.59-3.59s-1.61-3.59-3.59-3.59-3.59,1.61-3.59,3.59,1.61,3.59,3.59,3.59Z"/>
        <path class="cls-2" d="M30,49.97c11,0,19.97-8.97,19.97-19.97s-8.97-19.97-19.97-19.97S10.03,19,10.03,30s8.97,19.97,19.97,19.97Z"/>
      </g>
      <rect class="cls-1" width="60" height="60"/>
    </g>
  </g>
</svg>