<?xml version="1.0" encoding="UTF-8"?>
<svg id="Layer_2" data-name="Layer 2" xmlns="http://www.w3.org/2000/svg" viewBox="0 0 280 204.42">
  <defs>
    <style>
      .cls-1, .cls-2 {
        fill: none;
      }

      .cls-2 {
        fill-rule: evenodd;
        stroke: #fff;
        stroke-miterlimit: 2.61;
        stroke-width: 2px;
      }
    </style>
  </defs>
  <g id="_レイヤー_2" data-name="レイヤー 2">
    <g>
      <path class="cls-2" d="M154.46,112.56l-.81-13.48-4.97-3.74-.25-5.49,1.92-4.17,2.29-.17.39,6.51c.02.38.36.69.75.66l4.97-.3c.38-.02.69-.36.66-.75l-.39-6.51,2.49-.16,2.35,3.95.33,5.48-4.54,4.24.68,11.48c.41,0,.77.08.91.3.56.87.92,3,.92,4.8,0,1.01-.19,3.15-.98,3.75l-4.09,1.56-9.79,6.92c-.72.47-.93.66-2.02.74l-16.93-.99M161.49,129.54l-.63-10.59M159.09,130.42l.92,6.24.27.19,2.36-.22c.68-.06.79-.6.84-1.3l.33-4.46c.06-.76-.64-1.42-1.4-1.37l-2.85.16-.47.76h0ZM161.91,136.67l.44,7.28-5.99.44-1.33-22.27M155.4,130.36l-10.51.29c-.49-.22-2.58-2.25-2.93-2.65M155.81,136.95l-11.72,1.04c-1.17.05-1.91-.27-2.9-.91-2.11-1.33-3.99-2.8-6.04-4.23l-.57.13-10.37,16.84v1.02s6.72,13.45,6.72,13.45c.68,1.32.97,1.96,1.29,3.61l.88,27.24M124.5,194.91l-1.81-25.27-6.36-7.89M114.76,152.11l2.65,15.08c.27,2.61.01,2.81-.56,5.17l-5.44,22.83M103.28,194.47l3.67-24.63c.14-1.04.15-1.33-.23-2.61l-3.25-14.01c-.67-2.87-.4-7.82,1.5-10.67l13.11-19.74c2.17-3.5,6.53-5.52,12.14-4.65,4.6.71,9.57,1.5,14.08,2.37.3.05.6,0,.9-.2l8.41-6.58.8-1.98,5.91-1.64M124.61,107.35c1.78,5.04,3.75,7.41,9.58,7.29,2.71-.28,4.7-1.46,5.71-3.66,1.2-2.62.6-5.58-.06-8.31M140.78,102.43l-2.08-5.28c-3.35-6.97-19-1.52-16.26,6.8l1.1,3.33c.07.24.32.38.56.31l22.99-7.17M31.03,195.4h213.67M89.57,32.32c32.2-2.2,64.4-2.12,96.6.17M187.76,27.67h1.84s.6-2.86.6-2.86c.27-1.43,1.07-2.02,2.25-2l7.49.88c2.01.24,3.7,5.93,1.5,6.18l-8.42,1.84c-.5.24-.81.8-1.1,1.38l1.2,1.48c3.6,4.43,6.44,8.6,6.32,15.34v37.26c0,.96-.55,1.8-1.35,2.24h-21.63c-.8-.44-1.35-1.28-1.35-2.24v-8.61c-23.39,1.06-51.09,1.06-74.48,0v8.61c0,.96-.55,1.8-1.35,2.24h-21.63c-.8-.44-1.35-1.28-1.35-2.24v-37.26c-.12-6.74,2.72-10.92,6.32-15.34l1.2-1.48c-.29-.58-.6-1.13-1.1-1.38l-8.42-1.84c-2.2-.25-.51-5.94,1.5-6.18l7.49-.88c1.18-.02,1.98.57,2.25,2l.6,2.87,1.85-.02M83.81,33.09l16.64-21.58c4.21-5.41,70.62-5.42,74.83,0l16.64,21.58M160.03,50.94c-14.7.69-29.46.69-44.16,0M190.34,45.45l-24.03,3.28c-.82.11-1.24.52-1.49,1.1l-.7,1.6c-.29.66,1.19,1.26,1.76,1.27l20.11-.15c.28,0,.54-.04.79-.15l4.27-1.68c.55-.22.91-.55.88-1.13l-.11-2.75c-.04-.87-.58-1.45-1.48-1.38h0ZM85.39,45.45l24.03,3.28c.82.11,1.24.52,1.49,1.1l.7,1.6c.28.66-1.19,1.26-1.76,1.27l-20.11-.15c-.27,0-.54-.04-.78-.15l-4.27-1.68c-.55-.22-.91-.55-.88-1.13l.11-2.75c.03-.87.58-1.45,1.48-1.38h0ZM100.63,78.57c-5.31-.13-10.54-.71-15.72-1.54M175.11,78.57c5.32-.13,10.54-.71,15.72-1.54M49.26,43.13h17.87v152.27h-17.87V43.13h0ZM76.29,83.75h-9.16M67.14,77.74h9.16M199.44,83.75h9.16M208.6,77.74h-9.16M226.47,43.13h-17.87v152.27h17.87V43.13h0ZM149.86,179.48h39.98v13.84c0,1.15-.94,2.08-2.08,2.08h-35.81c-1.14,0-2.08-.94-2.08-2.08v-13.84h0ZM191.28,179.48v-5.44c0-.59-.49-1.08-1.08-1.08h-40.7c-.59,0-1.08.49-1.08,1.08v5.44h42.87ZM175.98,170.3v-2.25c0-.77-.63-1.39-1.39-1.39h-9.48c-.76,0-1.39.63-1.39,1.39v2.25M157.18,179.48v3.62M182.52,179.48v3.62"/>
      <rect class="cls-1" y="0" width="280" height="204.42"/>
    </g>
  </g>
</svg>