<?xml version="1.0" encoding="UTF-8"?>
<svg id="Layer_2" data-name="Layer 2" xmlns="http://www.w3.org/2000/svg" viewBox="0 0 60 60">
  <defs>
    <style>
      .cls-1, .cls-2 {
        fill: none;
      }

      .cls-2 {
        stroke: #fff;
        stroke-linecap: round;
        stroke-linejoin: round;
      }
    </style>
  </defs>
  <g id="_レイヤー_2" data-name="レイヤー 2">
    <g>
      <g>
        <path class="cls-2" d="M17.36,41.67v3.72c0,1.08-.87,1.95-1.95,1.95h-4.22c-1.08,0-1.95-.87-1.95-1.95v-3.72"/>
        <path class="cls-2" d="M10.74,29.65h4.19c2.51,0,4.55,2.04,4.55,4.55v1.37h-9"/>
        <path class="cls-2" d="M8.12,23.54h-.16c-1.01,0-1.73-.97-1.44-1.94l.31-1.05c.19-.64.78-1.08,1.44-1.08h3.71"/>
        <path class="cls-2" d="M35.91,40.06c1.12,0,2.23.21,3.28.62h0c1.05.41,2.16.62,3.28.62h6.57c1.81,0,3.28-1.47,3.28-3.28v-7.87c0-2.83-1.41-5.47-3.76-7.03h0c-1.56-1.04-2.74-2.58-3.33-4.36l-.79-2.36c-.74-2.22-2.82-3.72-5.16-3.72h-18.55c-2.34,0-4.42,1.5-5.16,3.72l-.79,2.36c-.59,1.78-1.77,3.32-3.33,4.36h0c-2.35,1.57-3.76,4.21-3.76,7.03v7.87c0,1.81,1.47,3.28,3.28,3.28h6.57c1.12,0,2.23-.21,3.28-.62h0c1.05-.41,2.16-.62,3.28-.62h11.82Z"/>
        <line class="cls-2" x1="48.64" y1="23.29" x2="11.36" y2="23.29"/>
        <path class="cls-2" d="M42.64,41.67v3.72c0,1.08.87,1.95,1.95,1.95h4.22c1.08,0,1.95-.87,1.95-1.95v-3.72"/>
        <path class="cls-2" d="M49.26,29.65h-4.19c-2.51,0-4.55,2.04-4.55,4.55v1.37h9"/>
        <line class="cls-2" x1="35.78" y1="35.58" x2="24.22" y2="35.58"/>
        <path class="cls-2" d="M51.88,23.54h.16c1.01,0,1.73-.97,1.44-1.94l-.31-1.05c-.19-.64-.78-1.08-1.44-1.08h-3.71"/>
      </g>
      <rect class="cls-1" width="60" height="60"/>
    </g>
  </g>
</svg>