<?xml version="1.0" encoding="UTF-8"?>
<svg id="Layer_2" data-name="Layer 2" xmlns="http://www.w3.org/2000/svg" viewBox="0 0 232 232">
  <defs>
    <style>
      .cls-1, .cls-2 {
        fill: none;
      }

      .cls-2 {
        stroke: #fff;
        stroke-miterlimit: 10;
        stroke-width: 2px;
      }
    </style>
  </defs>
  <g id="_レイヤー_2" data-name="レイヤー 2">
    <g>
      <g>
        <path class="cls-2" d="M48.49,38.38c1.5,0,2.86,1.23,2.86,2.86,0,2.04.82,3.95,2.18,5.32,1.36,1.36,3.27,2.18,5.32,2.18,2.18,0,4.09-.82,5.45-2.18,1.36-1.36,2.18-3.27,2.18-5.32v-17.99h0v-.14c-.14-2.04-.95-3.82-2.18-5.04-1.36-1.36-3.27-2.32-5.45-2.32-2.04,0-3.95.95-5.32,2.32-1.36,1.36-2.18,3.27-2.18,5.32v2.59c0,1.5-1.36,2.86-2.86,2.86-1.64,0-3-1.36-3-2.86v-2.59c0-3.68,1.5-6.95,3.95-9.4,2.45-2.45,5.72-3.95,9.4-3.95s7.09,1.5,9.54,3.95h0c1.64,1.64,2.86,3.82,3.54,6.27h70.06c1.5,0,2.86.55,3.95,1.64.95.95,1.64,2.45,1.64,3.95v12.54h14.45c1.5,0,3,.55,3.95,1.64,1.09.95,1.64,2.32,1.64,3.95v71.01c-.68-.14-1.36.14-1.91.55-1.23,1.09-2.45,2.18-3.82,3.13V44.1h-76.06c-1.5,0-2.86-1.36-2.86-2.86,0-1.64,1.36-2.86,2.86-2.86h55.88v-12.4h-69.51v15.27c0,3.68-1.5,6.95-3.82,9.4h0c-2.45,2.45-5.86,3.95-9.54,3.95s-6.95-1.5-9.4-3.95c-1.77-1.77-3-4.09-3.54-6.54h-7.22v142.71h89.82c1.09,2.04,2.18,3.95,3.41,5.72H38.54c-1.5,0-2.86-.55-3.95-1.64-.95-.95-1.64-2.32-1.64-3.95v-11.72h-14.45c-1.64,0-3-.68-3.95-1.64-1.09-1.09-1.64-2.45-1.64-3.95V25.84c0-1.5.55-3,1.64-3.95h0c.95-1.09,2.32-1.64,3.95-1.64h20.45c1.64,0,3,1.23,3,2.86s-1.36,2.86-3,2.86h-20.31v143.52h14.31V43.97c0-1.64.68-3,1.64-3.95h0c1.09-1.09,2.45-1.64,3.95-1.64h9.95Z"/>
        <path class="cls-2" d="M92.93,60.32h14.86c1.5,0,2.86.68,3.95,1.64.95,1.09,1.64,2.45,1.64,3.95v12.27h12.13c1.5,0,2.86.55,3.95,1.64.95.95,1.64,2.32,1.64,3.95v14.72c0,1.64-.68,3-1.64,3.95h0c-1.09,1.09-2.45,1.77-3.95,1.77h-12.13v12.13c0,1.5-.68,2.86-1.64,3.95h0c-1.09.95-2.45,1.64-3.95,1.64h-14.86c-1.5,0-3-.68-3.95-1.64-1.09-1.09-1.64-2.45-1.64-3.95v-12.13h-12.13c-1.64,0-3-.68-3.95-1.77-1.09-.95-1.77-2.32-1.77-3.95v-14.72c0-1.64.68-3,1.77-3.95.95-1.09,2.32-1.64,3.95-1.64h12.13v-12.27c0-1.5.55-2.86,1.64-3.95.95-.95,2.45-1.64,3.95-1.64h0ZM107.51,66.18h-14.45v17.72h-17.72v14.45h17.72v17.72h14.45v-17.72h17.86v-14.45h-17.86v-17.72Z"/>
        <path class="cls-2" d="M167.48,216.25c3-.82,14.86-4.77,25.76-15.95,11.04-11.31,20.99-30.12,20.04-60.93-3.54-.95-11.18-3-19.63-6.41-8.72-3.54-18.4-8.45-26.17-15.13-5.86,5.04-12.81,9.13-19.63,12.27-11.04,5.18-21.67,8.18-26.03,9.27-1.09,30.8,9,49.61,19.9,60.93,10.9,11.18,22.76,15.13,25.76,15.95h0ZM197.33,204.39c-11.99,12.27-25.08,16.49-28.35,17.45-.55.14-.95.14-1.5.14-.41,0-.95,0-1.5-.14-3.27-.95-16.36-5.18-28.35-17.45-11.86-12.27-22.76-32.44-21.67-65.29.14-1.36.55-2.45,1.23-3.41.82-.95,1.91-1.64,3.13-1.91,4.09-1.09,14.45-3.82,25.08-8.86,6.41-3,13.08-6.82,18.4-11.45,1.09-.95,2.45-1.5,3.68-1.5,1.36,0,2.59.55,3.68,1.5,7.09,6.13,16.36,10.77,24.53,14.18,8.45,3.27,15.67,5.32,19.08,6.13,1.23.27,2.18.95,3,1.91h0c.68.95,1.23,2.04,1.23,3.41,1.09,32.85-9.81,53.02-21.67,65.29h0Z"/>
        <path class="cls-2" d="M163.12,166.09l15.67-17.99c1.64-1.77,3.82-2.73,6-2.86,2.32-.14,4.77.55,6.54,2.18l.14.14c1.91,1.64,2.86,3.82,3,6.13.14,2.32-.55,4.63-2.18,6.54-7.09,8.18-15.13,16.49-21.81,24.81-1.77,1.91-3.95,2.86-6.41,3-2.18,0-4.63-.68-6.41-2.45-4.63-4.09-9.54-9-14.31-12.95-1.77-1.64-2.73-3.82-2.86-6.13,0-2.32.68-4.63,2.45-6.54v-.14c1.77-1.77,3.95-2.73,6.27-2.73,2.32-.14,4.63.68,6.54,2.32l7.36,6.68ZM182.89,152.19l-19.35,21.94c-3.68-3.27-8.59-7.09-11.72-10.5-.68-.55-1.5-.82-2.32-.82s-1.77.41-2.32,1.09h-.14c-.55.68-.82,1.5-.68,2.32,0,.82.27,1.64.95,2.32,2.73,2.32,12.13,11.72,14.18,12.81.68.68,1.64.95,2.45.82.82,0,1.64-.27,2.32-.95l21.67-24.94c.55-.68.82-1.5.82-2.32-.14-.82-.41-1.64-1.09-2.18l-.14-.14c-.68-.55-1.5-.82-2.32-.68-.82,0-1.64.41-2.32,1.09v.14Z"/>
        <path class="cls-2" d="M58.85,166.77c-1.5,0-2.86-1.36-2.86-2.86,0-1.64,1.36-3,2.86-3h38.16c1.64,0,3,1.36,3,3,0,1.5-1.36,2.86-3,2.86h-38.16ZM58.85,148.23c-1.5,0-2.86-1.36-2.86-2.86,0-1.64,1.36-2.86,2.86-2.86h34.21c1.64,0,2.86,1.23,2.86,2.86,0,1.5-1.23,2.86-2.86,2.86h-34.21Z"/>
      </g>
      <rect class="cls-1" y="0" width="232" height="232"/>
    </g>
  </g>
</svg>