<?xml version="1.0" encoding="UTF-8"?>
<svg id="Layer_2" data-name="Layer 2" xmlns="http://www.w3.org/2000/svg" viewBox="0 0 252.83 220.01">
  <defs>
    <style>
      .cls-1, .cls-2 {
        fill: none;
      }

      .cls-2 {
        stroke: #fff;
        stroke-miterlimit: 10;
        stroke-width: 2px;
      }
    </style>
  </defs>
  <g id="_レイヤー_2" data-name="レイヤー 2">
    <g>
      <g>
        <path class="cls-2" d="M67.41,114.5c-7.19,0-13.12-5.47-13.86-12.47,0-.07.02-.13.02-.21,0-.2-.02-.4-.07-.59-.01-.22-.03-.45-.03-.67,0-7.68,6.25-13.94,13.94-13.94s13.94,6.25,13.94,13.94-6.25,13.94-13.94,13.94ZM167.74,114.5c-7.21,0-13.16-5.51-13.86-12.55,0-.04.01-.08.01-.13,0-.13-.02-.26-.04-.38-.02-.29-.04-.58-.04-.88,0-7.68,6.25-13.94,13.94-13.94s13.94,6.25,13.94,13.94-6.25,13.94-13.94,13.94ZM35.85,65.38c0-6.53,5.31-11.84,11.84-11.84,4.86,0,9.54-1.74,13.17-4.88l16.11-13.8c2.57-2.18,5.85-3.38,9.24-3.38h41.51c3.48,0,6.83,1.25,9.4,3.51l28.4,25.12c2.48,2.22,5.7,3.44,9.05,3.44h7.07c12.03,0,21.81,9.78,21.81,21.81v7.79c0,3.25-2.65,5.9-5.9,5.9h-10.41c-.77-10.04-9.17-17.97-19.4-17.97s-18.63,7.93-19.4,17.97h-61.53c-.77-10.04-9.17-17.97-19.4-17.97s-18.63,7.93-19.4,17.97h-3.52c-4.76,0-8.64-3.86-8.64-8.59v-25.09Z"/>
        <path class="cls-2" d="M65.71,53.24l8.36,6.52c3.25,2.54,7.32,3.93,11.44,3.93h26.51s0,0,0,0c0,0,0,0,0,0h41.43c1.53,0,2.77-1.24,2.77-2.77s-1.24-2.77-2.77-2.77h-39.4l-7.28-23.31c-.46-1.46-2.01-2.28-3.47-1.82-1.46.46-2.28,2.01-1.82,3.47l6.77,21.66h-22.75c-2.9,0-5.75-.98-8.03-2.76l-8.36-6.52c-1.21-.94-2.95-.73-3.89.48-.94,1.21-.73,2.95.48,3.89Z"/>
        <path class="cls-2" d="M185.4,79.01c.29,1.25,1.41,2.14,2.7,2.14h9.7c1.53,0,2.77-1.24,2.77-2.77s-1.24-2.77-2.77-2.77h-7.51l-.58-2.49c-.35-1.49-1.84-2.42-3.33-2.07-1.49.35-2.42,1.84-2.07,3.33l1.08,4.63Z"/>
        <path class="cls-2" d="M43.46,81.15h9.7c1.29,0,2.4-.89,2.7-2.14l1.08-4.63c.35-1.49-.58-2.98-2.07-3.33-1.49-.35-2.98.58-3.33,2.07l-.58,2.49h-7.51c-1.53,0-2.77,1.24-2.77,2.77s1.24,2.77,2.77,2.77Z"/>
        <path class="cls-2" d="M120.74,73.16h-6.05c-1.53,0-2.77,1.24-2.77,2.77s1.24,2.77,2.77,2.77h6.05c1.53,0,2.77-1.24,2.77-2.77s-1.24-2.77-2.77-2.77Z"/>
        <path class="cls-2" d="M210.34,153.29l-50.08,34.43c-5.36,3.7-11.89,5.56-18.4,5.23l-60-2.93-27.68-46.65,23.93-10.45c3.81-1.67,8.04-2.45,12.19-2.26.63.04,1.28.09,1.91.17,4,.49,7.73,1.78,11.08,3.85l7.21,4.46c2.41,1.47,5.18,2.34,8,2.5l32.38,4.72c3.54.51,6.07,3.58,5.88,7.19-.01.24-.02.47-.05.71-.32,2.66-1.73,5.09-3.87,6.69-.02.01-.04.03-.07.04l-.95.64c-1.69,1-3.59,1.47-5.52,1.37l-9.27-.45-5.56-.68c-.6-.07-1.17.05-1.66.32l-17.9-.87c-1.52-.08-2.83,1.1-2.9,2.63-.07,1.53,1.1,2.83,2.63,2.9l34.37,1.68c.27.01.54.02.81.02,2.73,0,5.41-.74,7.8-2.15.51-.28.97-.59,1.38-.91l40.91-27.02c2.34-1.54,5.16-2.2,7.94-1.86,2.23.27,4.34,1.17,6.07,2.6,2.15,1.78,3.31,4.4,3.19,7.19-.12,2.79-1.51,5.3-3.81,6.89Z"/>
      </g>
      <rect class="cls-1" width="252.83" height="220.01"/>
    </g>
  </g>
</svg>