<?xml version="1.0" encoding="UTF-8"?>
<svg id="Layer_2" data-name="Layer 2" xmlns="http://www.w3.org/2000/svg" viewBox="0 0 744.15 110.52">
  <defs>
    <style>
      .cls-1 {
        fill: none;
        stroke: #fff;
        stroke-miterlimit: 10;
      }

      .cls-2 {
        opacity: .5;
      }
    </style>
  </defs>
  <g id="_レイヤー_2" data-name="レイヤー 2">
    <g class="cls-2">
      <path class="cls-1" d="M53.8,82.06c.11,7.44-1.82,13.81-5.79,19.09-2.61,3.58-6.31,6.11-11.08,7.59-2.56.8-5.54,1.19-8.95,1.19-6.31,0-11.54-1.56-15.68-4.69-3.47-2.56-6.21-6.04-8.22-10.44-2.02-4.4-3.2-9.45-3.54-15.13l15.34-1.11c.68,6.23,2.33,10.74,4.94,13.54,1.93,2.11,4.15,3.11,6.65,3,3.52-.11,6.33-1.85,8.44-5.2,1.08-1.65,1.62-4.01,1.62-7.08,0-4.44-2.02-8.84-6.05-13.22-3.18-3.01-7.96-7.53-14.32-13.56-5.34-5.17-9.12-9.81-11.33-13.91-2.39-4.61-3.58-9.61-3.58-15.01,0-9.72,3.27-17.09,9.8-22.09C16.07,2.01,21.07.5,27.03.5s10.65,1.28,14.74,3.84c3.18,1.99,5.75,4.77,7.71,8.35,1.96,3.58,3.14,7.7,3.54,12.36l-15.43,2.81c-.46-4.37-1.7-7.78-3.75-10.23-1.48-1.76-3.61-2.64-6.39-2.64-2.96,0-5.2,1.31-6.73,3.92-1.25,2.1-1.88,4.72-1.88,7.84,0,4.89,2.1,9.86,6.31,14.91,1.59,1.93,3.98,4.21,7.16,6.82,3.75,3.13,6.22,5.31,7.42,6.56,3.98,3.98,7.04,7.9,9.21,11.76,1.02,1.82,1.85,3.49,2.47,5.03,1.53,3.81,2.33,7.22,2.39,10.23Z"/>
      <path class="cls-1" d="M64.87,108.65V1.78h45.85v16.19h-29.74v29.15h21.73v16.19h-21.73v29.15h29.74v16.19h-45.85Z"/>
      <path class="cls-1" d="M147.2,1.86c8.98,0,15.57,2.47,19.77,7.41,3.69,4.32,5.54,10.34,5.54,18.07v15.51c0,7.56-2.87,13.95-8.61,19.18l11.93,46.62h-17.42l-9.77-40.23h-10.74v40.23h-16.11V1.86h25.4ZM156.83,27.6c0-6.19-3.07-9.29-9.21-9.29h-9.72v34.18h9.72c2.56,0,4.73-.91,6.52-2.73,1.79-1.82,2.68-4.01,2.68-6.56v-15.6Z"/>
      <path class="cls-1" d="M206.01,108.65L186.92,1.86h16.88l13.41,83.24L230.71,1.86h16.89l-19.43,106.79h-22.16Z"/>
      <path class="cls-1" d="M274.78,108.65h-16.11V1.86h16.11v106.79Z"/>
      <path class="cls-1" d="M311.43,110.02c-7.1,0-13.14-2.48-18.11-7.46-4.97-4.97-7.46-10.98-7.46-18.03V26.24c0-7.1,2.5-13.14,7.5-18.11,5-4.97,11.02-7.46,18.07-7.46s13.12,2.5,18.07,7.5c4.94,5,7.42,11.02,7.42,18.07v12.19h-16.7v-12.53c0-2.56-.91-4.74-2.73-6.56-1.82-1.82-4.01-2.73-6.56-2.73s-4.73.91-6.52,2.73c-1.79,1.82-2.69,4.01-2.69,6.56v58.47c0,2.56.9,4.73,2.69,6.52,1.79,1.79,3.96,2.68,6.52,2.68s4.74-.89,6.56-2.68c1.82-1.79,2.73-3.96,2.73-6.52v-14.74h16.7v14.91c0,7.1-2.5,13.12-7.5,18.07-5,4.94-10.99,7.41-17.98,7.41Z"/>
      <path class="cls-1" d="M347.99,108.65V1.78h45.85v16.19h-29.74v29.15h21.73v16.19h-21.73v29.15h29.74v16.19h-45.85Z"/>
      <path class="cls-1" d="M441.4,1.86c7.84,0,14.09,2.47,18.75,7.41,4.32,4.72,6.48,10.74,6.48,18.07v15.51c0,7.05-2.46,13.07-7.37,18.07-4.92,5-10.87,7.5-17.86,7.5h-9.29v40.23h-16.11V1.86h25.4ZM451.03,27.6c0-2.78-.84-5.03-2.51-6.73-1.68-1.7-3.91-2.56-6.69-2.56h-9.72v34.18h9.72c2.56,0,4.73-.91,6.52-2.73,1.79-1.82,2.68-4.01,2.68-6.56v-15.6Z"/>
      <path class="cls-1" d="M503.19.5c7.1,0,13.14,2.5,18.11,7.5,4.97,5,7.46,11.02,7.46,18.07v58.3c0,7.1-2.5,13.14-7.5,18.11-5,4.97-11.02,7.46-18.07,7.46s-13.12-2.5-18.07-7.5c-4.94-5-7.41-11.02-7.41-18.07V26.07c0-7.1,2.5-13.14,7.5-18.11,5-4.97,10.99-7.46,17.98-7.46ZM511.97,25.73c0-2.56-.89-4.73-2.68-6.52-1.79-1.79-3.96-2.68-6.52-2.68s-4.75.89-6.56,2.68c-1.82,1.79-2.73,3.96-2.73,6.52v58.47c0,2.56.91,4.73,2.73,6.52,1.82,1.79,4.01,2.68,6.56,2.68s4.73-.89,6.52-2.68c1.79-1.79,2.68-3.96,2.68-6.52V25.73Z"/>
      <path class="cls-1" d="M583.73,108.65h-43.89V1.86h16.11v90.77h27.78v16.02Z"/>
      <path class="cls-1" d="M610.91,108.65h-16.11V1.86h16.11v106.79Z"/>
      <path class="cls-1" d="M647.56,110.02c-7.1,0-13.14-2.48-18.11-7.46-4.97-4.97-7.46-10.98-7.46-18.03V26.24c0-7.1,2.5-13.14,7.5-18.11,5-4.97,11.02-7.46,18.07-7.46s13.12,2.5,18.07,7.5c4.94,5,7.42,11.02,7.42,18.07v12.19h-16.7v-12.53c0-2.56-.91-4.74-2.73-6.56-1.82-1.82-4.01-2.73-6.56-2.73s-4.73.91-6.52,2.73c-1.79,1.82-2.69,4.01-2.69,6.56v58.47c0,2.56.9,4.73,2.69,6.52,1.79,1.79,3.96,2.68,6.52,2.68s4.74-.89,6.56-2.68c1.82-1.79,2.73-3.96,2.73-6.52v-14.74h16.7v14.91c0,7.1-2.5,13.12-7.5,18.07-5,4.94-10.99,7.41-17.98,7.41Z"/>
      <path class="cls-1" d="M705.69,63.91l-21.56-62.13h17.73l11.93,38.35,11.85-38.35h17.81l-21.65,62.13v44.74h-16.11v-44.74Z"/>
    </g>
  </g>
</svg>