<?xml version="1.0" encoding="UTF-8"?>
<svg id="Layer_2" data-name="Layer 2" xmlns="http://www.w3.org/2000/svg" viewBox="0 0 60 60">
  <defs>
    <style>
      .cls-1 {
        fill: #fff;
      }

      .cls-2 {
        fill: none;
      }
    </style>
  </defs>
  <g id="_レイヤー_2" data-name="レイヤー 2">
    <g>
      <g>
        <path class="cls-1" d="M36.39,51.12c-.93,0-1.86,0-2.78,0-.93,0-1.86,0-2.78,0-.59,0-1.18,0-1.78,0-.95,0-1.81-.33-2.64-1-.89-.72-1.81-1.45-2.69-2.16-1-.8-2.03-1.62-3.03-2.43-.55-.45-1.14-.66-1.81-.66-.03,0-.06,0-.09,0-.04,0-.08,0-.12,0-.04,0-.19,0-.23,0-.45,0-.91,0-1.36,0-.45,0-.91,0-1.36,0-.64,0-1.17,0-1.67.03-.05,0-.1,0-.15,0-1.1,0-2.12-.43-2.88-1.22-.73-.76-1.13-1.79-1.09-2.81,0-.09,0-.17,0-.26,0-.04,0-.09,0-.13v-.34h-4.77l-.02.32s0,.1-.01.14c0,.11-.02.22-.02.34,0,.56,0,1.12,0,1.69,0,.41,0,.82,0,1.23,0,.03,0,.06,0,.1,0,.11,0,.22-.01.31-.06.33-.36.59-.69.59h0c-.34,0-.65-.27-.7-.61-.01-.09-.01-.2-.01-.31,0-.04,0-.07,0-.11,0-4.98,0-9.96,0-14.94v-2.24c0-.98.49-.98.7-.99h.01c.17,0,.71,0,.71.96,0,.65,0,1.3,0,1.95v1.75s4.82,0,4.82,0v-.34c0-.09,0-.18,0-.27,0-.2,0-.4,0-.61-.03-.89.29-1.74.92-2.39.64-.66,1.52-1.04,2.43-1.04.02,0,.05,0,.07,0,.27,0,.57,0,.92,0,.25,0,.51,0,.77,0,.27,0,.54,0,.83,0h.34v-.34c0-.08,0-.15,0-.23,0-.15,0-.27,0-.4,0-.17.01-.33.01-.49,0-.39.01-.76.08-1.12.26-1.43,1.62-2.58,3.1-2.61.3,0,.63-.01,1.02-.01.28,0,.56,0,.84,0,.28,0,.56,0,.84,0h.26l.07-.24c.14-.47.15-3.67.05-4.39l-.04-.29h-.3c-.22,0-.44,0-.67,0-.22,0-.45,0-.67,0-.38,0-.69,0-.98,0-.29,0-.64-.02-.97-.08-1.39-.27-2.74-1.62-2.6-3.43.14-1.79,1.51-3.1,3.25-3.1,2.75,0,5.45-.01,8.03-.01s5.27,0,7.79.01c1.78,0,3.23,1.48,3.24,3.3,0,1.83-1.41,3.28-3.23,3.32-.25,0-.52,0-.86,0-.2,0-.4,0-.6,0-.2,0-.4,0-.6,0h-.95v4.87l.32.03s.08,0,.12.01c.1,0,.2.02.31.02.12,0,.24,0,.36,0,.17,0,.34,0,.51,0,.17,0,.34,0,.51,0,.33,0,.61,0,.85,0,1.79.03,3.21,1.45,3.23,3.25,0,.35,0,.69,0,1.06,0,.17,0,.35,0,.54v.34h.34c.25,0,.49,0,.73,0,.23,0,.46,0,.68,0,.38,0,.68,0,.97,0,.37,0,.73.02,1.06.1,1.5.35,2.55,1.67,2.57,3.2,0,.83,0,1.67,0,2.48,0,.37,0,.74,0,1.11v.89h4.83v-.71c0-.3,0-.6,0-.9,0-.08,0-.16,0-.24,0-.2,0-.38,0-.56.02-.3.21-.63.53-.64.16,0,.31,0,.47-.02.35-.01.71-.02,1.06-.02.52,0,.94.03,1.32.08,1.57.23,2.62,1.18,3.12,2.81.03.09.06.17.09.25,0,.01.01.03.02.04v9.67l-.04.13c-.04.14-.09.27-.13.41-.52,1.63-1.95,2.7-3.65,2.72-.31,0-.62,0-.93,0-.33,0-.66,0-.99,0-.61,0-.86-.26-.87-.89,0-.41,0-.82,0-1.22,0-.22,0-.43,0-.65,0-.06-.02-.11-.03-.14,0,0,0-.02-.01-.04l-.07-.25h-4.65l-.02.32s0,.07,0,.11c0,.1-.02.21-.02.33,0,.43,0,.86,0,1.29,0,.62,0,1.26,0,1.88,0,1.07-.41,2.06-1.14,2.79-.73.73-1.71,1.13-2.77,1.14-1.33,0-2.78,0-4.58,0ZM15.97,43.44c.56,0,1.13,0,1.68,0,.4,0,.79,0,1.19,0,.3,0,.57.02.83.06.67.1,1.29.4,2.01.98.85.68,1.72,1.37,2.56,2.04,1,.8,2.04,1.62,3.05,2.44.61.49,1.3.73,2.1.73h.03c1,0,2.09-.01,3.44-.01.7,0,1.4,0,2.1,0,.7,0,1.4,0,2.11,0h2.25c.52,0,1.03,0,1.55,0h.01c.73,0,1.34-.24,1.83-.71.51-.5.76-1.13.76-1.94,0-2.18,0-4.4,0-6.55v-2.35c0-.85,0-1.7,0-2.55,0-2.1,0-4.27.02-6.4,0-.6-.2-1.14-.59-1.53-.38-.38-.91-.6-1.47-.6-.03,0-.05,0-.08,0-.15,0-.32,0-.51,0s-.37,0-.56,0c-.19,0-.38,0-.57,0-.25,0-.46,0-.66.01-.03,0-.06,0-.09,0-.51,0-1-.22-1.35-.59-.34-.37-.52-.84-.49-1.32.03-.41.02-.81,0-1.21v-.17c-.03-1.12-.77-1.88-1.9-1.92-.06,0-.12,0-.18,0h-.19s-14.88,0-14.88,0h-.21c-.09,0-.16,0-.23,0-1.13.07-1.89.86-1.91,1.99,0,.22,0,.45,0,.67,0,.26,0,.53,0,.79-.02,1.04-.74,1.75-1.78,1.76-.25,0-.49,0-.74,0-.19,0-.38,0-.57,0-.19,0-.38,0-.57,0-.15,0-.3,0-.46,0-1.33,0-2.12.79-2.13,2.1,0,1.22,0,2.44,0,3.67,0,2.6,0,5.29-.01,7.94,0,.74.27,1.43.77,1.93.48.49,1.14.75,1.86.75.03,0,.05,0,.08,0,.57-.02,1.18-.02,1.91-.02ZM51.94,45.01c.08,0,.15,0,.2,0,.07,0,.14,0,.21,0h0c.71,0,1.33-.25,1.8-.73.5-.51.77-1.23.76-2-.03-1.61-.02-3.26-.02-4.85,0-.69,0-1.37,0-2.06,0-.12,0-.24,0-.36,0-.29,0-.6,0-.9-.05-1.31-1.05-2.31-2.36-2.36-.11,0-.23,0-.38,0-.1,0-.21,0-.32,0-.11,0-.22,0-.34,0h-.34v13.26h.34c.08,0,.16,0,.24,0,.07,0,.13,0,.19,0ZM44.92,41.75h4.75v-6.81l-.31-.03s-.06,0-.08-.01c-.06,0-.12-.02-.18-.02-.82,0-1.65,0-2.48,0h-1.69v6.87ZM5.11,32.13c0,.82,0,1.64,0,2.46,0,1.22,0,2.47,0,3.7v.34h4.8v-6.84h-4.81v.34ZM23.99,20.41h6.85v-4.86h-6.85v4.86ZM35.01,14.09s.07,0,.11,0c.09,0,.16,0,.23,0,.95-.08,1.69-.8,1.76-1.71.08-1.01-.53-1.82-1.52-2.03-.19-.04-.37-.04-.56-.04h-.08c-1.52,0-3.04,0-4.55,0h-10.49s-.07,0-.11,0c-.04,0-.08,0-.12,0-.07,0-.17,0-.27.01-.92.09-1.64.79-1.73,1.67-.09,1,.47,1.79,1.43,2.03.25.06.51.07.75.07,3.17,0,6.34,0,9.52,0h5.53s.07,0,.1,0Z"/>
        <path class="cls-1" d="M17.99,38.02c-1.54,0-2.8-1.25-2.81-2.78,0-.73.28-1.43.82-1.97.54-.55,1.25-.85,2-.85h.02c1.52,0,2.8,1.3,2.79,2.82,0,1.53-1.27,2.78-2.81,2.78h0ZM17.97,33.85c-.75,0-1.35.63-1.34,1.39,0,.77.59,1.35,1.36,1.35h.01c.37,0,.71-.15.96-.4.25-.26.38-.6.38-.97,0-.75-.61-1.36-1.36-1.36h-.02Z"/>
        <path class="cls-1" d="M36.74,38.02c-.74-.01-1.44-.32-1.96-.86-.52-.54-.8-1.25-.79-2,.03-1.51,1.3-2.74,2.82-2.74.02,0,.03,0,.05,0,.74.01,1.43.31,1.94.85.52.54.8,1.26.79,2.02-.03,1.53-1.26,2.73-2.81,2.73h-.05ZM36.8,33.85c-.72,0-1.35.61-1.37,1.34-.01.36.12.7.37.97.25.27.61.43.97.43h.04c.76,0,1.35-.57,1.36-1.33.01-.76-.56-1.38-1.32-1.41-.01,0-.03,0-.04,0Z"/>
        <path class="cls-1" d="M27.4,38.02c-1.56,0-2.79-1.22-2.8-2.77,0-1.55,1.24-2.82,2.77-2.83h.02c1.54,0,2.8,1.25,2.81,2.78,0,1.54-1.24,2.81-2.78,2.82h-.02ZM27.39,33.85c-.72,0-1.34.61-1.36,1.34,0,.37.12.72.37.98.25.26.59.41.96.42h.03c.75,0,1.36-.58,1.38-1.32.02-.74-.59-1.39-1.33-1.42-.02,0-.03,0-.05,0Z"/>
      </g>
      <rect class="cls-2" width="60" height="60"/>
    </g>
  </g>
</svg>