<?xml version="1.0" encoding="UTF-8"?>
<svg id="Layer_2" data-name="Layer 2" xmlns="http://www.w3.org/2000/svg" viewBox="0 0 280 204.42">
  <defs>
    <style>
      .cls-1 {
        fill: #fff;
      }

      .cls-2 {
        fill: none;
      }
    </style>
  </defs>
  <g id="_レイヤー_2" data-name="レイヤー 2">
    <g>
      <g>
        <path class="cls-1" d="M42.68,48.49h39.36c1.27,0,2.3-1.03,2.3-2.3s-1.03-2.3-2.3-2.3h-39.36c-1.27,0-2.3,1.03-2.3,2.3s1.03,2.3,2.3,2.3Z"/>
        <path class="cls-1" d="M42.68,177.21c25.4,0,58.87-4.27,76.55-6.82,10.09-1.45,17.66-10.25,17.66-20.48v-12.33l-9.23-36.78c-.16-.65-.6-1.2-1.2-1.5l-12.83-6.41,12.36-3.09c1.02-.26,1.74-1.18,1.74-2.23v-9.19c0-1.05-.71-1.97-1.73-2.23l-11.86-3.03c-1.2-.31-2.48.43-2.79,1.66s.43,2.48,1.66,2.8l10.13,2.59v5.61l-14.23,3.56-6.2-37.35c-1.64-9.85-10.42-17.28-20.39-17.28h-39.63c-1.27,0-2.3,1.03-2.3,2.3s1.03,2.3,2.3,2.3h39.63c7.76,0,14.57,5.78,15.85,13.44l6.24,37.51c-7.3,1.06-31.48,4.22-61.71,4.22-1.27,0-2.3,1.03-2.3,2.3s1.03,2.3,2.3,2.3c33.25,0,59.35-3.79,64-4.51l16.78,8.39.09.34-35.74,14.33c-.72.29-1.25.92-1.4,1.67-.15.76.08,1.54.63,2.09l9.19,9.19c.43.43,1.01.67,1.63.67h18.39c.36,0,.71-.09,1.02-.24l11.78-5.89,3.28,13.03v11.77c0,7.96-5.91,14.81-13.76,15.93-17.56,2.53-50.78,6.78-75.89,6.78-1.27,0-2.3,1.03-2.3,2.3s1.03,2.3,2.3,2.3ZM115.7,126.64h-16.9l-6.06-6.06,31.94-12.81,3.22,12.77-12.2,6.1Z"/>
        <path class="cls-1" d="M117.93,161.28c4.05-.56,7.58-3.37,9.01-7.17.44-1.19-.16-2.51-1.35-2.96-1.2-.46-2.51.15-2.96,1.34-.84,2.24-2.93,3.9-5.31,4.22-2.87.37-6.11.84-9.37,1.36h-.09c-1.27,0-2.08,1.01-2.08,2.29s1.26,2.29,2.52,2.29c3.57-.55,6.77-1.01,9.63-1.38Z"/>
        <path class="cls-1" d="M42.68,158.82c-1.27,0-2.3,1.03-2.3,2.3s1.03,2.3,2.3,2.3c36.9,0,46.6-4.64,47-4.84.22-.11.43-.26.6-.43l9.19-9.19c.9-.9.9-2.35,0-3.25l-18.39-18.39c-.43-.43-1.01-.67-1.63-.67h-36.78c-1.27,0-2.3,1.03-2.3,2.3s1.03,2.3,2.3,2.3h35.83l16.09,16.09-7.25,7.25c-1.87.71-12.74,4.24-44.67,4.24Z"/>
        <path class="cls-1" d="M97.84,177.86c-1.27,0-2.3,1.03-2.3,2.3v8.55c0,3.87,3.03,6.9,6.9,6.9h18.39c3.87,0,6.9-3.03,6.9-6.9v-12.87c0-1.27-1.03-2.3-2.3-2.3s-2.3,1.03-2.3,2.3v12.87c0,1.31-.99,2.3-2.3,2.3h-18.39c-1.31,0-2.3-.99-2.3-2.3v-8.55c0-1.27-1.03-2.3-2.3-2.3Z"/>
        <path class="cls-1" d="M148.42,85.27c-1.27,0-2.3,1.03-2.3,2.3s1.03,2.3,2.3,2.3h2.7c.95,2.67,3.5,4.6,6.49,4.6h22.34l-1.49,5.95-8.97,13.46c-.7,1.06-.43,2.48.64,3.19,1.14.76,2.56.33,3.19-.64l9.19-13.79c.14-.22.25-.46.31-.72l1.86-7.45h3.22l4.6,22.99h-7.31c-1.27,0-2.3,1.03-2.3,2.3s1.03,2.3,2.3,2.3h8.23l3.31,16.54c.21,1.07,1.16,1.85,2.25,1.85h5.95c.32,4,.94,14.33.94,34.48,0,11.02,9.67,20.69,20.69,20.69,1.27,0,2.3-1.03,2.3-2.3s-1.03-2.3-2.3-2.3c-9.21,0-16.09-8.49-16.09-16.09,0-19.79-.58-30.12-.93-34.48h5.98c1.45,0,2.54-1.33,2.25-2.75l-7.2-36,4.25-8.49c.77-1.57-.36-3.32-2.06-3.32h-6.9v-4.6h6.9c1.27,0,2.3-1.03,2.3-2.3s-1.03-2.3-2.3-2.3h-8.24l-8.52-8.52c-.43-.43-1.02-.67-1.63-.67h-6.32l2.78-4.83,17.92-4.81c.59-.15,1.1-.54,1.4-1.07l18.39-31.81c.63-1.1.26-2.51-.84-3.14l-31.81-18.39c-1.08-.63-2.51-.26-3.14.84l-18.39,31.81c-.3.52-.39,1.15-.23,1.73l4.73,17.93-6.78,11.74h-14.48c-2.99,0-5.54,1.93-6.49,4.6h-2.7c-1.27,0-2.3,1.03-2.3,2.3s1.03,2.3,2.3,2.3h2.3v4.6h-2.3ZM195.6,12.55l27.83,16.09-2.3,3.98-27.84-16.07,2.31-3.99ZM183.33,61.22c.3-.52.39-1.15.23-1.73l-4.73-17.93,12.16-21.03,27.84,16.07-12.16,21.03-17.92,4.81c-.59.15-1.1.54-1.4,1.07l-4.58,7.96h-5.35l5.92-10.25ZM164.51,76.07h28.93l7.85,7.85v8.24c0,1.27,1.03,2.3,2.3,2.3h5.48l-2.94,5.87c-.22.45-.3.97-.2,1.47l6.81,34.03h-11.86l-8.83-44.12c-.22-1.08-1.16-1.85-2.25-1.85h-3.96l1.58-6.34c.31-1.23-.44-2.48-1.67-2.78-1.28-.35-2.48.45-2.78,1.67l-1.87,7.45h-7.4v-6.9c0-1.27-1.03-2.3-2.3-2.3s-2.3,1.03-2.3,2.3v6.9h-4.6v-13.79ZM155.31,78.37c0-1.27,1.03-2.3,2.3-2.3h2.3v13.79h-2.3c-1.27,0-2.3-1.03-2.3-2.3v-9.19Z"/>
      </g>
      <rect class="cls-2" y="0" width="280" height="204.42"/>
    </g>
  </g>
</svg>