<?xml version="1.0" encoding="UTF-8"?>
<svg id="Layer_2" data-name="Layer 2" xmlns="http://www.w3.org/2000/svg" viewBox="0 0 60 60">
  <defs>
    <style>
      .cls-1 {
        fill: #fff;
      }

      .cls-2 {
        fill: none;
      }
    </style>
  </defs>
  <g id="_レイヤー_2" data-name="レイヤー 2">
    <g>
      <path class="cls-1" d="M36.15,51.31c-.17-.09-.3-.24-.45-.48-.27-.43-.54-.87-.81-1.3-.24-.38-.49-.78-.73-1.17-.13-.21-.32-.43-.72-.43-1.14,0-2.3,0-3.43,0s-2.29,0-3.43,0c-.42,0-.61.23-.73.43-.24.39-.49.79-.73,1.18-.26.42-.54.86-.8,1.29-.14.23-.28.38-.45.48h-14.78c-.29-.15-.4-.39-.4-.82,0-2.37,0-4.78,0-7.12,0-1.12,0-2.25,0-3.37,0-.11,0-.21,0-.3,0-.33,0-.45.05-.56.06-.12.21-.28.5-.58l.06-.07c1.09-1.12,2.18-2.24,3.27-3.36,1.38-1.42,2.76-2.83,4.14-4.24.18-.19.38-.43.3-.83-.35-1.79-.3-3.64.15-5.48.09-.38.01-.65-.26-.93-.85-.84-1.7-1.69-2.53-2.52-.34-.34-.68-.68-1.02-1.02-.06-.06-.13-.12-.2-.19-.04-.04-.08-.07-.13-.12l-.2-.19-.19.2c-.08.09-.16.18-.24.26-.17.19-.33.37-.5.54-.18.18-.34.27-.49.27s-.32-.09-.51-.28c-.44-.43-.9-.89-1.36-1.37-1.1-1.14-1.1-2.72,0-3.84,1.94-1.96,3.92-3.95,5.89-5.89.56-.55,1.22-.84,1.93-.84s1.38.29,1.94.84c.33.32.66.66.98.98.1.1.2.2.29.3.46.47.47.69.01,1.16-.16.17-.33.33-.48.48l-.39.39,3.48,3.51.18-.1c2.21-1.18,4.45-1.78,6.66-1.78s4.4.59,6.57,1.75l.18.1,3.53-3.53-.2-.2c-.07-.07-.14-.14-.22-.21-.18-.17-.37-.34-.55-.53-.29-.31-.3-.59-.01-.89.62-.65,1.11-1.13,1.57-1.56.49-.45,1.09-.68,1.78-.68h.03c.75,0,1.41.3,2.01.91,1.62,1.63,3.45,3.47,5.28,5.27.55.54,1.1,1.13,1.32,1.93v1.02c-.17.67-.57,1.27-1.24,1.88-.2.18-.39.37-.57.56-.1.1-.2.21-.3.31-.22.22-.4.32-.56.32-.16,0-.34-.11-.57-.33-.16-.16-.32-.32-.49-.49l-.42-.42-.2.19s-.07.06-.1.09c-.06.06-.12.11-.17.17-.32.32-.64.64-.96.97-.85.85-1.74,1.74-2.61,2.6-.27.27-.35.54-.25.93.43,1.76.49,3.55.17,5.31-.08.43.02.74.33,1.05,2.51,2.56,5.01,5.13,7.55,7.75.11.11.2.24.3.37.03.04.06.08.09.12v12.1h-15.16ZM17.11,32.19s-.02.01-.03.02c-.03.03-.08.07-.13.11l-1.75,1.79c-1.66,1.71-3.38,3.47-5.08,5.21-.24.25-.28.52-.28.72,0,2.11,0,4.23,0,6.34,0,1.05,0,2.09,0,3.14,0,.1,0,.18.02.27,0,.04,0,.07,0,.1l.02.26h13.47s.14-.22.17-.27c.07-.1.13-.2.19-.29.13-.21.26-.42.4-.63.36-.58.74-1.17,1.1-1.76.17-.28.38-.4.73-.4,1.31,0,2.68,0,4.06,0,1.3,0,2.67,0,4.07,0,.33,0,.53.11.7.39.37.61.76,1.23,1.14,1.83.13.21.27.43.4.64.06.09.12.18.17.27l.06.1.08.13h13.52s0-2.09,0-2.76c0-2.37,0-4.82,0-7.23,0-.37-.12-.66-.39-.93-1.57-1.61-3.17-3.25-4.71-4.83-.63-.65-1.27-1.3-1.9-1.95-.07-.07-.14-.13-.2-.18-.02-.02-.04-.04-.06-.05l-.27-.24-1.75,3.39.12.14.06.07c.05.06.1.12.15.18.28.32.56.65.84.97.67.78,1.37,1.58,2.05,2.37.25.3.52.52.85.69,1.42.77,2.18,2.41,1.86,3.98-.33,1.61-1.69,2.85-3.31,3-.12.01-.24.02-.36.02-1.76,0-3.26-1.22-3.66-2.97-.41-1.8.62-3.65,2.4-4.29.09-.03.17-.06.27-.1l.53-.2-2.58-2.98-.21.23c-2.74,2.95-6.07,4.45-9.9,4.45h0c-3.83,0-7.17-1.5-9.9-4.45l-.21-.23-2.59,3,.39.14c.07.03.14.05.2.07.11.04.21.07.3.1,1.85.7,2.84,2.72,2.25,4.6-.5,1.58-1.93,2.64-3.57,2.64-.3,0-.6-.04-.89-.11-1.46-.36-2.61-1.61-2.8-3.04-.22-1.63.51-3.11,1.9-3.86.31-.17.57-.38.79-.64.41-.49.84-.98,1.26-1.46.2-.24.41-.47.61-.71.3-.35.6-.69.88-1.03l.5-.58-1.75-3.4-.27.23ZM43.15,40.45c-1.42,0-2.56,1.17-2.56,2.59,0,1.42,1.16,2.57,2.57,2.57h.01c1.42,0,2.56-1.17,2.56-2.6,0-1.42-1.16-2.57-2.57-2.57h-.01ZM16.87,40.45c-1.42,0-2.57,1.16-2.57,2.58,0,1.42,1.15,2.58,2.57,2.59,1.42,0,2.57-1.16,2.57-2.58,0-1.42-1.15-2.58-2.57-2.59h0ZM20.7,35.31l.15.18c2.24,2.71,5.58,4.26,9.16,4.26,3.61,0,6.95-1.55,9.16-4.26l.15-.18-2.28-2.63-.21.26c-1.82,2.22-4.11,3.35-6.82,3.35-2.71,0-5-1.13-6.82-3.35l-.21-.25-2.28,2.63ZM23.78,31.76l.13.18c1.58,2.11,3.68,3.17,6.22,3.17.06,0,.13,0,.19,0,2.53-.05,4.97-1.74,5.77-3.27l.09-.17-2.05-2.36-.2.34c-.92,1.59-2.24,2.4-3.92,2.4h-.01c-1.68,0-3-.81-3.93-2.4l-.2-.34-2.11,2.44ZM30.03,15.64c-3.16,0-6.16,1.22-8.43,3.43-4.65,4.53-4.39,11.1-1.79,14.97l.21.31.24-.29.07-.09c.05-.06.09-.11.14-.17.14-.16.28-.33.42-.49.36-.42.74-.86,1.12-1.28.32-.35.25-.67.13-.93-.7-1.6-.88-3.29-.56-5.03.37-2,1.45-3.79,3.05-5.06,1.54-1.23,3.47-1.91,5.42-1.91,1.45,0,2.83.36,4.11,1.08,1.88,1.05,3.3,2.74,3.98,4.75.68,2.01.59,4.21-.27,6.2-.15.35-.11.62.13.89.36.4.72.82,1.07,1.22.17.2.34.39.51.59.06.06.11.12.17.17.02.02.05.04.07.07l.24.24.19-.29c2.69-4.15,2.79-10.97-2.34-15.44-2.18-1.9-4.98-2.95-7.88-2.95ZM30.01,24.5c-.87,0-1.68.34-2.28.95-.6.61-.93,1.42-.93,2.28.01,1.75,1.46,3.18,3.21,3.18,1.77,0,3.21-1.43,3.22-3.18,0-.86-.33-1.66-.93-2.27-.61-.61-1.42-.95-2.29-.95h0ZM30.01,23.33c.05,0,.11,0,.16,0,2.24.09,4.04,1.84,4.2,4.08.02.32.12.56.33.8.34.39.69.79,1.03,1.18.17.2.35.4.52.6.06.07.12.13.18.2.03.03.06.06.08.09l.3.31.16-.4c1.02-2.47.44-6.29-2.62-8.5-1.26-.92-2.76-1.4-4.33-1.4-1.95,0-3.79.74-5.19,2.1-2.34,2.26-2.73,5.82-1.75,7.81l.19.38.27-.32c.15-.18.3-.35.45-.53.35-.4.7-.82,1.07-1.22.3-.33.68-.74.6-1.39,0-.01,0-.04.01-.06,0-.03.02-.07.03-.12.34-2.06,2.19-3.61,4.29-3.61ZM37.87,17.06l.25.19c1.77,1.39,3.12,3.14,4.04,5.19l.16.37,3.94-3.93-5.1-5.1-3.29,3.28ZM13.79,18.79l3.95,3.96.16-.37c.88-2,2.22-3.71,3.96-5.1l.24-.19-3.31-3.31-5.01,5.01ZM17.32,9.86c-.4,0-.78.17-1.11.5-1.95,1.94-3.89,3.89-5.83,5.84-.1.1-.18.2-.25.3-.37.54-.36,1.23.02,1.71.22.28.47.52.7.76.1.1.2.2.29.29l.2.21,8.13-8.13-.2-.2c-.08-.08-.17-.16-.25-.25-.23-.22-.46-.46-.7-.68-.1-.1-.25-.18-.42-.24-.19-.07-.38-.11-.56-.11ZM42.68,9.86c-.37,0-.72.14-1.01.39-.22.2-.44.41-.64.6-.09.08-.17.16-.25.24l-.2.2,8.15,8.14.2-.2c.08-.08.16-.16.25-.25.21-.21.42-.42.63-.66.49-.56.5-1.34.03-1.94-.08-.1-.17-.2-.26-.28l-.02-.02c-1.87-1.88-3.75-3.75-5.63-5.63l-.04-.04c-.07-.07-.15-.15-.23-.22-.29-.23-.62-.35-.97-.35Z"/>
      <rect class="cls-2" width="60" height="60"/>
    </g>
  </g>
</svg>