<?xml version="1.0" encoding="UTF-8"?>
<svg id="Layer_2" data-name="Layer 2" xmlns="http://www.w3.org/2000/svg" viewBox="0 0 60 60">
  <defs>
    <style>
      .cls-1 {
        fill: #fff;
      }

      .cls-2 {
        fill: none;
      }
    </style>
  </defs>
  <g id="_レイヤー_2" data-name="レイヤー 2">
    <g>
      <g>
        <path class="cls-1" d="M27.5,53.86s-.05-.01-.08-.02c-.09-.02-.19-.05-.3-.05-1.49-.11-2.99-.39-4.47-.83-4.76-1.41-8.67-4.06-11.63-7.88-4.24-5.48-5.74-11.7-4.46-18.49,1.55-8.25,7.52-14.95,15.58-17.5,2.23-.71,4.51-1.06,6.78-1.06.63,0,1.27.03,1.9.08.36.03.72.06,1.09.1l.78.07.07-.25c.04-.13.07-.25.1-.37.08-.27.15-.52.22-.78.17-.58.42-.66.66-.66.1,0,.22.02.34.05,1.25.32,2.48.67,3.65,1.04.42.13.83.3,1.24.47.19.08.38.16.57.24l.2.08.15-.15s.01-.01.02-.02c.03-.03.07-.07.11-.14.08-.16.16-.31.24-.47.11-.22.22-.44.34-.66.23-.45.46-.5.6-.5.14,0,.3.05.49.14,4.01,2.03,7.38,4.95,10.03,8.67.87,1.23,1.58,2.51,2.16,3.62v.42c-.11.21-.29.37-.59.5-.27.13-.53.26-.79.39-.1.05-.2.1-.3.15l-.24.12.09.26c.13.36.25.72.38,1.07.3.84.58,1.63.84,2.44.2.63.35,1.3.49,1.95l.02.08c.12.55-.04.81-.6.98-.14.04-.28.08-.42.12-.12.03-.23.06-.35.1-.1.03-.19.06-.28.09-.04.01-.08.03-.13.04l-.24.08.07.79c.03.38.07.75.1,1.13.19,2.16.03,4.36-.45,6.56-1.15,5.16-3.8,9.48-7.86,12.85-3.38,2.8-7.32,4.49-11.71,5.02-.29.04-.58.07-.86.11-.13.02-.25.03-.38.05h-3.16ZM28.99,9.33c-8.07,0-15.64,4.71-19.29,12-4.29,8.58-2.32,19.1,4.79,25.58,4.01,3.66,9.2,5.67,14.62,5.67,4,0,7.9-1.11,11.29-3.22,8.55-5.32,11.21-14.54,10.05-21.3l-.05-.31-.31.06s-.06.01-.1.02c-.08.01-.16.03-.25.05-.21.06-.43.12-.64.17-.24.07-.48.13-.72.2-.08.02-.15.03-.22.03-.2,0-.36-.09-.49-.27-.09-.13-.14-.33-.18-.5-1.48-7-6.66-12.6-13.51-14.61-.31-.09-.62-.17-.93-.24-.27-.06-.54-.13-.81-.21-.41-.12-.58-.41-.48-.83.02-.1.05-.19.08-.29.02-.06.04-.13.05-.19.07-.27.15-.55.22-.83l.19-.71-.34-.05c-.98-.15-1.98-.22-2.98-.22ZM33.2,11.33l.31.08c3.71.96,6.94,2.8,9.61,5.46,2.68,2.67,4.53,5.92,5.5,9.65l.08.31,3.64-1.02-.03-.26c-.1-1.01-1.07-3.83-1.55-4.5l-.14-.2-.23.09s-.05.02-.08.03c-.05.02-.11.04-.16.06-.12.04-.23.07-.33.07-.14,0-.35-.04-.55-.37-.04-.07-.08-.15-.13-.23l-.04-.08c-2.01-3.85-4.95-6.91-8.73-9.08-.17-.1-.35-.19-.52-.28-.18-.1-.38-.2-.55-.3-.36-.21-.45-.47-.3-.88.02-.07.05-.14.07-.22.01-.04.02-.07.04-.11l.09-.27-.26-.11c-1.63-.72-3.03-1.19-4.42-1.48l-.29-.06-1.02,3.7ZM40.43,9.88l.26.14c3.96,2.21,7.09,5.34,9.3,9.3l.15.26,2.18-1.09-.13-.27c-1.74-3.79-7.2-9.23-10.44-10.39l-.26-.09-1.06,2.14Z"/>
        <path class="cls-1" d="M29.05,46.29c-4.12,0-7.97-1.6-10.86-4.5-2.89-2.9-4.47-6.76-4.46-10.87,0-4.1,1.61-7.94,4.5-10.82,2.89-2.88,6.74-4.47,10.86-4.5,4.11.03,7.96,1.63,10.85,4.52,2.88,2.89,4.47,6.73,4.48,10.83,0,4.11-1.59,7.97-4.48,10.86-2.89,2.89-6.74,4.49-10.85,4.49h-.02ZM29.05,16.91c-3.73,0-7.24,1.46-9.89,4.09-2.68,2.66-4.15,6.21-4.14,9.99.02,7.69,6.33,13.98,14.06,14.01,3.77-.02,7.31-1.5,9.97-4.19,2.64-2.66,4.08-6.18,4.05-9.9-.05-7.72-6.34-14-14.03-14h-.03Z"/>
        <path class="cls-1" d="M29.06,42.51c-6.37,0-11.55-5.2-11.55-11.56,0-3.07,1.2-5.97,3.39-8.15,2.19-2.19,5.09-3.39,8.16-3.39,3.08,0,5.98,1.2,8.17,3.39,2.18,2.18,3.39,5.08,3.38,8.16,0,6.37-5.18,11.55-11.53,11.55h-.02ZM23.9,34.17c.14,0,.3.06.48.19.93.66,1.9,1.37,2.9,2.1.4.3.46.55.21,1-.29.53-.58,1.07-.87,1.59-.16.28-.31.56-.46.84-.05.09-.09.17-.14.27-.02.05-.05.1-.08.16l-.17.34.36.1c.98.28,1.97.42,2.93.42s1.97-.14,2.95-.43l.37-.11-.18-.34c-.04-.07-.07-.13-.1-.19-.06-.12-.12-.22-.17-.32-.15-.26-.29-.53-.44-.79-.28-.5-.56-1.01-.83-1.52-.26-.47-.2-.73.22-1.04,1.04-.76,1.97-1.44,2.86-2.08.2-.14.36-.21.5-.21.11,0,.28.03.55.32.69.72,1.36,1.44,1.87,1.99.05.06.1.13.15.22.03.05.06.1.09.15l.24.36.26-.34c1.36-1.75,2.08-4.73,1.82-5.74l-.07-.27-.28.04s-.06,0-.08.01c-.07,0-.14.02-.2.03l-.27.05c-.84.16-1.67.32-2.51.48-.11.02-.2.03-.29.03-.29,0-.51-.1-.67-.57-.4-1.2-.78-2.4-1.07-3.31-.18-.55-.08-.77.46-1.03.43-.21.87-.41,1.3-.61.4-.19.81-.38,1.21-.57.08-.04.16-.09.24-.13.04-.02.07-.04.11-.07l.31-.18-.22-.28c-1.29-1.64-2.84-2.76-4.74-3.44l-.34-.12-.07.35c-.01.05-.02.1-.03.14-.02.09-.03.16-.04.24-.05.36-.09.71-.14,1.07-.07.58-.15,1.19-.23,1.78-.07.49-.28.69-.76.69-.6,0-1.21,0-1.79,0s-1.2,0-1.79,0c-.46,0-.68-.2-.74-.66-.07-.45-.12-.92-.18-1.37-.03-.24-.06-.49-.09-.73-.03-.25-.07-.5-.1-.76l-.11-.77-.36.13c-1.94.7-3.49,1.83-4.77,3.47l-.23.3.34.17.13.06c.07.04.13.06.19.09.27.13.54.25.81.38.6.28,1.22.57,1.83.86.59.28.46.69.42.82-.37,1.18-.76,2.39-1.18,3.62-.1.29-.3.44-.6.44-.04,0-.09,0-.14,0-.14-.02-.28-.05-.43-.08-.08-.02-.17-.04-.25-.05-.61-.12-1.23-.23-1.87-.35l-1.11-.21v.38c.04,2.03.65,3.88,1.85,5.66l.24.35.26-.33c.04-.05.08-.1.12-.15.07-.09.13-.17.19-.23l.23-.25c.53-.57,1.09-1.17,1.64-1.74.2-.2.37-.3.54-.3ZM32,37.25l1.6,2.9.27-.15c.93-.51,1.66-1.05,2.31-1.69l.21-.21-2.26-2.4-2.14,1.56ZM21.74,38.09l.21.21c.66.66,1.41,1.21,2.31,1.69l.27.14,1.6-2.9-2.14-1.56-2.25,2.41ZM35.14,27.59l.82,2.51,3.24-.62-.05-.3c-.14-.93-.42-1.8-.88-2.73l-.14-.28-3,1.41ZM19.87,26.46c-.46.93-.74,1.8-.88,2.73l-.04.3,3.24.62.81-2.51-2.99-1.41-.14.27ZM29.11,20.71c-.26,0-1.15.02-1.56.21l-.2.1.4,3.11h2.64l.39-3.2-.26-.07c-.33-.09-.85-.15-1.41-.15Z"/>
        <path class="cls-1" d="M29.07,33.49c-1.42,0-2.53-1.12-2.53-2.54,0-1.42,1.11-2.53,2.53-2.53,1.4,0,2.54,1.14,2.54,2.54,0,1.42-1.11,2.53-2.54,2.53h0ZM29.07,29.71c-.68,0-1.24.55-1.24,1.24,0,.68.55,1.25,1.23,1.25h0c.68,0,1.24-.55,1.25-1.23,0-.32-.13-.64-.36-.88-.23-.24-.55-.37-.87-.38h0Z"/>
      </g>
      <rect class="cls-2" width="60" height="60"/>
    </g>
  </g>
</svg>