<?xml version="1.0" encoding="UTF-8"?>
<svg id="Layer_2" data-name="Layer 2" xmlns="http://www.w3.org/2000/svg" viewBox="0 0 60 60">
  <defs>
    <style>
      .cls-1 {
        fill: #fff;
      }

      .cls-2 {
        fill: none;
      }
    </style>
  </defs>
  <g id="_レイヤー_2" data-name="レイヤー 2">
    <g>
      <g>
        <path class="cls-1" d="M28.56,50.75s-.05-.01-.07-.02c-.08-.02-.16-.04-.24-.05-.28-.04-.56-.07-.83-.11-.55-.07-1.12-.14-1.67-.26-5.93-1.32-10.51-4.59-13.59-9.73-2.68-4.45-3.52-9.37-2.52-14.62.79-4.11,2.71-7.71,5.71-10.68,3.59-3.56,7.98-5.57,13.03-5.99.56-.05,1.13-.07,1.68-.07,1.68,0,3.37.21,5.02.63,3.91.99,7.29,2.99,10.04,5.92,3.08,3.3,4.93,7.24,5.47,11.71.03.24.06.48.1.72.01.11.03.21.04.32v2.91s-.01.06-.02.08c-.02.08-.04.17-.05.26-.04.27-.08.55-.11.82-.07.55-.14,1.12-.26,1.67-.92,4.29-3,7.97-6.2,10.94-3.28,3.03-7.18,4.84-11.61,5.38-.24.03-.49.06-.72.1-.1.01-.21.03-.31.04h-2.91ZM15.15,17.22c-6.75,7.68-6.3,19.39,1.02,26.68,3.73,3.71,8.65,5.75,13.86,5.75s10.16-2.05,13.86-5.78c7.28-7.32,7.73-19,1.03-26.59l-.19-.21-1.54,1.45.17.2c4.01,4.73,4.2,10.01,4.09,12.05-.24,4.57-1.99,8.5-5.2,11.67-3.28,3.24-7.63,5.03-12.24,5.03-3.75,0-7.33-1.18-10.36-3.41-3.39-2.5-5.6-5.8-6.57-9.79-1.37-5.66-.16-10.91,3.59-15.59l.15-.19-1.49-1.49-.19.22ZM16.81,32.32c.62,0,1.44,0,2.25,0,.8,0,1.62.13,2.43.36,4.17,1.2,6.99,4.93,7.02,9.28,0,.82,0,1.65,0,2.45,0,.37,0,.75,0,1.12v.71l.24.03c.44.05.85.08,1.27.08s.83-.03,1.25-.08l.24-.03v-.65c0-.38,0-.76,0-1.14,0-.85,0-1.73,0-2.59,0-1.39.29-2.66.82-3.78,1.76-3.66,4.71-5.59,8.74-5.74.49-.02,1.02-.03,1.65-.03.45,0,.91,0,1.35,0,.44,0,.9,0,1.35,0h.73s.03-.23.03-.23c.21-1.42.2-2.85-.02-4.39l-.02-.13-.11-.07s-.06-.03-.08-.05c-.06-.04-.12-.07-.18-.11-4.47-2.49-9.34-3.86-14.47-4.08-.45-.02-.91-.03-1.36-.03-2.88,0-5.77.4-8.59,1.17-2.47.68-4.87,1.67-7.13,2.92-.21.12-.43.29-.44.66,0,.23-.03.46-.06.71-.02.19-.04.39-.05.59-.05.86-.01,1.74.13,2.79l.03.23h1.15s1.81,0,1.81,0ZM17.31,33.44c-.44,0-.88,0-1.31,0-.44,0-.87,0-1.31,0-.07,0-.13,0-.21.02-.03,0-.07,0-.12.01l-.31.03.07.3c.8,3.24,2.44,6.02,4.88,8.24,2.28,2.08,4.98,3.43,8.03,4l.29.06.03-.3s0-.09.01-.13c0-.08.02-.15.02-.23,0-.3,0-.6,0-.91,0-.89,0-1.81,0-2.71,0-.8-.14-1.6-.38-2.38-1.09-3.51-4.27-5.92-7.93-6.01-.52-.01-1.09-.02-1.77-.02ZM43.2,33.45c-.85,0-1.5,0-2.11,0-.41,0-.81.03-1.18.09-4.16.63-7.22,4.14-7.27,8.36-.01.87,0,1.75,0,2.6,0,.31,0,.62,0,.93,0,.09.01.17.02.25,0,.03,0,.06.01.09l.02.25h.25c2-.01,5.87-1.91,8.1-3.97,2.46-2.27,4.05-4.97,4.86-8.24l.08-.32-.33-.02c-.06,0-.1,0-.14,0-.07,0-.13,0-.19,0-.34,0-.68,0-1.01,0-.37,0-.73,0-1.1,0ZM30.02,22.12c5.3,0,10.43,1.23,15.26,3.67l.53.27-.15-.58c-1.52-5.87-7.38-11.8-15.63-11.8-.14,0-.28,0-.42,0-8.14.2-13.83,6.08-15.24,11.8l-.14.57.53-.27c4.82-2.43,9.94-3.66,15.24-3.66h.02ZM30.03,12.55c4.6,0,8.67,1.65,12.11,4.89l.19.18,1.48-1.49-.19-.19c-3.49-3.53-8.46-5.56-13.61-5.56s-10.12,2.02-13.61,5.54l-.19.19,1.48,1.5.19-.18c3.45-3.24,7.53-4.88,12.13-4.88h.02Z"/>
        <path class="cls-1" d="M30.01,33.45c-1.04,0-2.01-.4-2.73-1.13-.73-.73-1.12-1.7-1.12-2.73,0-1.03.4-2,1.13-2.72.72-.72,1.69-1.12,2.72-1.12,1.03,0,2,.4,2.73,1.12.72.72,1.13,1.69,1.13,2.72,0,2.12-1.71,3.85-3.83,3.86h-.02ZM30.02,26.87c-1.5,0-2.72,1.21-2.73,2.7,0,.74.28,1.44.79,1.96.51.52,1.2.8,1.93.8,1.5,0,2.72-1.22,2.73-2.72,0-1.5-1.21-2.73-2.71-2.73h-.01Z"/>
      </g>
      <rect class="cls-2" width="60" height="60"/>
    </g>
  </g>
</svg>