<?xml version="1.0" encoding="UTF-8"?>
<svg id="Layer_2" data-name="Layer 2" xmlns="http://www.w3.org/2000/svg" viewBox="0 0 60 60">
  <defs>
    <style>
      .cls-1 {
        fill: #fff;
      }

      .cls-2 {
        fill: none;
      }
    </style>
  </defs>
  <g id="_レイヤー_2" data-name="レイヤー 2">
    <g>
      <g>
        <path class="cls-1" d="M6.95,49.38c-.32,0-.58-.25-.62-.57-.01-.08,0-.18,0-.28,0-.04,0-.07,0-.11,0-3.96,0-7.93,0-11.89,0-.03,0-.07,0-.1,0-.09,0-.17,0-.25.03-.34.31-.61.63-.61h.02c.32,0,.6.28.62.61.01.19.01.39,0,.59,0,.09,0,.18,0,.27,0,.1,0,.21,0,.32v.47s4.73,0,4.73,0l-.18-.43c-1.07-2.57-1.56-5.14-1.45-7.63.11-2.5.83-5.01,2.14-7.46l.11-.2-.56-.56c-.3-.3-.6-.61-.91-.91-.6-.6-.98-1.25-1.17-2.01-.29-1.14-.08-2.35.56-3.32.65-.98,1.66-1.62,2.83-1.8.23-.04.47-.05.69-.05,1.02,0,1.95.37,2.77,1.11.27.25.54.52.8.78.13.13.26.26.39.39.08.08.17.16.23.22l.05.05.15.14.19-.08c.35-.14.7-.29,1.03-.44.75-.32,1.46-.63,2.2-.88,1.55-.53,3.21-.79,5.07-.79h.03c2.21,0,4.64,0,7.62,0,1.59,0,3.19,0,4.78,0,1.59,0,3.19,0,4.78,0h.84l.12-.38c.03-.11.07-.21.1-.31.49-1.6,1.89-2.64,3.56-2.66.13,0,.25,0,.38,0,.28,0,.56,0,.83,0,.28,0,.56,0,.84,0,.48,0,.87,0,1.23-.02.04,0,.07,0,.11,0,.58,0,.93.19,1.18.64v14.52s-.06.08-.09.11c-.1.14-.2.27-.31.37-.13.12-.32.17-.61.17h-.01c-.26,0-.53,0-.79,0s-.51,0-.77,0c-.26,0-.51,0-.77,0-.48,0-.87,0-1.23,0-1.61-.01-2.99-1.01-3.52-2.53-.03-.09-.06-.17-.09-.27-.02-.05-.03-.1-.05-.15l-.07-.22h-3.21l.19.43c1.1,2.53,1.58,5.03,1.45,7.62-.13,2.65-.83,5.08-2.15,7.42l-.12.2,1.52,1.52c.66.66,1.06,1.44,1.23,2.37.18,1-.07,2.09-.68,2.98-.61.89-1.53,1.51-2.53,1.71-.32.06-.63.09-.93.09-1.1,0-2.09-.43-2.95-1.26-.32-.31-.62-.62-.92-.92-.13-.13-.25-.26-.37-.38l-.15-.15-.19.08c-.35.14-.69.29-1.01.43-.73.31-1.42.61-2.13.86-1.61.57-3.41.84-5.5.84-2.69,0-5.37,0-8.05,0H7.65s-.02.29-.02.29c0,.05,0,.1-.01.15,0,.1-.02.2-.02.3,0,.12,0,.24,0,.35,0,.21,0,.41-.01.61-.03.32-.3.56-.63.56h-.01ZM40.61,40.32c-.95,1.3-2.11,2.46-3.53,3.55l-.27.21.24.25c.14.15.28.29.41.43.29.31.56.6.87.87.51.44,1.16.69,1.84.69.73,0,1.42-.27,1.95-.77,1.09-1.01,1.25-2.63.37-3.77-.28-.37-.6-.69-.94-1.03-.15-.15-.31-.31-.47-.47l-.25-.27-.22.3ZM27.18,15.27c-2.42,0-4.76.58-6.97,1.72-6.22,3.21-9.49,10.48-7.77,17.29,1.54,6.11,6.74,10.7,12.94,11.42.64.07,1.28.11,1.91.11,1.83,0,3.62-.32,5.32-.96,5.75-2.15,9.73-7.69,9.91-13.79.07-2.54-.45-4.99-1.56-7.3-.18-.37-.44-.53-.84-.53-1.35,0-2.7,0-3.97,0h-1.78c-.4,0-.79,0-1.19,0-.08,0-.16.01-.24.02-.04,0-.08.01-.13.02l-.69.08.52.46c.06.05.11.1.16.14.09.08.16.14.23.21,2.4,2.3,3.29,5.05,2.63,8.17-.41,1.95-1.48,3.7-3.01,4.93-1.51,1.21-3.4,1.88-5.33,1.88-.7,0-1.41-.09-2.11-.26-2.93-.73-5.22-2.86-6.14-5.68-.92-2.83-.32-5.89,1.6-8.18,1.71-2.04,3.93-3.07,6.62-3.08,1.73,0,3.46,0,5.18,0,1.02,0,5.1,0,6.12,0h1.24c.13,0,.26,0,.38-.01.06,0,.12,0,.17,0h.3v-6.62h-.29c-.06-.02-.11-.02-.16-.02-.11,0-.2-.01-.31-.01-1.55,0-6.14,0-6.14,0h-1.5c-1.7,0-3.4,0-5.1,0h0ZM8.28,39.15c-.08,0-.16,0-.25.01-.04,0-.08,0-.12,0l-.29.02v6.59h12.41l-.47-.52s-.02-.03-.03-.04c-.03-.04-.07-.08-.14-.12-2.47-1.36-4.49-3.22-6.01-5.55-.19-.29-.43-.41-.79-.41h-.01c-.78,0-1.56,0-2.22,0h-1.45s-.63,0-.63,0ZM27.23,23.22c-1.92.01-3.8.81-5.17,2.2-1.37,1.39-2.12,3.21-2.11,5.13.03,4.02,3.3,7.3,7.29,7.3h.03c4.05-.02,7.33-3.3,7.31-7.31-.04-4.52-3.82-7.32-7.31-7.32h-.04ZM50.15,11.91c-.31,0-.62,0-.94,0-1.5.01-2.54,1.06-2.55,2.55,0,2.76,0,5.5,0,8.14,0,1.48,1.06,2.53,2.55,2.54.33,0,.66,0,.99,0h0c.32,0,.65,0,.97,0h.52c.09,0,.18,0,.27-.02.04,0,.08,0,.12,0l.29-.02v-13.15l-.28-.03s-.06,0-.09,0c-.05,0-.09-.01-.14-.01-.25,0-.5,0-.75,0-.33,0-.66,0-.99,0ZM42.01,21.92h3.34v-6.62h-3.34v6.62ZM14.35,14.75c-.74,0-1.47.3-2.01.81-1.01.98-1.17,2.55-.37,3.65.29.4.64.76.99,1.1.15.15.31.31.46.48l.25.27.22-.3c1.03-1.38,2.19-2.55,3.57-3.58l.29-.22-.26-.25c-.15-.15-.3-.3-.44-.44-.32-.32-.65-.66-1.01-.94-.48-.38-1.07-.58-1.69-.58Z"/>
        <path class="cls-1" d="M27.25,34.46c-1.04,0-2.02-.41-2.76-1.16-.74-.75-1.15-1.73-1.15-2.78,0-2.18,1.72-3.9,3.92-3.91h.02c.98,0,1.95.39,2.68,1.08.77.73,1.2,1.74,1.21,2.84,0,1.02-.39,2-1.13,2.74-.74.75-1.76,1.18-2.79,1.18h0ZM27.26,27.92c-1.47,0-2.62,1.15-2.62,2.62,0,1.47,1.15,2.63,2.62,2.63,1.45,0,2.63-1.18,2.63-2.62,0-.7-.27-1.36-.76-1.85-.49-.5-1.16-.77-1.87-.77h0Z"/>
      </g>
      <rect class="cls-2" width="60" height="60"/>
    </g>
  </g>
</svg>