<?xml version="1.0" encoding="UTF-8"?>
<svg id="Layer_2" data-name="Layer 2" xmlns="http://www.w3.org/2000/svg" viewBox="0 0 283.37 211.21">
  <defs>
    <style>
      .cls-1, .cls-2 {
        fill: none;
      }

      .cls-2 {
        fill-rule: evenodd;
        stroke: #fff;
        stroke-miterlimit: 2.61;
        stroke-width: 2px;
      }
    </style>
  </defs>
  <g id="_レイヤー_2" data-name="レイヤー 2">
    <g>
      <g>
        <path class="cls-2" d="M25.13,105.35c2,.38,1.06,3.39-1.18,4.09-2.76.86-10.99,2.39-17.24,1.92-.48-3.54-.54-8.09.7-10.37,1.38.3,2.78.63,4.17.96,6.19,1.48,12.03,3.12,13.55,3.41h0ZM9.09,155.43h189.12M65.7,141.07c-2.93,8.46-9.08,14.31-16.19,14.36h-15.97c-7.15,0-13.33-5.86-16.28-14.36h48.44ZM135.86,111.55c5.69,0,10.31,7.88,10.31,17.6s-4.62,17.6-10.31,17.6-10.31-7.88-10.31-17.6,4.61-17.6,10.31-17.6h0ZM135.86,102.88c10.36,0,18.76,11.76,18.76,26.27s-8.35,26.2-18.67,26.27h-16.54c-7.41,0-13.81-6.01-16.86-14.74h16.45c-1.22-3.48-1.9-7.39-1.9-11.53,0-14.51,8.4-26.27,18.76-26.27h0ZM198.21,55.96c-8.89,1.22-17.66,3.76-25.41,8.83-5.79,3.8-12.11,8.81-15.83,13.48-3.04,4.18-.57,5.52,1.37,5.55l14.39-.08M65.11,105.35c-2,.38-1.06,3.39,1.18,4.09,3.44,1.07,15.37,3.19,21.38,1.17,2.44-.82,8.37-9.03,8.25-10.23-.17-2.11-9.02-.4-17.25,1.57-6.19,1.48-12.03,3.12-13.55,3.41h0ZM198.21,47.4c-21.79-.35-50.13.37-63.87,1.73-28.49,2.83-42.37,10.98-66.25,26.49-1.79,1.16-3.61,2.26-5.46,3.24-3.08,1.63-6.26,2.95-9.61,3.75l-28.4,7.52c-6.3,1.67-14.99,4.54-17.24,10.85,1.39.3,2.8.63,4.2.96,6.19,1.48,12.03,3.12,13.55,3.41,2,.38,1.06,3.39-1.18,4.09-2.78.86-11.06,2.4-17.32,1.91l-.17,10.48c-.44,9.51,6.09,15.61,10.8,18.86h85.28M152.69,141.1l45.52-.04M93.91,60.21c2.45-1.19,5.18-1.68,7.1-2.07,23.77-4.8,56.69-3.74,79.31-3.71-15.75,5.58-30.73,17.23-37.26,21.79-.7.47-1.4.92-2.11,1.33-5.99,3.48-12.71,4.73-22.35,4.77l-58.99.23c-4.39-.02-8.32.51-12.73,1.67"/>
        <path class="cls-2" d="M213.9,43.13l1.01-7.93c2.15-10.68,25.43-8.67,24.58,3.64l-.34,4.92c-.01.35-.31.63-.66.61l-33.89-1.82M237.7,44.24c-.69,7.5-2.55,11.43-10.56,13.28-3.79.56-6.93-.37-9.07-3.02-2.54-3.15-2.76-7.41-2.8-11.37M236.38,137.07h39v12.75c0,1.25-1.04,2.29-2.29,2.29h-34.43c-1.25,0-2.29-1.03-2.29-2.29v-12.75h0ZM276.97,137.07v-5.97c0-.65-.55-1.19-1.19-1.19h-39.8c-.64,0-1.19.55-1.19,1.19v5.97h42.18ZM263.22,126.99v-3.07c0-.84-.7-1.52-1.53-1.52h-10.4c-.83,0-1.53.69-1.53,1.52v3.07M243.81,137.07v3.66M267.96,137.07v3.66M178.93,85.53l.02-4.2-3.57-2.35.03-5.16,1.95-4.09,4.26.02-.02,4.6h2.08s.02-4.59.02-4.59l4.27.02,1.91,4.11-.03,5.16-3.6,2.28-.02,9.45M186.18,95.09l-.03,5.14,3.58,2.3-.02,5.16-1.94,4.09-4.27-.02.02-4.6h-2.08s-.01,4.6-.01,4.6l-4.27-.02-1.91-4.11.02-5.16,3.59-2.32.02-5.19M212.85,78.75c-.17,11.61-.72,23.79-1.08,35.59l.68,68.46M243,77.79l6.58,16.63,2.72,29.12M244.72,126.88l-.32-13.29.31-31.49M246.07,182.7l-.74-30.52M186.24,83.47l2.16,2.02,7.98-.16.65-.51,10.03-15.88c1.86-3,3.09-4.3,6.15-5.37,1.73-.6,3.76-1.17,5.55-1.47l7.71,10.34.92-.04,7.4-11.03c6.57-.19,13.75,2.33,15.41,6.87l7.33,18c1.25,3.48,1.7,5.92,1.72,8.44l.58,28.76M183.46,95.13l-5.29-.05-.57-.46-.1-8.34.4-.67,5.6-.1M212.7,83.41l-9.29,10.93-3.22,1.01-15.44-.18M234.57,182.8l-6.96-62.5-1.39-.04-1.66,62.67M226.91,112.09v-39.66M216.89,62.43l-2.29,9.01h.01s4.17-1.87,4.17-1.87l8.14,2.86M236.16,61.52l3.07,8.79h-.01s-4.17-1.49-4.17-1.49l-8.14,3.61M230.54,82.75l9.16-.42M215.94,83.42l7.65-.35"/>
      </g>
      <rect class="cls-1" width="283.37" height="211.21"/>
    </g>
  </g>
</svg>