<?xml version="1.0" encoding="UTF-8"?>
<svg id="Layer_2" data-name="Layer 2" xmlns="http://www.w3.org/2000/svg" viewBox="0 0 60 60">
  <defs>
    <style>
      .cls-1, .cls-2 {
        fill: none;
      }

      .cls-2 {
        stroke: #fff;
        stroke-linecap: round;
        stroke-linejoin: round;
      }
    </style>
  </defs>
  <g id="_レイヤー_2" data-name="レイヤー 2">
    <g>
      <g>
        <path class="cls-2" d="M15.03,7.81h4.05c.72,0,1.3.58,1.3,1.3v8.02c0,.72-.58,1.3-1.3,1.3h-4.05c-.72,0-1.3-.58-1.3-1.3v-8.02c0-.72.58-1.3,1.3-1.3Z"/>
        <path class="cls-2" d="M22.97,10.72h1.9c.34,0,.61.27.61.61v3.57c0,.34-.27.61-.61.61h-1.91c-.34,0-.61-.27-.61-.61v-3.57c0-.34.27-.61.61-.61Z"/>
        <path class="cls-2" d="M40.92,7.81h4.05c.72,0,1.3.58,1.3,1.3v8.02c0,.72-.58,1.3-1.3,1.3h-4.05c-.72,0-1.3-.58-1.3-1.3v-8.02c0-.72.58-1.3,1.3-1.3Z"/>
        <path class="cls-2" d="M35.13,10.72h1.9c.34,0,.61.27.61.61v3.57c0,.34-.27.61-.61.61h-1.9c-.34,0-.61-.27-.61-.61v-3.57c0-.34.27-.61.61-.61Z"/>
        <rect class="cls-2" x="13.73" y="41.57" width="6.65" height="10.62" rx="1.3" ry="1.3"/>
        <path class="cls-2" d="M22.97,44.49h1.91c.34,0,.61.27.61.61v3.57c0,.34-.27.61-.61.61h-1.91c-.34,0-.61-.27-.61-.61v-3.57c0-.34.27-.61.61-.61Z"/>
        <path class="cls-2" d="M40.92,41.57h4.05c.72,0,1.3.58,1.3,1.3v8.02c0,.72-.58,1.3-1.3,1.3h-4.05c-.72,0-1.3-.58-1.3-1.3v-8.02c0-.72.58-1.3,1.3-1.3Z"/>
        <path class="cls-2" d="M35.13,44.49h1.91c.34,0,.61.27.61.61v3.57c0,.34-.27.61-.61.61h-1.9c-.34,0-.61-.27-.61-.61v-3.57c0-.34.27-.61.61-.61Z"/>
        <line class="cls-2" x1="25.48" y1="13.12" x2="34.52" y2="13.12"/>
        <line class="cls-2" x1="25.48" y1="46.88" x2="34.52" y2="46.88"/>
        <line class="cls-2" x1="30" y1="13.12" x2="30" y2="46.88"/>
      </g>
      <rect class="cls-1" width="60" height="60"/>
    </g>
  </g>
</svg>