<?xml version="1.0" encoding="UTF-8"?>
<svg id="Layer_2" data-name="Layer 2" xmlns="http://www.w3.org/2000/svg" viewBox="0 0 232 232">
  <defs>
    <style>
      .cls-1, .cls-2 {
        fill: none;
      }

      .cls-2 {
        stroke: #fff;
        stroke-miterlimit: 2.61;
        stroke-width: 2px;
      }
    </style>
  </defs>
  <g id="_レイヤー_2" data-name="レイヤー 2">
    <g>
      <g>
        <g>
          <ellipse class="cls-2" cx="125.55" cy="151.69" rx="28.21" ry="6.69"/>
          <g>
            <g>
              <path class="cls-2" d="M60.19,176.32v17.6c0,4.18-3.39,7.57-7.57,7.57h-14.54c-4.18,0-7.57-3.39-7.57-7.57v-17.6h29.67Z"/>
              <path class="cls-2" d="M220.57,176.32v17.6c0,4.18-3.39,7.57-7.57,7.57h-14.54c-4.18,0-7.57-3.39-7.57-7.57v-17.6h29.67Z"/>
            </g>
            <g>
              <path class="cls-2" d="M111.34,117.1h87.95l.11.06c13.06,7.2,21.17,20.94,21.17,35.85v23.31H30.52v-23c0-9.47,3.27-18.47,9.01-25.62"/>
              <path class="cls-2" d="M128.35,76.3h35.28c8.56,0,16.42,4.72,20.44,12.26l15.22,28.53h-87.95"/>
            </g>
          </g>
          <g>
            <path class="cls-2" d="M54.73,142.95c-2.71,1.93-4.48,5.1-4.48,8.68,0,5.88,4.76,10.64,10.64,10.64,4.9,0,9.02-3.31,10.26-7.81"/>
            <circle class="cls-2" cx="190.2" cy="151.63" r="10.64"/>
          </g>
        </g>
        <g>
          <g>
            <path class="cls-2" d="M11.43,50.21v14.09c0,33.72,17.99,64.87,47.19,81.73l12.2,7.05,12.2-7.05c29.2-16.86,47.19-48.01,47.19-81.73v-14.09s-12.2-7.05-12.2-7.05c-29.2-16.86-65.17-16.86-94.37,0l-12.2,7.05Z"/>
            <path class="cls-2" d="M28.79,62.71c.5,29.8,16.47,57.47,42.03,72.8,25.56-15.33,41.53-43,42.03-72.8-26.06-14.47-58-14.47-84.06,0Z"/>
          </g>
          <polyline class="cls-2" points="54.94 90.35 60.87 99.66 86.7 87.7"/>
        </g>
      </g>
      <rect class="cls-1" y="0" width="232" height="232"/>
    </g>
  </g>
</svg>