<?xml version="1.0" encoding="UTF-8"?>
<svg id="Layer_2" data-name="Layer 2" xmlns="http://www.w3.org/2000/svg" viewBox="0 0 60 60">
  <defs>
    <style>
      .cls-1, .cls-2 {
        fill: none;
      }

      .cls-2 {
        fill-rule: evenodd;
        stroke: #fff;
        stroke-linecap: round;
        stroke-linejoin: round;
      }
    </style>
  </defs>
  <g id="_レイヤー_2" data-name="レイヤー 2">
    <g>
      <g>
        <path class="cls-2" d="M22.56,16.13c3.17,0,5.44-4.6,9.78-4.6,4.02,0,13.78,6.9,13.78,17.61v18.99c0,2.19-1.79,3.98-3.98,3.98h-24.26c-2.19,0-3.98-1.79-3.98-3.98V15.13h8.67v1Z"/>
        <path class="cls-2" d="M22.47,12.72v-2.52c0-1.27-1.04-2.31-2.31-2.31h-3.86c-1.27,0-2.31,1.04-2.31,2.31v2.52h8.49Z"/>
        <path class="cls-2" d="M30,16.16h0c1.21-1.21,3.18-1.21,4.38,0l6.51,6.51c1.21,1.21,1.21,3.18,0,4.38h0c-1.21,1.21-3.18,1.21-4.38,0l-6.51-6.51c-1.21-1.21-1.21-3.18,0-4.38Z"/>
        <path class="cls-2" d="M24.52,27.37c5.95,0,17.27,7.56,17.27,12.27v7.04c0,.8-.66,1.46-1.46,1.46h-20.68c-.8,0-1.46-.66-1.46-1.46v-14.21c0-3.22,2.98-5.1,6.32-5.1Z"/>
        <path class="cls-2" d="M29.58,45c4.99,0,2.65-8.25,0-11.27-2.65,3.03-4.99,11.27,0,11.27Z"/>
        <path class="cls-2" d="M23.85,37.75c2.17,0,1.15-3.59,0-4.91-1.15,1.32-2.17,4.91,0,4.91Z"/>
      </g>
      <rect class="cls-1" width="60" height="60"/>
    </g>
  </g>
</svg>