<?xml version="1.0" encoding="UTF-8"?>
<svg id="Layer_2" data-name="Layer 2" xmlns="http://www.w3.org/2000/svg" viewBox="0 0 252.83 220.01">
  <defs>
    <style>
      .cls-1, .cls-2 {
        fill: none;
      }

      .cls-2 {
        stroke: #fff;
        stroke-miterlimit: 2.61;
        stroke-width: 2px;
      }
    </style>
  </defs>
  <g id="_レイヤー_2" data-name="レイヤー 2">
    <g>
      <g>
        <g>
          <g>
            <polygon class="cls-2" points="140.1 161.61 52.21 161.61 41.53 150.93 41.53 111.6 62.41 85.38 70.18 46.53 76.97 39.73 143.01 39.73 154.18 50.9 184.28 50.9 184.28 66.44 189.87 72.02 189.87 91.2 209.17 110.51 209.17 148.5 198.91 158.76 182.83 158.76 177.46 153.39 165.35 157.73 157.58 146.07 140.1 161.61"/>
            <path class="cls-2" d="M90.9,161.62v16.67c0,3.31-2.69,6-6,6h-20.37c-3.31,0-6-2.69-6-6v-16.67"/>
            <path class="cls-2" d="M196.75,158.76v19.52c0,3.31-2.69,6-6,6h-20.37c-3.31,0-6-2.69-6-6v-22"/>
            <polyline class="cls-2" points="154.18 50.9 143.42 61.67 132.33 58.02 121.97 58.02 112.42 67.57"/>
            <polyline class="cls-2" points="143.42 61.67 151.75 70 151.75 75.18"/>
            <polyline class="cls-2" points="189.87 91.2 181.9 99.17 172.88 90.15 165.99 90.15 160.04 96.1 154.14 90.19 147.58 90.19"/>
            <line class="cls-2" x1="62.41" y1="85.38" x2="105.14" y2="85.38"/>
            <line class="cls-2" x1="116.47" y1="85.38" x2="125.35" y2="85.38"/>
          </g>
          <path class="cls-2" d="M89.6,129v2.36c0,2.07-1,4.02-2.68,5.24h0c-1.1.79-2.42,1.22-3.78,1.22h-21.7c-1.71,0-3.36-.68-4.57-1.89l-1.5-1.5c-1.21-1.21-1.89-2.85-1.89-4.57v-10.01c0-1.71.68-3.36,1.89-4.57l1.39-1.39c1.94-1.94,4.9-2.44,7.38-1.25l21.81,10.54c2.23,1.08,3.65,3.34,3.65,5.82Z"/>
          <path class="cls-2" d="M162.51,129v2.36c0,2.07,1,4.02,2.68,5.24h0c1.1.79,2.42,1.22,3.78,1.22h21.7c1.71,0,3.36-.68,4.57-1.89l1.5-1.5c1.21-1.21,1.89-2.85,1.89-4.57v-10.01c0-1.71-.68-3.36-1.89-4.57l-1.39-1.39c-1.94-1.94-4.9-2.44-7.38-1.25l-21.81,10.54c-2.23,1.08-3.65,3.34-3.65,5.82Z"/>
          <polygon class="cls-2" points="103.84 124.91 108.92 119.83 132.49 119.83 138.32 116.94 147.54 116.94 152.88 123.74 148.72 136.61 140.74 139.52 134.43 135.15 122.04 140.73 103.84 140.73 99.23 128.84 103.84 124.91"/>
        </g>
        <g>
          <path class="cls-2" d="M189.87,75.2h18.49c3.39,0,6.47,1.94,7.91,4.98l1.64,3.42c.53,1.18.84,2.43.84,3.77,0,4.22-3,7.84-7.19,8.63l-14.26,2.62"/>
          <path class="cls-2" d="M52.06,98.4l-12.93-2.4c-4.15-.8-7.19-4.41-7.19-8.63,0-1.33.3-2.59.87-3.77l1.6-3.42c1.48-3.04,4.56-4.98,7.95-4.98h20.35"/>
        </g>
        <polyline class="cls-2" points="64.42 75.2 62.71 75.2 61.34 75.2"/>
      </g>
      <rect class="cls-1" width="252.83" height="220.01"/>
    </g>
  </g>
</svg>