<?xml version="1.0" encoding="UTF-8"?>
<svg id="Layer_2" data-name="Layer 2" xmlns="http://www.w3.org/2000/svg" viewBox="0 0 252.83 220.01">
  <defs>
    <style>
      .cls-1, .cls-2 {
        fill: none;
      }

      .cls-2 {
        stroke: #fff;
        stroke-miterlimit: 10;
        stroke-width: 2px;
      }
    </style>
  </defs>
  <g id="_レイヤー_2" data-name="レイヤー 2">
    <g>
      <g>
        <path class="cls-2" d="M193.01,182.08c1.57,0,2.85-1.28,2.85-2.85v-15.6c0-12.72-10.35-23.07-23.06-23.07h-15.72l-11.7-14.03c9.62-4.99,16.85-13.95,19.51-24.7,0,0,0,0,0,0,6.27-1.51,10.94-7.16,10.94-13.88,0-5.93-3.63-11.03-8.79-13.18h0c5.88-1.68,10.19-7.1,10.19-13.51v-26.35c0-7.75-6.3-14.05-14.05-14.05h-.46c-4.92,0-9.26,2.54-11.77,6.38-4.39-8.4-13.2-14.15-23.32-14.15h-22.98c-14.51,0-26.31,11.8-26.31,26.31v17.99c0,5.12,4.17,9.29,9.29,9.29h.63v7.71c-5.69,1.88-9.82,7.25-9.82,13.56,0,6.72,4.67,12.37,10.94,13.88,0,0,0,0,0,0,2.77,11.21,10.53,20.48,20.76,25.32l-11.65,13.41h-15.72c-10.14,0-19.23,6.79-22.11,16.5-.45,1.51.41,3.09,1.92,3.54,1.51.45,3.1-.41,3.54-1.92,2.17-7.32,9.02-12.42,16.65-12.42h14.87l7.53,25.99c.91,1.83,2.57,3.17,4.55,3.67.56.14,1.13.21,1.7.21.95,0,1.89-.19,2.77-.57.1,2.36,1.31,4.43,3.12,5.7l-5.56,17.95h-46.35v-30.01c0-1.57-1.28-2.85-2.85-2.85s-2.85,1.28-2.85,2.85v32.86c0,1.57,1.28,2.85,2.85,2.85h130.46c1.57,0,2.85-1.28,2.85-2.85v-11.43c0-1.58-1.28-2.85-2.85-2.85s-2.85,1.27-2.85,2.85v8.58h-45.88l-5.8-18.12c1.68-1.28,2.79-3.28,2.89-5.53.87.38,1.82.57,2.77.57.57,0,1.14-.07,1.7-.21,1.98-.5,3.65-1.83,4.55-3.67l7.53-25.99h14.87c9.58,0,17.37,7.79,17.37,17.37v15.6c0,1.57,1.28,2.85,2.85,2.85ZM170.13,87.95c0,3.14-1.69,5.89-4.21,7.39h0c.06-.88.09-1.78.09-2.68v-12.04c2.47,1.51,4.12,4.23,4.12,7.33ZM88.35,95.34h0c-2.52-1.5-4.21-4.25-4.21-7.38s1.65-5.82,4.12-7.33v12.04c0,.9.03,1.79.09,2.67h0ZM93.96,92.66v-25.98h33.67c8.6,0,16.24-4.14,21.04-10.54v5.12c0,6.93,5.04,12.7,11.65,13.84v17.56c0,11.63-6.15,21.85-15.37,27.58-1.79,1.12-3.7,2.06-5.7,2.81-7.2,2.7-15.6,2.83-22.92.45-1.99-.65-3.9-1.49-5.7-2.5-9.94-5.55-16.67-16.18-16.67-28.34ZM114.04,128.75c.75.26,1.51.49,2.29.7,7.46,1.97,15.54,1.93,22.92-.38.77-.24,1.53-.5,2.28-.8l-13.73,26.2-13.75-25.73ZM135.69,171.68v3.53c0,.28-.19,1.71-1.71,1.71h-12.41c-1.3,0-1.71-1.4-1.71-1.71v-3.53l7.91-5.65,7.91,5.65ZM117.71,199.2l5.14-16.59h10.14l5.31,16.59h-20.59Z"/>
        <path class="cls-2" d="M178.68,187.43h-26.21c-1.57,0-2.85,1.28-2.85,2.85s1.28,2.85,2.85,2.85h26.21c1.57,0,2.85-1.28,2.85-2.85s-1.28-2.85-2.85-2.85Z"/>
        <circle class="cls-2" cx="115.15" cy="82.5" r="3.7" transform="translate(28.85 194.83) rotate(-88.09)"/>
        <path class="cls-2" d="M139.12,78.79c2.05,0,3.7,1.66,3.7,3.7s-1.66,3.7-3.7,3.7-3.7-1.66-3.7-3.7,1.66-3.7,3.7-3.7Z"/>
        <path class="cls-2" d="M137.38,98.17c-1.57,0-2.85,1.28-2.85,2.85,0,3.84-3.12,6.96-6.96,6.96s-6.96-3.12-6.96-6.96c0-1.57-1.28-2.85-2.85-2.85s-2.85,1.28-2.85,2.85c0,6.98,5.68,12.66,12.65,12.66s12.65-5.68,12.65-12.66c0-1.57-1.28-2.85-2.85-2.85Z"/>
      </g>
      <rect class="cls-1" width="252.83" height="220.01"/>
    </g>
  </g>
</svg>