<?xml version="1.0" encoding="UTF-8"?>
<svg id="Layer_2" data-name="Layer 2" xmlns="http://www.w3.org/2000/svg" viewBox="0 0 60 60">
  <defs>
    <style>
      .cls-1 {
        fill: #fff;
      }

      .cls-2 {
        fill: none;
      }
    </style>
  </defs>
  <g id="_レイヤー_2" data-name="レイヤー 2">
    <g>
      <g>
        <path class="cls-1" d="M21.93,50.67s-.02,0-.03,0c-.06-.02-.13-.04-.21-.05-1.84-.17-3.55-.68-5.1-1.54-3.83-2.11-6.2-5.34-7.05-9.58-.06-.3-.11-.62-.16-.92-.02-.14-.04-.27-.07-.41v-2.33c.02-.14.04-.28.07-.41.05-.3.1-.62.15-.92.75-3.83,2.77-6.85,6-8.97,4.39-2.88,8.86-5.79,13.19-8.6,1.74-1.13,3.47-2.25,5.21-3.38.38-.25.76-.49,1.14-.74,1.13-.74,2.3-1.5,3.46-2.24,1.27-.81,2.73-1.23,4.21-1.23,3.83,0,7.13,2.71,7.84,6.45.03.15.06.3.1.44.01.06.03.11.04.17v1.74s-.02.1-.03.14c-.03.13-.06.26-.08.39-.19,1.08-.62,2.13-1.32,3.19-1.87,2.86-3.78,5.78-5.61,8.59-.95,1.46-1.9,2.92-2.85,4.37-.5.77-1.01,1.54-1.51,2.32-1.56,2.39-3.18,4.87-4.77,7.29-1.67,2.54-3.96,4.37-6.82,5.42-1.06.39-2.16.65-3.27.75-.09,0-.17.03-.24.05-.02,0-.03,0-.05.01h-2.22ZM23.01,24.42c-6.93,0-12.59,5.62-12.6,12.54,0,3.35,1.3,6.51,3.68,8.89,2.38,2.39,5.53,3.7,8.88,3.7h0c3.39,0,6.56-1.31,8.93-3.69,2.35-2.35,3.69-5.59,3.68-8.88-.01-6.92-5.66-12.56-12.58-12.57h-.01ZM22.63,23.23c3.96,0,7.35,1.37,10.06,4.08,2.86,2.86,4.24,6.46,4.08,10.7l-.04.97,9.39-14.39-.7.2c-.98.28-1.93.43-2.82.43-2.07,0-3.92-.79-5.48-2.34-2.23-2.22-2.87-5.01-1.92-8.28l.2-.7-14.41,9.37.97-.04c.22,0,.44-.01.66-.01ZM42.74,10.45c-3.83.03-6.82,3.02-6.83,6.83,0,3.82,3,6.82,6.83,6.82h0c3.84,0,6.84-3.01,6.84-6.84,0-1.81-.71-3.52-2.01-4.81-1.3-1.29-3.01-2-4.83-2h0Z"/>
        <path class="cls-1" d="M22.98,44.11c-1.92,0-3.71-.75-5.04-2.1-1.33-1.34-2.07-3.13-2.07-5.04,0-1.88.73-3.65,2.07-5,1.36-1.36,3.17-2.12,5.09-2.12h.02c3.92,0,7.11,3.21,7.11,7.14,0,1.83-.74,3.64-2.02,4.96-1.34,1.39-3.16,2.15-5.12,2.15h-.03ZM23.03,30.98c-.13,0-.27,0-.4.01-3.28.21-5.75,2.94-5.63,6.21.12,3.19,2.8,5.79,5.99,5.79h0c.08,0,.17,0,.25,0,1.61-.05,3.15-.77,4.24-1.97,1.09-1.2,1.64-2.76,1.53-4.4-.2-3.16-2.83-5.64-5.98-5.64Z"/>
        <path class="cls-1" d="M29.99,30.57c-.32,0-.55-.23-.55-.55,0-.15.06-.29.16-.4.1-.1.24-.16.39-.16.29,0,.56.27.56.56,0,.3-.25.55-.56.55h0Z"/>
        <path class="cls-1" d="M16.03,44.51c-.29,0-.56-.27-.56-.56,0-.14.05-.28.16-.39.11-.11.25-.17.4-.17.15,0,.29.06.4.16.1.11.16.25.16.4,0,.3-.25.55-.54.55h-.01Z"/>
        <path class="cls-1" d="M23.01,27.7c-.15,0-.28-.06-.39-.16-.11-.11-.16-.25-.16-.41,0-.32.23-.55.55-.55h.01c.29,0,.55.25.55.54,0,.14-.06.28-.17.39-.11.11-.25.18-.4.18h0Z"/>
        <path class="cls-1" d="M16.02,30.57c-.15,0-.29-.07-.4-.18-.1-.11-.16-.25-.16-.39,0-.29.26-.54.56-.55h0c.3,0,.55.26.55.56,0,.15-.06.29-.16.39-.1.1-.25.16-.4.16h0Z"/>
        <path class="cls-1" d="M32.86,37.53c-.3,0-.54-.24-.55-.54,0-.14.06-.28.16-.39.11-.11.25-.18.4-.18.15,0,.28.06.39.16.11.11.17.25.17.4,0,.31-.24.54-.55.54h-.01Z"/>
        <path class="cls-1" d="M29.99,44.51c-.3,0-.55-.26-.55-.56,0-.15.06-.29.16-.4.1-.1.24-.16.39-.16.16,0,.3.06.41.17.1.11.16.25.16.39,0,.29-.26.55-.55.55h-.01Z"/>
        <path class="cls-1" d="M13.12,37.53c-.3,0-.54-.25-.55-.54,0-.14.06-.28.17-.39.11-.11.25-.17.39-.17.14,0,.28.06.39.17.11.11.17.25.17.41,0,.31-.24.54-.55.54h-.02Z"/>
        <path class="cls-1" d="M23.01,47.4c-.3,0-.54-.25-.55-.55,0-.16.05-.3.15-.4.1-.1.24-.16.39-.16.16,0,.3.06.41.17.1.11.16.24.16.38,0,.29-.26.55-.55.56,0,0-.01,0-.02,0Z"/>
        <path class="cls-1" d="M42.77,21.13c-2.16,0-3.86-1.69-3.88-3.85,0-1,.38-1.96,1.11-2.69.74-.74,1.71-1.16,2.74-1.16h0c2.11,0,3.84,1.72,3.86,3.83,0,1.02-.39,1.99-1.12,2.73-.73.73-1.68,1.13-2.7,1.14h0ZM42.75,14.56c-1.49,0-2.71,1.22-2.71,2.72,0,1.51,1.18,2.71,2.7,2.72,0,0,.02,0,.02,0,.74,0,1.43-.29,1.95-.81.51-.51.79-1.2.79-1.92-.01-1.47-1.26-2.71-2.73-2.71h0Z"/>
        <path class="cls-1" d="M22.97,40.83c-1,0-1.96-.4-2.68-1.13-.73-.74-1.14-1.7-1.13-2.71,0-2.12,1.73-3.84,3.85-3.85,2.12,0,3.85,1.72,3.86,3.83,0,1.88-1.46,3.85-3.87,3.86h-.03ZM22.98,34.26c-1.49.02-2.69,1.25-2.69,2.74,0,1.51,1.2,2.7,2.71,2.7,1.5,0,2.73-1.22,2.73-2.7,0-.72-.28-1.4-.8-1.92-.52-.52-1.2-.81-1.92-.81h-.03Z"/>
      </g>
      <rect class="cls-2" width="60" height="60"/>
    </g>
  </g>
</svg>