<?xml version="1.0" encoding="UTF-8"?>
<svg id="Layer_2" data-name="Layer 2" xmlns="http://www.w3.org/2000/svg" viewBox="0 0 232 232">
  <defs>
    <style>
      .cls-1, .cls-2 {
        fill: none;
      }

      .cls-2 {
        stroke: #fff;
        stroke-miterlimit: 10;
        stroke-width: 2px;
      }
    </style>
  </defs>
  <g id="_レイヤー_2" data-name="レイヤー 2">
    <g>
      <g>
        <path class="cls-2" d="M95.8,82.82h53.57c1.63,0,2.94-1.32,2.94-2.94s-1.32-2.94-2.94-2.94h-53.57c-1.63,0-2.94,1.32-2.94,2.94s1.32,2.94,2.94,2.94Z"/>
        <path class="cls-2" d="M95.8,99.52h53.57c1.63,0,2.94-1.32,2.94-2.94s-1.32-2.94-2.94-2.94h-53.57c-1.63,0-2.94,1.32-2.94,2.94s1.32,2.94,2.94,2.94Z"/>
        <path class="cls-2" d="M95.8,116.22h53.57c1.63,0,2.94-1.32,2.94-2.94s-1.32-2.94-2.94-2.94h-53.57c-1.63,0-2.94,1.32-2.94,2.94s1.32,2.94,2.94,2.94Z"/>
        <path class="cls-2" d="M95.8,132.92h53.57c1.63,0,2.94-1.32,2.94-2.94s-1.32-2.94-2.94-2.94h-53.57c-1.63,0-2.94,1.32-2.94,2.94s1.32,2.94,2.94,2.94Z"/>
        <path class="cls-2" d="M95.8,149.62h53.57c1.63,0,2.94-1.32,2.94-2.94s-1.32-2.94-2.94-2.94h-53.57c-1.63,0-2.94,1.32-2.94,2.94s1.32,2.94,2.94,2.94Z"/>
        <path class="cls-2" d="M81.85,82.33c.16.11.33.2.51.27.18.07.37.13.55.17.19.03.39.06.58.06.78,0,1.53-.32,2.09-.86.54-.55.86-1.31.86-2.08s-.32-1.53-.86-2.09c-1.11-1.09-3.07-1.09-4.17,0-.55.55-.86,1.31-.86,2.09s.31,1.53.86,2.08c.13.13.28.26.45.37Z"/>
        <path class="cls-2" d="M80.77,97.71c.07.18.16.34.27.51.11.15.22.31.37.45.54.54,1.31.86,2.08.86s1.53-.32,2.09-.86c.13-.14.26-.29.36-.45.11-.16.19-.33.27-.51.07-.18.13-.36.16-.55s.06-.39.06-.58c0-.78-.32-1.53-.86-2.08-1.11-1.1-3.07-1.1-4.17,0-.14.14-.26.29-.37.45-.11.16-.2.33-.27.51-.07.18-.13.37-.17.55-.05.19-.06.39-.06.58s.01.39.06.58c.04.19.09.38.17.55Z"/>
        <path class="cls-2" d="M80.77,114.41c.07.18.16.34.27.51.11.15.22.31.37.45.55.54,1.31.86,2.08.86.19,0,.39-.02.58-.06.19-.03.36-.09.54-.16.18-.07.35-.16.52-.27.15-.11.31-.23.45-.36.54-.55.86-1.31.86-2.09,0-.19-.02-.39-.06-.58-.04-.19-.09-.37-.16-.55-.08-.18-.17-.34-.27-.51s-.24-.31-.36-.45c-.14-.13-.29-.26-.45-.36-.17-.11-.34-.2-.52-.27-.18-.07-.35-.13-.54-.16-.97-.2-1.98.12-2.66.8-.14.14-.26.28-.37.45s-.2.33-.27.51c-.07.18-.13.37-.17.55-.05.19-.06.39-.06.58s.01.39.06.58c.04.19.09.38.17.55Z"/>
        <path class="cls-2" d="M83.49,132.92c.78,0,1.53-.32,2.09-.86.54-.55.86-1.31.86-2.08,0-.19-.02-.39-.06-.58-.04-.19-.09-.38-.16-.55-.08-.18-.17-.34-.27-.51-.11-.15-.24-.31-.36-.45-1.1-1.09-3.07-1.09-4.17,0-.14.14-.26.29-.37.45-.11.17-.2.33-.27.51-.07.18-.13.36-.17.55-.05.19-.06.39-.06.58,0,.78.31,1.53.86,2.08.55.54,1.31.86,2.08.86Z"/>
        <path class="cls-2" d="M80.77,147.8c.07.19.16.35.27.52.11.15.22.31.37.45.54.54,1.31.86,2.08.86s1.53-.32,2.09-.86c.13-.14.26-.29.36-.45.11-.16.19-.33.27-.52.07-.18.13-.35.16-.54s.06-.39.06-.58c0-.78-.32-1.53-.86-2.08-1.1-1.1-3.07-1.1-4.17,0-.55.54-.86,1.31-.86,2.08,0,.19.01.39.06.58.04.19.09.36.17.54Z"/>
        <path class="cls-2" d="M123.72,40.97h-15.45c-1.63,0-2.94,1.32-2.94,2.94s1.32,2.94,2.94,2.94h15.45c1.63,0,2.94-1.32,2.94-2.94s-1.32-2.94-2.94-2.94Z"/>
        <path class="cls-2" d="M172.96,203.6c4.54,0,8.24-3.7,8.24-8.24V45.91c0-4.54-3.7-8.24-8.24-8.24h-29.58c-.89-1.65-2.62-2.79-4.62-2.79h-4.92v-1.2c0-2.91-2.37-5.27-5.27-5.27h-25.15c-2.91,0-5.27,2.37-5.27,5.27v1.2h-4.91c-2.01,0-3.73,1.14-4.62,2.79h-29.58c-4.54,0-8.24,3.7-8.24,8.24v149.46c0,4.54,3.7,8.24,8.24,8.24h113.93ZM93.24,57.26h45.52c2.82,0,5.11-2.23,5.25-5.02h19.74c.73,0,1.32.59,1.32,1.32v109.1h-16.58c-1.63,0-2.94,1.32-2.94,2.94v16.58h-77.29c-.73,0-1.32-.59-1.32-1.32V53.56c0-.73.59-1.32,1.32-1.32h19.74c.14,2.79,2.43,5.02,5.25,5.02ZM161.97,168.55l-10.54,10.54v-10.54h10.54Z"/>
      </g>
      <rect class="cls-1" width="232" height="232"/>
    </g>
  </g>
</svg>