<?xml version="1.0" encoding="UTF-8"?>
<svg id="Layer_2" data-name="Layer 2" xmlns="http://www.w3.org/2000/svg" viewBox="0 0 60 60">
  <defs>
    <style>
      .cls-1 {
        fill: #fff;
      }

      .cls-2 {
        fill: none;
      }
    </style>
  </defs>
  <g id="_レイヤー_2" data-name="レイヤー 2">
    <g>
      <g>
        <path class="cls-1" d="M12.48,48.04c-.29,0-.5-.12-.69-.37-1.83-2.54-3.09-5.34-3.75-8.34-.44-1.98-.61-3.99-.5-5.97.22-4.21,1.51-8.06,3.82-11.46,2.58-3.79,6.03-6.58,10.25-8.3,1.84-.75,3.8-1.24,5.85-1.48.92-.11,1.84-.16,2.73-.16,2.84,0,5.56.54,8.11,1.6,3.54,1.47,6.47,3.54,8.73,6.14,2.25,2.6,3.89,5.8,4.86,9.52.27,1.04.45,2.18.54,3.36,0,.1.03.19.05.26,0,.02,0,.03.01.05v3.15c-.02.12-.03.24-.05.35-.04.27-.07.54-.11.81-.46,3.78-1.84,7.3-4.1,10.46-.19.26-.4.38-.69.38-.01,0-.03,0-.04,0-.03,0-.06,0-.09,0-.03,0-.12,0-.14,0H12.75s-.12,0-.14,0c-.03,0-.06,0-.09,0-.01,0-.03,0-.04,0ZM9.87,41.32c.02.07.04.13.06.18.04.12.07.22.11.33.55,1.51,1.29,2.96,2.26,4.45.25.39.56.56,1.03.56,3.96,0,7.97,0,11.36,0h6.65s6.04,0,6.04,0c2.76,0,6.03,0,9.3,0,.47,0,.78-.17,1.03-.56.83-1.29,1.49-2.52,2-3.77.1-.25.2-.51.3-.78.05-.13.09-.26.14-.39l.15-.4H9.73l.13.39ZM29.04,29.38c-2.35.41-4.56,2.66-4.18,5.73.33,2.63,2.49,4.54,5.15,4.54.18,0,.37,0,.55-.03,2.66-.26,4.7-2.58,4.64-5.28-.06-2.47-2.08-4.83-4.26-4.93h-.31s0,2.69,0,2.69l.17.08c1.47.65,1.74,1.91,1.54,2.79-.26,1.11-1.19,1.86-2.3,1.87h-.03c-1.1,0-2.03-.71-2.32-1.77-.32-1.2.18-2.16,1.54-2.93l.15-.08v-2.75l-.34.06ZM30.01,13.19c-4.88,0-9.65,1.71-13.44,4.8-7.32,5.99-8.9,15.07-7.22,21.42l.06.22h16.64l-.47-.5c-1.89-2-2.45-4.24-1.65-6.66.79-2.4,2.55-3.88,5.24-4.39l.24-.05v-.47c0-.16,0-.31,0-.46,0-.12,0-.24,0-.35,0-.26,0-.53,0-.79.02-.34.26-.58.6-.58.34,0,.58.23.6.58.01.22,0,.44,0,.67,0,.1,0,.2,0,.3,0,.2,0,.4,0,.6v.51s.24.05.24.05c2.69.52,4.45,2,5.24,4.4.79,2.41.24,4.65-1.65,6.66l-.46.49h16.66l.05-.22c2.13-8.83-1.64-18.05-9.37-22.94-3.38-2.14-7.3-3.27-11.31-3.27ZM30.01,33.29c-.3,0-.6.13-.82.35-.22.22-.35.52-.35.83,0,.65.51,1.16,1.17,1.16.32,0,.61-.12.83-.34.22-.22.34-.51.34-.83,0-.64-.54-1.17-1.17-1.17h0Z"/>
        <path class="cls-1" d="M45.56,35.08c-.62,0-1.16,0-1.67-.01-.22,0-.41-.08-.52-.22-.11-.13-.15-.32-.1-.52.06-.29.3-.47.67-.47.24,0,.5,0,.82,0,.19,0,.38,0,.57,0,.19,0,.38,0,.57,0h.89s-.02-.31-.02-.31c-.13-2.35-.7-4.52-1.77-6.64l-.13-.26-.26.13s-.09.04-.13.06c-.09.04-.17.08-.26.13-.22.12-.43.25-.65.37-.37.21-.75.43-1.13.64-.15.09-.28.14-.4.16-.03,0-.06,0-.09,0-.21,0-.4-.13-.51-.34-.12-.23-.07-.51.11-.68.08-.08.2-.15.31-.21.35-.2.69-.4,1.04-.6.23-.13.46-.27.69-.4.08-.05.16-.1.24-.15.04-.03.08-.05.13-.08l.25-.16-.16-.25c-1.29-1.96-2.88-3.55-4.86-4.86l-.26-.17-.16.26-.12.19c-.08.13-.16.26-.23.39-.18.32-.37.63-.55.95l-.27.47c-.13.22-.38.58-.7.58-.09,0-.19-.03-.29-.09-.17-.1-.52-.31-.06-1.11.16-.28.32-.55.48-.83.14-.25.29-.5.43-.75.05-.09.1-.18.15-.28.03-.05.05-.1.08-.15l.14-.27-.27-.14c-2.07-1.05-4.23-1.64-6.62-1.79l-.28-.02-.03.28s0,.08-.01.12c-.01.09-.02.18-.02.27,0,.48,0,.95,0,1.43v.58s0,.06,0,.08c0,.07,0,.14,0,.21-.03.34-.29.6-.6.6-.32,0-.59-.26-.6-.59-.01-.43-.01-.87,0-1.3,0-.19,0-.37,0-.56,0-.16,0-1.11,0-1.11l-.31.02c-2.36.13-4.53.71-6.64,1.77l-.25.13.12.26s.03.07.04.1c.03.08.07.16.11.24.23.4.46.8.69,1.2l.24.42s.04.06.06.1c.04.07.08.14.11.2.2.37.13.71-.19.89-.1.06-.2.09-.3.09-.22,0-.43-.14-.58-.39-.12-.2-.24-.41-.36-.62-.06-.11-.13-.23-.19-.34-.16-.27-.32-.55-.49-.84l-.39-.66-.26.17c-1.97,1.29-3.56,2.88-4.88,4.87l-.17.26.99.57c.16.09.31.18.47.27.35.2.71.41,1.06.62.33.2.43.53.25.84-.11.19-.3.31-.51.31-.12,0-.24-.03-.37-.1-.41-.22-.81-.46-1.21-.69-.2-.12-.4-.23-.6-.35-.09-.05-.18-.1-.28-.15-.05-.03-.1-.06-.16-.09l-.26-.14-.14.27c-1.07,2.09-1.65,4.26-1.78,6.62l-.02.29.29.02c.05,0,.1,0,.15.01.1,0,.19.02.29.02h.15c.17,0,.35,0,.52,0,.17,0,.34,0,.51,0,.36,0,.64,0,.9.02.19,0,.39.08.54.18.23.15.21.41.16.6-.06.24-.22.38-.48.42-.08.01-.17.01-.27.01h-.77c-.39,0-.77,0-1.16,0-.44,0-.88,0-1.32,0-.29,0-.49-.06-.61-.18-.11-.12-.17-.31-.16-.58.08-4.31,1.5-8.15,4.23-11.41,2.22-2.66,5.03-4.54,8.34-5.61,1.75-.56,3.57-.84,5.41-.84.31,0,.62,0,.93.02,3.84.19,7.29,1.49,10.27,3.84,3.33,2.64,5.51,6.1,6.46,10.27.27,1.16.41,2.4.43,3.68,0,.3-.05.51-.17.63-.11.12-.31.17-.6.18-.57,0-1.14,0-1.71,0Z"/>
      </g>
      <rect class="cls-2" width="60" height="60"/>
    </g>
  </g>
</svg>