<?xml version="1.0" encoding="UTF-8"?>
<svg id="Layer_2" data-name="Layer 2" xmlns="http://www.w3.org/2000/svg" viewBox="0 0 60 60">
  <defs>
    <style>
      .cls-1, .cls-2, .cls-3 {
        fill: none;
      }

      .cls-2 {
        fill-rule: evenodd;
      }

      .cls-2, .cls-3 {
        stroke: #fff;
        stroke-linecap: round;
        stroke-linejoin: round;
        stroke-width: 1.5px;
      }
    </style>
  </defs>
  <g id="_レイヤー_2" data-name="レイヤー 2">
    <g>
      <g>
        <path class="cls-2" d="M30,52.49c12.39,0,22.49-10.11,22.49-22.49S42.39,7.51,30,7.51,7.51,17.61,7.51,30s10.11,22.49,22.49,22.49Z"/>
        <path class="cls-2" d="M30,43.3c7.33,0,13.3-5.98,13.3-13.3s-5.98-13.3-13.3-13.3-13.3,5.98-13.3,13.3,5.98,13.3,13.3,13.3Z"/>
        <path class="cls-2" d="M32.68,16.97v6.57l4.64-4.64c1.5.99,2.79,2.28,3.79,3.79l-4.64,4.64h6.57c.18.87.27,1.76.27,2.68s-.09,1.81-.27,2.68h-6.57l4.64,4.64c-.99,1.5-2.28,2.79-3.79,3.79l-4.64-4.64v6.57c-.87.18-1.76.27-2.68.27s-1.81-.09-2.68-.27v-6.57l-4.64,4.64c-1.5-.99-2.79-2.28-3.79-3.79l4.64-4.64h-6.57c-.18-.87-.27-1.76-.27-2.68s.09-1.81.27-2.68h6.57l-4.64-4.64c.99-1.5,2.28-2.79,3.79-3.79l4.64,4.64v-6.57c.87-.18,1.76-.27,2.68-.27s1.81.09,2.68.27Z"/>
        <path class="cls-2" d="M30,32.68c1.48,0,2.68-1.2,2.68-2.68s-1.2-2.68-2.68-2.68-2.68,1.2-2.68,2.68,1.2,2.68,2.68,2.68Z"/>
        <line class="cls-3" x1="30" y1="7.51" x2="30" y2="10.05"/>
        <line class="cls-3" x1="30" y1="49.95" x2="30" y2="52.49"/>
        <line class="cls-3" x1="52.49" y1="30" x2="49.95" y2="30"/>
        <line class="cls-3" x1="10.05" y1="30" x2="7.51" y2="30"/>
        <line class="cls-3" x1="45.91" y1="14.09" x2="44.11" y2="15.89"/>
        <line class="cls-3" x1="15.89" y1="44.11" x2="14.09" y2="45.91"/>
        <line class="cls-3" x1="45.91" y1="45.91" x2="44.11" y2="44.11"/>
        <line class="cls-3" x1="15.89" y1="15.89" x2="14.09" y2="14.09"/>
      </g>
      <rect class="cls-1" width="60" height="60"/>
    </g>
  </g>
</svg>