<?xml version="1.0" encoding="UTF-8"?>
<svg id="Layer_2" data-name="Layer 2" xmlns="http://www.w3.org/2000/svg" viewBox="0 0 252.83 220.01">
  <defs>
    <style>
      .cls-1, .cls-2 {
        fill: none;
      }

      .cls-2 {
        stroke: #fff;
        stroke-miterlimit: 2.61;
        stroke-width: 2px;
      }
    </style>
  </defs>
  <g id="_レイヤー_2" data-name="レイヤー 2">
    <g>
      <g>
        <g>
          <g>
            <g>
              <path class="cls-2" d="M99.76,129.47v13.37c0,3.22-2.61,5.83-5.83,5.83h-21.8c-3.22,0-5.83-2.61-5.83-5.83v-13.37l-8.83-8.8v-28.32l15.23-20.99,7.29-33.18,6.69-5.76h75.48l6.69,5.76,7.29,33.18,15.23,20.99v28.32l-8.83,8.8v13.37c0,3.22-2.61,5.83-5.83,5.83h-21.8c-3.22,0-5.83-2.61-5.83-5.83v-13.37h-49.31Z"/>
              <line class="cls-2" x1="149.07" y1="129.47" x2="182.53" y2="129.47"/>
              <line class="cls-2" x1="99.76" y1="129.47" x2="66.29" y2="129.47"/>
            </g>
            <g>
              <path class="cls-2" d="M67.73,78.23h-6.76c-2.15,0-4.08-.86-5.51-2.29-1.43-1.39-2.29-3.36-2.29-5.51,0-4.33,3.5-7.83,7.79-7.83h13.66"/>
              <path class="cls-2" d="M174.21,62.6h13.11c3.67,0,7.17,2.29,8.09,5.85.75,2.89-.22,5.67-2.03,7.48-1.43,1.43-3.4,2.29-5.54,2.29h-6.72"/>
            </g>
          </g>
          <line class="cls-2" x1="72.69" y1="71.36" x2="176.13" y2="71.36"/>
          <g>
            <path class="cls-2" d="M94.56,103.8h0c0-2.1-1.07-4.06-2.83-5.21l-9.96-6.46c-1.54-1-3.44-1.27-5.19-.73l-2.27.69c-2.61.8-4.4,3.21-4.4,5.94v5.77c0,3.43,2.78,6.21,6.21,6.21h12.23c3.43,0,6.21-2.78,6.21-6.21Z"/>
            <path class="cls-2" d="M154.27,103.8h0c0-2.1,1.07-4.06,2.83-5.21l9.96-6.46c1.54-1,3.44-1.27,5.19-.73l2.27.69c2.61.8,4.4,3.21,4.4,5.94v5.77c0,3.43-2.78,6.21-6.21,6.21h-12.23c-3.43,0-6.21-2.78-6.21-6.21Z"/>
          </g>
          <rect class="cls-2" x="104.94" y="96.77" width="38.95" height="13.24" rx="1.18" ry="1.18"/>
        </g>
        <g>
          <path class="cls-2" d="M195.15,141.29c13.76,2.69,22.1,6.15,22.1,10.01,0,8.56-41.57,15.55-92.82,15.55s-92.87-6.99-92.87-15.55c0-3.86,8.34-7.33,22.1-10.01"/>
          <path class="cls-2" d="M31.57,177.36c0,8.56,41.57,15.5,92.87,15.5s92.82-6.94,92.82-15.5"/>
          <line class="cls-2" x1="217.26" y1="151.31" x2="217.26" y2="177.35"/>
        </g>
        <line class="cls-2" x1="31.57" y1="151.31" x2="31.57" y2="177.35"/>
      </g>
      <rect class="cls-1" width="252.83" height="220.01"/>
    </g>
  </g>
</svg>