<?xml version="1.0" encoding="UTF-8"?>
<svg id="Layer_2" data-name="Layer 2" xmlns="http://www.w3.org/2000/svg" viewBox="0 0 252.83 220.01">
  <defs>
    <style>
      .cls-1, .cls-2 {
        fill: none;
      }

      .cls-2 {
        stroke: #fff;
        stroke-miterlimit: 2.61;
        stroke-width: 2px;
      }
    </style>
  </defs>
  <g id="_レイヤー_2" data-name="レイヤー 2">
    <g>
      <path class="cls-2" d="M185.68,60.81l4.78,25.52h-42.79v-26.04c4.42-.11,8.81-.17,13.11-.17,8.16,0,16.6.25,24.91.7ZM42.82,156.23c-9.65,0-17.47-7.82-17.47-17.47s7.82-17.47,17.47-17.47,17.47,7.82,17.47,17.47-7.83,17.47-17.47,17.47ZM204.46,156.23c-9.65,0-17.47-7.82-17.47-17.47s7.82-17.47,17.47-17.47,17.47,7.82,17.47,17.47-7.83,17.47-17.47,17.47ZM247.26,135.08c-1.03,2.98-1.29,3.31-3.65,3.92l-13.07,2.44c.09-.89.14-1.78.14-2.69,0-14.48-11.74-26.21-26.21-26.21s-26.21,11.73-26.21,26.21c0,1.49.15,2.94.39,4.37h-110c.24-1.42.39-2.88.39-4.37,0-14.48-11.74-26.21-26.21-26.21s-26.21,11.73-26.21,26.21c0,1.49.15,2.94.39,4.37h-5.61c-2.7-.15-3.82-.91-5.52-4.19-1.36-2.91-2.2-7.63-2.35-13.36l5.19-4.06c.99-.77,1.6-1.92,1.67-3.17.12-4.13,3.24-12.49,6.16-15.31,1.05-.91,9.36-3.19,18.55-4.5,9.51-1.49,20.68-2.68,29.75-3.46h19.47c3.62,0,6.55-2.94,6.55-6.55s-2.94-6.55-6.55-6.55h-2.64c7.28-5.93,14.48-11.4,20.34-15.29,3.3-2.19,7.07-3.56,11-4.05,8.11-1.02,16.96-1.65,25.9-2.03v25.74h-39.32c-2.41,0-4.37,1.95-4.37,4.37s1.95,4.37,4.37,4.37h126.69c2.41,0,4.37-1.95,4.37-4.37s-1.95-4.37-4.37-4.37h-26.95l-4.67-24.91c5.38.4,10.68.84,15.69,1.4,3.42.38,6.59,1.89,8.87,4.33,6.57,7.02,12.69,14.08,18.71,21.59,2.41,3.01,4.05,6.62,4.81,10.52.86,4.36,1.24,10.52,1.3,17.68,0,1.1.42,2.15,1.17,2.95l2.91,3.11c0,5.12-.15,9.42-.89,12.08Z"/>
      <rect class="cls-1" width="252.83" height="220.01"/>
    </g>
  </g>
</svg>