<?xml version="1.0" encoding="UTF-8"?>
<svg id="Layer_2" data-name="Layer 2" xmlns="http://www.w3.org/2000/svg" viewBox="0 0 740 118.95">
  <defs>
    <style>
      .cls-1 {
        fill: none;
        stroke: #a7a04f;
        stroke-miterlimit: 10;
      }

      .cls-2 {
        opacity: .5;
      }
    </style>
  </defs>
  <g id="_レイヤー_2" data-name="レイヤー 2">
    <g class="cls-2">
      <path class="cls-1" d="M17.63,21.89H.5V5.7h50.28v16.19h-17.05v90.6h-16.11V21.89Z"/>
      <path class="cls-1" d="M82.55,87.94l-3.91,24.55h-16.77L80.02,5.7h22.16l17.9,106.79h-16.94l-3.77-24.55h-16.82ZM91.01,30.16l-5.97,42.1h11.93l-5.97-42.1Z"/>
      <path class="cls-1" d="M147.26,78.61v33.88h-16.11V5.61h16.11v38.1l19.69-38.1h17.17l-22.05,43.59,25.86,63.28h-18.93l-16.91-43.39-4.82,9.51Z"/>
      <path class="cls-1" d="M219.68,87.94l-3.91,24.55h-16.77L217.15,5.7h22.16l17.9,106.79h-16.94l-3.77-24.55h-16.82ZM228.14,30.16l-5.97,42.1h11.93l-5.97-42.1Z"/>
      <path class="cls-1" d="M284.39,67.23v45.26h-16.11V5.7h16.11v45.34h19.43V5.7h16.11v106.79h-16.11v-45.26h-19.43Z"/>
      <path class="cls-1" d="M351.69,87.94l-3.91,24.55h-16.77l18.15-106.79h22.16l17.9,106.79h-16.94l-3.77-24.55h-16.82ZM360.16,30.16l-5.97,42.1h11.93l-5.97-42.1Z"/>
      <path class="cls-1" d="M417.43,21.89h-17.13V5.7h50.28v16.19h-17.05v90.6h-16.11V21.89Z"/>
      <path class="cls-1" d="M482.34,87.94l-3.91,24.55h-16.77l18.15-106.79h22.16l17.9,106.79h-16.94l-3.77-24.55h-16.82ZM490.81,30.16l-5.97,42.1h11.93l-5.97-42.1Z"/>
      <path class="cls-1" d="M593.08,88.2c0,4.6-1.14,8.86-3.41,12.78,1.42,1.65,3.46,2.47,6.14,2.47v15c-8.07,0-13.58-2.53-16.53-7.59-3.58,1.93-7.47,2.9-11.68,2.9-7.1,0-13.14-2.5-18.11-7.5-4.97-5-7.46-11.02-7.46-18.07V29.9c0-7.1,2.5-13.14,7.5-18.11,5-4.97,11.02-7.46,18.07-7.46s13.12,2.51,18.07,7.54c4.94,5.03,7.42,11.04,7.42,18.03v58.3ZM576.37,29.56c0-2.56-.91-4.73-2.73-6.52-1.82-1.79-4.01-2.68-6.56-2.68s-4.73.89-6.52,2.68c-1.79,1.79-2.69,3.96-2.69,6.52v58.47c0,2.56.9,4.73,2.69,6.52,1.79,1.79,3.96,2.68,6.52,2.68s4.74-.9,6.56-2.68c1.82-1.79,2.73-3.96,2.73-6.52V29.56Z"/>
      <path class="cls-1" d="M669.7,62.2c-2.56,11.36-6.02,20.97-10.4,28.81,4.15,3.81,7.76,5.71,10.82,5.71v14.91c-6.25,0-12.7-2.84-19.35-8.52-6.36,6.7-13.18,10.06-20.45,10.06-8.41,0-14.83-3.47-19.26-10.4-2.78-4.37-4.18-9.38-4.18-15s1.33-11.25,4.01-17.22c.45-.97,1.96-3.58,4.52-7.84,1.42-2.27,2.84-4.46,4.26-6.56l-3.32-7.59c-1.59-3.52-2.67-6.02-3.24-7.5-1.14-2.9-1.93-5.51-2.39-7.84-.51-2.56-.77-5.06-.77-7.5,0-4.77,1.05-9.15,3.15-13.12,2.16-4.2,5.28-7.36,9.38-9.46,3.24-1.76,6.82-2.64,10.74-2.64,4.38,0,8.38,1.09,12.02,3.28,3.64,2.19,6.42,5.21,8.35,9.08,1.53,3.13,2.3,6.51,2.3,10.14,0,6.42-2.25,12.53-6.73,18.32l-3.49,4.52c-3.18,4.15-6.11,8.04-8.78,11.68,3.58,7.44,7.61,14.4,12.1,20.88,2.67-6.08,4.72-12.56,6.14-19.43l14.57,3.24ZM630.32,98.34c3.24,0,6.68-2.05,10.31-6.14-4.38-5.62-8.78-12.5-13.21-20.62-1.02,1.7-2.04,3.47-3.07,5.28-1.71,3.92-2.56,7.56-2.56,10.91,0,2.96.65,5.37,1.96,7.24,1.53,2.22,3.72,3.32,6.56,3.32ZM624.78,25.64c0,3.18,1.65,8.69,4.94,16.53l2.04-2.56,2.13-2.81,3.41-4.52c2.5-3.29,3.75-6.36,3.75-9.2,0-2.1-.29-3.72-.85-4.86-1.42-3.58-3.75-5.37-6.99-5.37-2.78,0-4.97,1.51-6.56,4.52-1.25,2.39-1.88,5.14-1.88,8.27Z"/>
      <path class="cls-1" d="M701.89,87.94l-3.91,24.55h-16.77l18.15-106.79h22.16l17.9,106.79h-16.94l-3.77-24.55h-16.82ZM710.35,30.16l-5.97,42.1h11.93l-5.97-42.1Z"/>
    </g>
  </g>
</svg>