<?xml version="1.0" encoding="UTF-8"?>
<svg id="Layer_2" data-name="Layer 2" xmlns="http://www.w3.org/2000/svg" viewBox="0 0 853.27 110.43">
  <defs>
    <style>
      .cls-1 {
        fill: none;
        stroke: #fff;
        stroke-miterlimit: 10;
      }

      .cls-2 {
        opacity: .5;
      }
    </style>
  </defs>
  <g id="_レイヤー_2" data-name="レイヤー 2">
    <g class="cls-2">
      <path class="cls-1" d="M66.78,1.86h16.91l-16.71,106.79h-15.34l-9.19-58.75-8.57,58.75h-15.41L.59,1.86h16.88l8.44,57.19L33.66,1.86h16.87l8.43,57.14L66.78,1.86Z"/>
      <path class="cls-1" d="M110.87,63.4v45.26h-16.11V1.86h16.11v45.34h19.43V1.86h16.11v106.79h-16.11v-45.26h-19.43Z"/>
      <path class="cls-1" d="M182.97.5c7.1,0,13.14,2.5,18.11,7.5,4.97,5,7.46,11.02,7.46,18.07v58.3c0,7.1-2.5,13.14-7.5,18.11-5,4.97-11.02,7.46-18.07,7.46s-13.12-2.5-18.07-7.5c-4.94-5-7.41-11.02-7.41-18.07V26.07c0-7.1,2.5-13.14,7.5-18.11,5-4.97,10.99-7.46,17.98-7.46ZM191.75,25.73c0-2.56-.89-4.73-2.68-6.52-1.79-1.79-3.96-2.68-6.52-2.68s-4.75.89-6.56,2.68c-1.82,1.79-2.73,3.96-2.73,6.52v58.47c0,2.56.91,4.73,2.73,6.52,1.82,1.79,4.01,2.68,6.56,2.68s4.73-.89,6.52-2.68c1.79-1.79,2.68-3.96,2.68-6.52V25.73Z"/>
      <path class="cls-1" d="M246.81,108.65h-16.11V1.86h16.11v106.79Z"/>
      <path class="cls-1" d="M311.15,82.06c.11,7.44-1.82,13.81-5.79,19.09-2.61,3.58-6.31,6.11-11.08,7.59-2.56.8-5.54,1.19-8.95,1.19-6.31,0-11.54-1.56-15.68-4.69-3.47-2.56-6.21-6.04-8.22-10.44-2.02-4.4-3.2-9.45-3.54-15.13l15.34-1.11c.68,6.23,2.33,10.74,4.94,13.54,1.93,2.11,4.15,3.11,6.65,3,3.52-.11,6.33-1.85,8.44-5.2,1.08-1.65,1.62-4.01,1.62-7.08,0-4.44-2.02-8.84-6.05-13.22-3.18-3.01-7.96-7.53-14.32-13.56-5.34-5.17-9.12-9.81-11.33-13.91-2.39-4.61-3.58-9.61-3.58-15.01,0-9.72,3.27-17.09,9.8-22.09,4.03-3.01,9.03-4.52,15-4.52s10.65,1.28,14.74,3.84c3.18,1.99,5.75,4.77,7.71,8.35,1.96,3.58,3.14,7.7,3.54,12.36l-15.43,2.81c-.46-4.37-1.7-7.78-3.75-10.23-1.48-1.76-3.61-2.64-6.39-2.64-2.96,0-5.2,1.31-6.73,3.92-1.25,2.1-1.88,4.72-1.88,7.84,0,4.89,2.1,9.86,6.31,14.91,1.59,1.93,3.98,4.21,7.16,6.82,3.75,3.13,6.22,5.31,7.42,6.56,3.98,3.98,7.04,7.9,9.21,11.76,1.02,1.82,1.85,3.49,2.47,5.03,1.53,3.81,2.33,7.22,2.39,10.23Z"/>
      <path class="cls-1" d="M350.44,18.06h-17.13V1.86h50.28v16.19h-17.05v90.6h-16.11V18.06Z"/>
      <path class="cls-1" d="M415.36,84.11l-3.91,24.55h-16.77L412.83,1.86h22.16l17.9,106.79h-16.94l-3.77-24.55h-16.82ZM423.82,26.32l-5.97,42.1h11.93l-5.97-42.1Z"/>
      <path class="cls-1" d="M480.07,74.78v33.88h-16.11V1.78h16.11v38.1L499.76,1.78h17.17l-22.05,43.59,25.86,63.28h-18.93l-16.91-43.39-4.82,9.51Z"/>
      <path class="cls-1" d="M552.49,84.11l-3.91,24.55h-16.77L549.96,1.86h22.16l17.9,106.79h-16.94l-3.77-24.55h-16.82ZM560.95,26.32l-5.97,42.1h11.93l-5.97-42.1Z"/>
      <path class="cls-1" d="M617.2,63.4v45.26h-16.11V1.86h16.11v45.34h19.43V1.86h16.11v106.79h-16.11v-45.26h-19.43Z"/>
      <path class="cls-1" d="M684.5,84.11l-3.91,24.55h-16.77L681.97,1.86h22.16l17.9,106.79h-16.94l-3.77-24.55h-16.82ZM692.97,26.32l-5.97,42.1h11.93l-5.97-42.1Z"/>
      <path class="cls-1" d="M750.24,18.06h-17.13V1.86h50.28v16.19h-17.05v90.6h-16.11V18.06Z"/>
      <path class="cls-1" d="M815.16,84.11l-3.91,24.55h-16.77L812.62,1.86h22.16l17.9,106.79h-16.94l-3.77-24.55h-16.82ZM823.62,26.32l-5.97,42.1h11.93l-5.97-42.1Z"/>
    </g>
  </g>
</svg>